  0
SECTION
  2
HEADER
  9
$ACADVER
  1
AC1014
  9
$HANDSEED
  5
FFFF
  9
$INSUNITS
 70
     4
  9
$MEASUREMENT
 70
     1
  0
ENDSEC
  0
SECTION
  2
TABLES
  0
TABLE
  2
VPORT
  5
8
330
0
100
AcDbSymbolTable
 70
     4
  0
VPORT
  5
2E
330
8
100
AcDbSymbolTableRecord
100
AcDbViewportTableRecord
  2
*ACTIVE
 70
     0
 10
0.0
 20
0.0
 11
1.0
 21
1.0
 12
210.0
 22
148.5
 13
0.0
 23
0.0
 14
10.0
 24
10.0
 15
10.0
 25
10.0
 16
0.0
 26
0.0
 36
1.0
 17
0.0
 27
0.0
 37
0.0
 40
341.0
 41
1.24
 42
50.0
 43
0.0
 44
0.0
 50
0.0
 51
0.0
 71
     0
 72
   100
 73
     1
 74
     3
 75
     0
 76
     0
 77
     0
 78
     0
  0
ENDTAB
  0
TABLE
  2
LTYPE
  5
5
330
0
100
AcDbSymbolTable
 70
     1
  0
LTYPE
  5
14
330
5
100
AcDbSymbolTableRecord
100
AcDbLinetypeTableRecord
  2
BYBLOCK
 70
     0
  3

 72
    65
 73
     0
 40
0.0
  0
LTYPE
  5
15
330
5
100
AcDbSymbolTableRecord
100
AcDbLinetypeTableRecord
  2
BYLAYER
 70
     0
  3

 72
    65
 73
     0
 40
0.0
  0
LTYPE
  5
16
330
5
100
AcDbSymbolTableRecord
100
AcDbLinetypeTableRecord
  2
CONTINUOUS
 70
     0
  3
Solid line
 72
    65
 73
     0
 40
0.0
  0
ENDTAB
  0
TABLE
  2
LAYER
  5
2
100
AcDbSymbolTable
 70
2
  0
LAYER
  5
50
100
AcDbSymbolTableRecord
100
AcDbLayerTableRecord
  2
0
 70
0
  6
CONTINUOUS
  0
LAYER
  5
51
100
AcDbSymbolTableRecord
100
AcDbLayerTableRecord
  2
Layer_1
 70
0
  6
CONTINUOUS
  0
ENDTAB
  0
TABLE
  2
STYLE
  5
3
330
0
100
AcDbSymbolTable
 70
     1
  0
STYLE
  5
11
330
3
100
AcDbSymbolTableRecord
100
AcDbTextStyleTableRecord
  2
STANDARD
 70
     0
 40
0.0
 41
1.0
 50
0.0
 71
     0
 42
2.5
  3
txt
  4

  0
ENDTAB
  0
TABLE
  2
VIEW
  5
6
330
0
100
AcDbSymbolTable
 70
     0
  0
ENDTAB
  0
TABLE
  2
UCS
  5
7
330
0
100
AcDbSymbolTable
 70
     0
  0
ENDTAB
  0
TABLE
  2
APPID
  5
9
330
0
100
AcDbSymbolTable
 70
     2
  0
APPID
  5
12
330
9
100
AcDbSymbolTableRecord
100
AcDbRegAppTableRecord
  2
ACAD
 70
     0
  0
ENDTAB
  0
TABLE
  2
DIMSTYLE
  5
A
330
0
100
AcDbSymbolTable
 70
     1
  0
DIMSTYLE
105
27
330
A
100
AcDbSymbolTableRecord
100
AcDbDimStyleTableRecord
  2
ISO-25
 70
     0
  3

  4

  5

  6

  7

 40
1.0
 41
2.5
 42
0.625
 43
3.75
 44
1.25
 45
0.0
 46
0.0
 47
0.0
 48
0.0
140
2.5
141
2.5
142
0.0
143
0.03937007874016
144
1.0
145
0.0
146
1.0
147
0.625
 71
     0
 72
     0
 73
     0
 74
     0
 75
     0
 76
     0
 77
     1
 78
     8
170
     0
171
     3
172
     1
173
     0
174
     0
175
     0
176
     0
177
     0
178
     0
270
     2
271
     2
272
     2
273
     2
274
     3
340
11
275
     0
280
     0
281
     0
282
     0
283
     0
284
     8
285
     0
286
     0
287
     3
288
     0
  0
ENDTAB
  0
TABLE
  2
BLOCK_RECORD
  5
1
330
0
100
AcDbSymbolTable
 70
     1
  0
BLOCK_RECORD
  5
1F
330
1
100
AcDbSymbolTableRecord
100
AcDbBlockTableRecord
  2
*MODEL_SPACE
  0
BLOCK_RECORD
  5
1B
330
1
100
AcDbSymbolTableRecord
100
AcDbBlockTableRecord
  2
*PAPER_SPACE
  0
ENDTAB
  0
ENDSEC
  0
SECTION
  2
BLOCKS
  0
BLOCK
  5
20
330
1F
100
AcDbEntity
  8
0
100
AcDbBlockBegin
  2
*MODEL_SPACE
 70
     0
 10
0.0
 20
0.0
 30
0.0
  3
*MODEL_SPACE
  1

  0
ENDBLK
  5
21
330
1F
100
AcDbEntity
  8
0
100
AcDbBlockEnd
  0
BLOCK
  5
1C
330
1B
100
AcDbEntity
 67
     1
  8
0
100
AcDbBlockBegin
  2
*PAPER_SPACE
  1

  0
ENDBLK
  5
1D
330
1B
100
AcDbEntity
 67
     1
  8
0
100
AcDbBlockEnd
  0
ENDSEC
  0
SECTION
  2
ENTITIES
  0
SPLINE
  5
100
100
AcDbEntity
  8
Layer_1
 62
7
100
AcDbSpline
 70
0
 71
3
 72
25
 73
21
 74
19
 40
0.000000
 40
0.000000
 40
0.000000
 40
0.000000
 40
15.685771
 40
30.906308
 40
46.592079
 40
62.277851
 40
77.498388
 40
93.184161
 40
101.037408
 40
108.825666
 40
116.678913
 40
124.532160
 40
132.320418
 40
140.173665
 40
148.026912
 40
155.815170
 40
163.668416
 40
171.521663
 40
179.309921
 40
187.163167
 40
187.163167
 40
187.163167
 40
187.163167
 10
150.308600
 20
200.650652
 30
0.0
 10
149.484047
 20
195.362126
 30
0.0
 10
147.859398
 20
184.941930
 30
0.0
 10
135.915997
 20
173.470518
 30
0.0
 10
120.335817
 20
169.218640
 30
0.0
 10
104.593948
 20
173.473937
 30
0.0
 10
93.126017
 20
184.928550
 30
0.0
 10
89.604620
 20
198.050841
 30
0.0
 10
91.001079
 20
208.501220
 30
0.0
 10
94.029281
 20
215.823045
 30
0.0
 10
98.850487
 20
222.108675
 30
0.0
 10
105.137087
 20
226.929445
 30
0.0
 10
112.454622
 20
229.960343
 30
0.0
 10
120.308469
 20
230.997237
 30
0.0
 10
128.163100
 20
229.960359
 30
0.0
 10
135.478291
 20
226.929378
 30
0.0
 10
141.773540
 20
222.108924
 30
0.0
 10
146.562536
 20
215.822113
 30
0.0
 10
149.710293
 20
208.504675
 30
0.0
 10
150.108613
 20
203.275901
 30
0.0
 10
150.308600
 20
200.650652
 30
0.0
 11
150.308600
 21
200.650652
 31
0.0
 11
146.212718
 21
185.509081
 31
0.0
 11
135.450172
 21
174.746538
 31
0.0
 11
120.308600
 21
170.650660
 31
0.0
 11
105.167027
 21
174.746537
 31
0.0
 11
94.404480
 21
185.509080
 31
0.0
 11
90.308597
 21
200.650652
 31
0.0
 11
91.336413
 21
208.436349
 31
0.0
 11
94.316851
 21
215.631762
 31
0.0
 11
99.095395
 21
221.863856
 31
0.0
 11
105.327490
 21
226.642400
 31
0.0
 11
112.522903
 21
229.622837
 31
0.0
 11
120.308600
 21
230.650652
 31
0.0
 11
128.094297
 21
229.622836
 31
0.0
 11
135.289709
 21
226.642399
 31
0.0
 11
141.521803
 21
221.863855
 31
0.0
 11
146.300347
 21
215.631761
 31
0.0
 11
149.280784
 21
208.436349
 31
0.0
 11
150.308600
 21
200.650652
 31
0.0
  0
LWPOLYLINE
  5
101
100
AcDbEntity
  8
Layer_1
 62
7
100
AcDbPolyline
 90
1
 70
1
 10
150.308600
 20
200.650652
 30
0.0
  0
SPLINE
  5
102
100
AcDbEntity
  8
Layer_1
 62
7
100
AcDbSpline
 70
0
 71
3
 72
55
 73
51
 74
49
 40
0.000000
 40
0.000000
 40
0.000000
 40
0.000000
 40
0.278414
 40
0.566055
 40
0.868631
 40
1.189079
 40
1.528741
 40
1.891629
 40
2.254873
 40
2.595696
 40
2.918235
 40
3.220242
 40
3.504713
 40
3.777216
 40
4.052173
 40
4.323552
 40
4.597562
 40
4.878829
 40
5.175480
 40
5.492506
 40
5.804120
 40
6.100956
 40
6.387929
 40
6.664827
 40
6.935623
 40
7.206500
 40
7.482467
 40
7.768333
 40
8.069519
 40
8.388210
 40
8.727721
 40
9.091953
 40
9.451087
 40
9.787569
 40
10.105275
 40
10.408923
 40
10.699731
 40
10.983222
 40
11.250952
 40
11.521167
 40
11.800361
 40
12.089601
 40
12.385431
 40
12.692625
 40
13.008678
 40
13.306702
 40
13.591942
 40
13.868236
 40
14.137029
 40
14.404328
 40
14.404328
 40
14.404328
 40
14.404328
 10
138.716760
 20
179.547070
 30
0.0
 10
138.624314
 20
179.556994
 30
0.0
 10
138.436360
 20
179.577170
 30
0.0
 10
138.157854
 20
179.661956
 30
0.0
 10
137.880404
 20
179.786347
 30
0.0
 10
137.604077
 20
179.951086
 30
0.0
 10
137.333427
 20
180.159666
 30
0.0
 10
137.074855
 20
180.404003
 30
0.0
 10
136.838171
 20
180.670130
 30
0.0
 10
136.637718
 20
180.948397
 30
0.0
 10
136.481970
 20
181.230845
 30
0.0
 10
136.366870
 20
181.511910
 30
0.0
 10
136.293857
 20
181.789818
 30
0.0
 10
136.264730
 20
182.066616
 30
0.0
 10
136.275689
 20
182.340328
 30
0.0
 10
136.327784
 20
182.609864
 30
0.0
 10
136.421085
 20
182.870218
 30
0.0
 10
136.554692
 20
183.121885
 30
0.0
 10
136.730573
 20
183.363914
 30
0.0
 10
136.940904
 20
183.590330
 30
0.0
 10
137.173771
 20
183.793671
 30
0.0
 10
137.421977
 20
183.960947
 30
0.0
 10
137.679913
 20
184.088684
 30
0.0
 10
137.945406
 20
184.175185
 30
0.0
 10
138.215551
 20
184.220414
 30
0.0
 10
138.489137
 20
184.223687
 30
0.0
 10
138.765072
 20
184.185150
 30
0.0
 10
139.041999
 20
184.104101
 30
0.0
 10
139.319428
 20
183.982849
 30
0.0
 10
139.593515
 20
183.816443
 30
0.0
 10
139.863498
 20
183.607432
 30
0.0
 10
140.121031
 20
183.363411
 30
0.0
 10
140.356530
 20
183.099451
 30
0.0
 10
140.555412
 20
182.825585
 30
0.0
 10
140.712230
 20
182.546640
 30
0.0
 10
140.828881
 20
182.264962
 30
0.0
 10
140.903888
 20
181.981160
 30
0.0
 10
140.937206
 20
181.701407
 30
0.0
 10
140.926554
 20
181.426635
 30
0.0
 10
140.872323
 20
181.158562
 30
0.0
 10
140.775788
 20
180.895148
 30
0.0
 10
140.639347
 20
180.640434
 30
0.0
 10
140.465782
 20
180.397915
 30
0.0
 10
140.257411
 20
180.172404
 30
0.0
 10
140.025306
 20
179.970345
 30
0.0
 10
139.775902
 20
179.802319
 30
0.0
 10
139.516649
 20
179.678066
 30
0.0
 10
139.253141
 20
179.591432
 30
0.0
 10
138.985038
 20
179.543217
 30
0.0
 10
138.806019
 20
179.545788
 30
0.0
 10
138.716760
 20
179.547070
 30
0.0
 11
138.716760
 21
179.547070
 31
0.0
 11
138.440987
 21
179.585327
 31
0.0
 11
138.164880
 21
179.665963
 31
0.0
 11
137.888440
 21
179.788980
 31
0.0
 11
137.613088
 21
179.952896
 31
0.0
 11
137.343178
 21
180.159096
 31
0.0
 11
137.078710
 21
180.407580
 31
0.0
 11
136.838178
 21
180.679776
 31
0.0
 11
136.640088
 21
180.957122
 31
0.0
 11
136.484440
 21
181.239620
 31
0.0
 11
136.371122
 21
181.519561
 31
0.0
 11
136.300102
 21
181.795024
 31
0.0
 11
136.271380
 21
182.066010
 31
0.0
 11
136.282672
 21
182.340734
 31
0.0
 11
136.334282
 21
182.607161
 31
0.0
 11
136.426210
 21
182.865290
 31
0.0
 11
136.557713
 21
183.113922
 31
0.0
 11
136.730983
 21
183.354712
 31
0.0
 11
136.946020
 21
183.587660
 31
0.0
 11
137.181571
 21
183.791667
 31
0.0
 11
137.428104
 21
183.956993
 31
0.0
 11
137.685620
 21
184.083640
 31
0.0
 11
137.949018
 21
184.169044
 31
0.0
 11
138.216144
 21
184.213471
 31
0.0
 11
138.487000
 21
184.216920
 31
0.0
 11
138.760370
 21
184.179151
 31
0.0
 11
139.035053
 21
184.099978
 31
0.0
 11
139.311050
 21
183.979400
 31
0.0
 11
139.584229
 21
183.815274
 31
0.0
 11
139.853406
 21
183.608364
 31
0.0
 11
140.118580
 21
183.358670
 31
0.0
 11
140.356754
 21
183.089877
 31
0.0
 11
140.553464
 21
182.816883
 31
0.0
 11
140.708710
 21
182.539690
 31
0.0
 11
140.823939
 21
182.258756
 31
0.0
 11
140.897759
 21
181.977472
 31
0.0
 11
140.930170
 21
181.695840
 31
0.0
 11
140.919471
 21
181.428324
 31
0.0
 11
140.866441
 21
181.163364
 31
0.0
 11
140.771080
 21
180.900960
 31
0.0
 11
140.635147
 21
180.645653
 31
0.0
 11
140.463320
 21
180.404840
 31
0.0
 11
140.255600
 21
180.178520
 31
0.0
 11
140.016634
 21
179.971676
 31
0.0
 11
139.768658
 21
179.806369
 31
0.0
 11
139.511670
 21
179.682600
 31
0.0
 11
139.248987
 21
179.596950
 31
0.0
 11
138.984017
 21
179.551773
 31
0.0
 11
138.716760
 21
179.547070
 31
0.0
  0
LWPOLYLINE
  5
103
100
AcDbEntity
  8
Layer_1
 62
7
100
AcDbPolyline
 90
1
 70
1
 10
138.716760
 20
179.547070
 30
0.0
  0
LWPOLYLINE
  5
104
100
AcDbEntity
  8
Layer_1
 62
7
100
AcDbPolyline
 90
1
 70
1
 10
137.531500
 20
180.847150
 30
0.0
  0
SPLINE
  5
105
100
AcDbEntity
  8
Layer_1
 62
7
100
AcDbSpline
 70
0
 71
3
 72
31
 73
27
 74
25
 40
0.000000
 40
0.000000
 40
0.000000
 40
0.000000
 40
0.548779
 40
1.024144
 40
1.451745
 40
1.853008
 40
2.249795
 40
2.680347
 40
3.114276
 40
3.512930
 40
3.914695
 40
4.341421
 40
4.816501
 40
5.365245
 40
5.918829
 40
6.396725
 40
6.825511
 40
7.225161
 40
7.619778
 40
8.045802
 40
8.471495
 40
8.865177
 40
9.263549
 40
9.692335
 40
10.170230
 40
10.723822
 40
10.723822
 40
10.723822
 40
10.723822
 10
137.531500
 20
180.847150
 30
0.0
 10
137.664229
 20
180.720623
 30
0.0
 10
137.911930
 20
180.484496
 30
0.0
 10
138.334983
 20
180.238302
 30
0.0
 10
138.759580
 20
180.122682
 30
0.0
 10
139.174793
 20
180.134444
 30
0.0
 10
139.565191
 20
180.280493
 30
0.0
 10
139.900272
 20
180.541763
 30
0.0
 10
140.171850
 20
180.869313
 30
0.0
 10
140.331163
 20
181.256522
 30
0.0
 10
140.356198
 20
181.671753
 30
0.0
 10
140.251529
 20
182.099483
 30
0.0
 10
140.015051
 20
182.526326
 30
0.0
 10
139.673595
 20
182.928919
 30
0.0
 10
139.280316
 20
183.282577
 30
0.0
 10
138.856651
 20
183.531611
 30
0.0
 10
138.429637
 20
183.644393
 30
0.0
 10
138.015774
 20
183.625668
 30
0.0
 10
137.629135
 20
183.478978
 30
0.0
 10
137.297963
 20
183.220896
 30
0.0
 10
137.030360
 20
182.897798
 30
0.0
 10
136.872737
 20
182.516295
 30
0.0
 10
136.843526
 20
182.103706
 30
0.0
 10
136.943555
 20
181.674531
 30
0.0
 10
137.177568
 20
181.241217
 30
0.0
 10
137.407889
 20
180.984779
 30
0.0
 10
137.531500
 20
180.847150
 30
0.0
 11
137.531500
 21
180.847150
 31
0.0
 11
137.944257
 21
180.485500
 31
0.0
 11
138.357447
 21
180.250457
 31
0.0
 11
138.771070
 21
180.142020
 31
0.0
 11
139.172070
 21
180.156534
 31
0.0
 11
139.544550
 21
180.293278
 31
0.0
 11
139.888510
 21
180.552250
 31
0.0
 11
140.159999
 21
180.890759
 31
0.0
 11
140.309186
 21
181.260446
 31
0.0
 11
140.336070
 21
181.661310
 31
0.0
 11
140.238706
 21
182.076780
 31
0.0
 11
140.015279
 21
182.496043
 31
0.0
 11
139.665790
 21
182.919100
 31
0.0
 11
139.249222
 21
183.283692
 31
0.0
 11
138.833146
 21
183.518776
 31
0.0
 11
138.417560
 21
183.624350
 31
0.0
 11
138.018403
 21
183.604497
 31
0.0
 11
137.648787
 21
183.466270
 31
0.0
 11
137.308710
 21
183.209670
 31
0.0
 11
137.042377
 21
182.877583
 31
0.0
 11
136.893990
 21
182.512937
 31
0.0
 11
136.863550
 21
182.115730
 31
0.0
 11
136.956744
 21
181.697194
 31
0.0
 11
137.179394
 21
181.274334
 31
0.0
 11
137.531500
 21
180.847150
 31
0.0
  0
LWPOLYLINE
  5
106
100
AcDbEntity
  8
Layer_1
 62
7
100
AcDbPolyline
 90
4
 70
1
 10
137.843410
 20
181.282300
 30
0.0
 10
139.221580
 20
182.620220
 30
0.0
 10
139.603530
 20
182.226770
 30
0.0
 10
138.225370
 20
180.888860
 30
0.0
  0
SPLINE
  5
107
100
AcDbEntity
  8
Layer_1
 62
7
100
AcDbSpline
 70
0
 71
3
 72
31
 73
27
 74
25
 40
0.000000
 40
0.000000
 40
0.000000
 40
0.000000
 40
0.234631
 40
0.460349
 40
0.678377
 40
0.895774
 40
1.119413
 40
1.350302
 40
1.512757
 40
1.677971
 40
1.846628
 40
2.015038
 40
2.180452
 40
2.344857
 40
2.503739
 40
2.659184
 40
2.814730
 40
2.973518
 40
3.140725
 40
3.323068
 40
3.511923
 40
3.692755
 40
3.874895
 40
4.068418
 40
4.282090
 40
4.524428
 40
4.524428
 40
4.524428
 40
4.524428
 10
132.754750
 20
179.946100
 30
0.0
 10
132.796769
 20
180.012100
 30
0.0
 10
132.879212
 20
180.141592
 30
0.0
 10
133.017067
 20
180.321208
 30
0.0
 10
133.163783
 20
180.485910
 30
0.0
 10
133.322578
 20
180.638036
 30
0.0
 10
133.494687
 20
180.781586
 30
0.0
 10
133.660553
 20
180.903439
 30
0.0
 10
133.817389
 20
181.004009
 30
0.0
 10
133.962763
 20
181.083232
 30
0.0
 10
134.114153
 20
181.154973
 30
0.0
 10
134.271096
 20
181.214310
 30
0.0
 10
134.432500
 20
181.254978
 30
0.0
 10
134.594109
 20
181.277521
 30
0.0
 10
134.754222
 20
181.281249
 30
0.0
 10
134.909865
 20
181.259651
 30
0.0
 10
135.061507
 20
181.217520
 30
0.0
 10
135.204243
 20
181.140921
 30
0.0
 10
135.333224
 20
181.029276
 30
0.0
 10
135.446093
 20
180.888786
 30
0.0
 10
135.536746
 20
180.727145
 30
0.0
 10
135.587714
 20
180.548746
 30
0.0
 10
135.597879
 20
180.361694
 30
0.0
 10
135.557587
 20
180.167475
 30
0.0
 10
135.468068
 20
179.968384
 30
0.0
 10
135.378323
 20
179.845314
 30
0.0
 10
135.330630
 20
179.779910
 30
0.0
 11
132.754750
 21
179.946100
 31
0.0
 11
132.883693
 21
180.142123
 31
0.0
 11
133.020777
 21
180.321447
 31
0.0
 11
133.166000
 21
180.484070
 31
0.0
 11
133.322703
 21
180.634754
 31
0.0
 11
133.494227
 21
180.778261
 31
0.0
 11
133.680570
 21
180.914590
 31
0.0
 11
133.817590
 21
181.001867
 31
0.0
 11
133.962450
 21
181.081310
 31
0.0
 11
134.115150
 21
181.152920
 31
0.0
 11
134.273019
 21
181.211566
 31
0.0
 11
134.433386
 21
181.252116
 31
0.0
 11
134.596250
 21
181.274570
 31
0.0
 11
134.755114
 21
181.276959
 31
0.0
 11
134.909174
 21
181.256259
 31
0.0
 11
135.058430
 21
181.212470
 31
0.0
 11
135.198447
 21
181.137577
 31
0.0
 11
135.325857
 21
181.029297
 31
0.0
 11
135.440660
 21
180.887630
 31
0.0
 11
135.531131
 21
180.721856
 31
0.0
 11
135.580918
 21
180.548012
 31
0.0
 11
135.590020
 21
180.366100
 31
0.0
 11
135.552577
 21
180.176234
 31
0.0
 11
135.466113
 21
179.980838
 31
0.0
 11
135.330630
 21
179.779910
 31
0.0
  0
LWPOLYLINE
  5
108
100
AcDbEntity
  8
Layer_1
 62
7
100
AcDbPolyline
 90
2
 70
0
 10
135.330630
 20
179.779910
 30
0.0
 10
135.342730
 20
179.762210
 30
0.0
  0
SPLINE
  5
109
100
AcDbEntity
  8
Layer_1
 62
7
100
AcDbSpline
 70
0
 71
3
 72
31
 73
27
 74
25
 40
0.000000
 40
0.000000
 40
0.000000
 40
0.000000
 40
0.184458
 40
0.358726
 40
0.530823
 40
0.701347
 40
0.871852
 40
1.051835
 40
1.223791
 40
1.381386
 40
1.533180
 40
1.685885
 40
1.835329
 40
1.984303
 40
2.134056
 40
2.290346
 40
2.454552
 40
2.621531
 40
2.785728
 40
2.947841
 40
3.142626
 40
3.327248
 40
3.502563
 40
3.676682
 40
3.857974
 40
4.046677
 40
4.046677
 40
4.046677
 40
4.046677
 10
135.342730
 20
179.762210
 30
0.0
 10
135.401775
 20
179.780076
 30
0.0
 10
135.516604
 20
179.814820
 30
0.0
 10
135.695332
 20
179.821976
 30
0.0
 10
135.866227
 20
179.792160
 30
0.0
 10
136.025508
 20
179.725407
 30
0.0
 10
136.165763
 20
179.620048
 30
0.0
 10
136.277861
 20
179.485150
 30
0.0
 10
136.362036
 20
179.336606
 30
0.0
 10
136.410429
 20
179.181830
 30
0.0
 10
136.415678
 20
179.026342
 30
0.0
 10
136.391515
 20
178.876484
 30
0.0
 10
136.350349
 20
178.731446
 30
0.0
 10
136.288976
 20
178.594646
 30
0.0
 10
136.209133
 20
178.465351
 30
0.0
 10
136.114819
 20
178.339885
 30
0.0
 10
136.005338
 20
178.219544
 30
0.0
 10
135.885925
 20
178.105352
 30
0.0
 10
135.760272
 20
177.999104
 30
0.0
 10
135.620044
 20
177.896388
 30
0.0
 10
135.467947
 20
177.798998
 30
0.0
 10
135.306524
 20
177.708453
 30
0.0
 10
135.144467
 20
177.634451
 30
0.0
 10
134.980618
 20
177.567696
 30
0.0
 10
134.810259
 20
177.505278
 30
0.0
 10
134.692724
 20
177.467876
 30
0.0
 10
134.632780
 20
177.448800
 30
0.0
 11
135.342730
 21
179.762210
 31
0.0
 11
135.521440
 21
179.807899
 31
0.0
 11
135.695530
 21
179.815766
 31
0.0
 11
135.865000
 21
179.785810
 31
0.0
 11
136.022000
 21
179.719254
 31
0.0
 11
136.158680
 21
179.617321
 31
0.0
 11
136.275040
 21
179.480010
 31
0.0
 11
136.358607
 21
179.329726
 31
0.0
 11
136.403853
 21
179.178766
 31
0.0
 11
136.410780
 21
179.027130
 31
0.0
 11
136.388407
 21
178.876072
 31
0.0
 11
136.346887
 21
178.732512
 31
0.0
 11
136.286220
 21
178.596450
 31
0.0
 11
136.208442
 21
178.468480
 31
0.0
 11
136.114576
 21
178.343517
 31
0.0
 11
136.004620
 21
178.221560
 31
0.0
 11
135.884103
 21
178.105984
 31
0.0
 11
135.758553
 21
178.000164
 31
0.0
 11
135.627970
 21
177.904100
 31
0.0
 11
135.464080
 21
177.798832
 31
0.0
 11
135.302637
 21
177.709269
 31
0.0
 11
135.143640
 21
177.635410
 31
0.0
 11
134.982460
 21
177.569542
 31
0.0
 11
134.812173
 21
177.507339
 31
0.0
 11
134.632780
 21
177.448800
 31
0.0
  0
LWPOLYLINE
  5
10a
100
AcDbEntity
  8
Layer_1
 62
7
100
AcDbPolyline
 90
3
 70
0
 10
134.632780
 20
177.448800
 30
0.0
 10
134.274370
 20
177.971930
 30
0.0
 10
134.307270
 20
177.994430
 30
0.0
  0
SPLINE
  5
10b
100
AcDbEntity
  8
Layer_1
 62
7
100
AcDbSpline
 70
0
 71
3
 72
37
 73
33
 74
31
 40
0.000000
 40
0.000000
 40
0.000000
 40
0.000000
 40
0.174646
 40
0.360529
 40
0.560635
 40
0.765383
 40
0.968571
 40
1.171999
 40
1.261877
 40
1.347872
 40
1.430205
 40
1.512327
 40
1.598890
 40
1.690858
 40
1.768687
 40
1.848582
 40
1.932961
 40
2.015853
 40
2.098517
 40
2.185034
 40
2.300814
 40
2.401945
 40
2.493885
 40
2.583655
 40
2.675997
 40
2.774502
 40
2.871913
 40
2.972302
 40
3.076446
 40
3.182999
 40
3.290226
 40
3.398131
 40
3.398131
 40
3.398131
 40
3.398131
 10
134.307270
 20
177.994430
 30
0.0
 10
134.365576
 20
177.993729
 30
0.0
 10
134.485939
 20
177.992283
 30
0.0
 10
134.671151
 20
178.023034
 30
0.0
 10
134.860940
 20
178.076250
 30
0.0
 10
135.050518
 20
178.148842
 30
0.0
 10
135.233442
 20
178.239310
 30
0.0
 10
135.374443
 20
178.326483
 30
0.0
 10
135.477215
 20
178.400178
 30
0.0
 10
135.544694
 20
178.453684
 30
0.0
 10
135.607150
 20
178.509101
 30
0.0
 10
135.666993
 20
178.567762
 30
0.0
 10
135.720694
 20
178.636389
 30
0.0
 10
135.766565
 20
178.708479
 30
0.0
 10
135.806555
 20
178.781876
 30
0.0
 10
135.829026
 20
178.859938
 30
0.0
 10
135.840057
 20
178.941879
 30
0.0
 10
135.835571
 20
179.025726
 30
0.0
 10
135.811434
 20
179.107078
 30
0.0
 10
135.764169
 20
179.190097
 30
0.0
 10
135.700206
 20
179.269048
 30
0.0
 10
135.620938
 20
179.336241
 30
0.0
 10
135.533888
 20
179.375620
 30
0.0
 10
135.443058
 20
179.390789
 30
0.0
 10
135.348965
 20
179.387975
 30
0.0
 10
135.254917
 20
179.366051
 30
0.0
 10
135.162130
 20
179.331860
 30
0.0
 10
135.070829
 20
179.289212
 30
0.0
 10
134.980979
 20
179.237177
 30
0.0
 10
134.893447
 20
179.177392
 30
0.0
 10
134.804172
 20
179.118004
 30
0.0
 10
134.744973
 20
179.077530
 30
0.0
 10
134.715280
 20
179.057230
 30
0.0
 11
134.307270
 21
177.994430
 31
0.0
 11
134.481892
 21
177.997308
 31
0.0
 11
134.665639
 21
178.025408
 31
0.0
 11
134.858510
 21
178.078730
 31
0.0
 11
135.049712
 21
178.151967
 31
0.0
 11
135.231826
 21
178.242077
 31
0.0
 11
135.404850
 21
178.349060
 31
0.0
 11
135.477826
 21
178.401527
 31
0.0
 11
135.545126
 21
178.455060
 31
0.0
 11
135.606750
 21
178.509660
 31
0.0
 11
135.664640
 21
178.567908
 31
0.0
 11
135.718443
 21
178.635718
 31
0.0
 11
135.768160
 21
178.713090
 31
0.0
 11
135.803638
 21
178.782362
 31
0.0
 11
135.826738
 21
178.858846
 31
0.0
 11
135.837460
 21
178.942540
 31
0.0
 11
135.832338
 21
179.025273
 31
0.0
 11
135.808971
 21
179.104567
 31
0.0
 11
135.767360
 21
179.180420
 31
0.0
 11
135.694284
 21
179.270224
 31
0.0
 11
135.615871
 21
179.334091
 31
0.0
 11
135.532120
 21
179.372020
 31
0.0
 11
135.443739
 21
179.387753
 31
0.0
 11
135.351436
 21
179.385087
 31
0.0
 11
135.255210
 21
179.364020
 31
0.0
 11
135.163579
 21
179.330963
 31
0.0
 11
135.072632
 21
179.288460
 31
0.0
 11
134.982370
 21
179.236510
 31
0.0
 11
134.893516
 21
179.177701
 31
0.0
 11
134.804486
 21
179.117941
 31
0.0
 11
134.715280
 21
179.057230
 31
0.0
  0
LWPOLYLINE
  5
10c
100
AcDbEntity
  8
Layer_1
 62
7
100
AcDbPolyline
 90
4
 70
0
 10
134.715280
 20
179.057230
 30
0.0
 10
134.434760
 20
178.865050
 30
0.0
 10
134.147340
 20
179.284560
 30
0.0
 10
134.546640
 20
179.558130
 30
0.0
  0
SPLINE
  5
10d
100
AcDbEntity
  8
Layer_1
 62
7
100
AcDbSpline
 70
0
 71
3
 72
37
 73
33
 74
31
 40
0.000000
 40
0.000000
 40
0.000000
 40
0.000000
 40
0.122548
 40
0.237029
 40
0.343567
 40
0.443761
 40
0.540124
 40
0.633657
 40
0.722281
 40
0.809362
 40
0.898361
 40
0.990887
 40
1.091932
 40
1.205321
 40
1.308505
 40
1.404165
 40
1.496456
 40
1.587587
 40
1.678081
 40
1.770379
 40
1.857994
 40
1.951644
 40
2.052122
 40
2.159333
 40
2.269070
 40
2.381793
 40
2.595224
 40
2.820848
 40
3.060937
 40
3.297340
 40
3.512927
 40
3.711855
 40
3.711855
 40
3.711855
 40
3.711855
 10
134.546640
 20
179.558130
 30
0.0
 10
134.580166
 20
179.581472
 30
0.0
 10
134.645010
 20
179.626618
 30
0.0
 10
134.736565
 20
179.695484
 30
0.0
 10
134.819725
 20
179.762905
 30
0.0
 10
134.896332
 20
179.828971
 30
0.0
 10
134.961748
 20
179.900423
 30
0.0
 10
135.018326
 20
179.974267
 30
0.0
 10
135.061005
 20
180.053901
 30
0.0
 10
135.085513
 20
180.139233
 30
0.0
 10
135.094168
 20
180.229028
 30
0.0
 10
135.080128
 20
180.323111
 30
0.0
 10
135.043128
 20
180.419174
 30
0.0
 10
134.988934
 20
180.510564
 30
0.0
 10
134.923706
 20
180.592249
 30
0.0
 10
134.848592
 20
180.654992
 30
0.0
 10
134.764773
 20
180.697031
 30
0.0
 10
134.676404
 20
180.721624
 30
0.0
 10
134.585300
 20
180.732164
 30
0.0
 10
134.494914
 20
180.727121
 30
0.0
 10
134.405156
 20
180.710152
 30
0.0
 10
134.314824
 20
180.684011
 30
0.0
 10
134.220969
 20
180.647912
 30
0.0
 10
134.125330
 20
180.602449
 30
0.0
 10
134.029251
 20
180.548964
 30
0.0
 10
133.906930
 20
180.470395
 30
0.0
 10
133.761284
 20
180.357374
 30
0.0
 10
133.598249
 20
180.199818
 30
0.0
 10
133.445076
 20
180.022393
 30
0.0
 10
133.311075
 20
179.834341
 30
0.0
 10
133.205826
 20
179.643178
 30
0.0
 10
133.164272
 20
179.511103
 30
0.0
 10
133.144330
 20
179.447720
 30
0.0
 11
134.546640
 21
179.558130
 31
0.0
 11
134.646768
 21
179.628787
 31
0.0
 11
134.738231
 21
179.697637
 31
0.0
 11
134.821030
 21
179.764680
 31
0.0
 11
134.895909
 21
179.831253
 31
0.0
 11
134.961292
 21
179.902040
 31
0.0
 11
135.017180
 21
179.977040
 31
0.0
 11
135.058302
 21
180.055546
 31
0.0
 11
135.082736
 21
180.139129
 31
0.0
 11
135.090480
 21
180.227790
 31
0.0
 11
135.077418
 21
180.319390
 31
0.0
 11
135.042231
 21
180.414110
 31
0.0
 11
134.984920
 21
180.511950
 31
0.0
 11
134.919506
 21
180.591749
 31
0.0
 11
134.845662
 21
180.652559
 31
0.0
 11
134.763390
 21
180.694380
 31
0.0
 11
134.675742
 21
180.719336
 31
0.0
 11
134.585826
 21
180.729536
 31
0.0
 11
134.493640
 21
180.724980
 31
0.0
 11
134.407453
 21
180.709224
 31
0.0
 11
134.317427
 21
180.683424
 31
0.0
 11
134.223560
 21
180.647580
 31
0.0
 11
134.126613
 21
180.601803
 31
0.0
 11
134.030707
 21
180.548473
 31
0.0
 11
133.935840
 21
180.487590
 31
0.0
 11
133.766982
 21
180.357053
 31
0.0
 11
133.604116
 21
180.200910
 31
0.0
 11
133.447240
 21
180.019160
 31
0.0
 11
133.310992
 21
179.825969
 31
0.0
 11
133.210022
 21
179.635489
 31
0.0
 11
133.144330
 21
179.447720
 31
0.0
  0
LWPOLYLINE
  5
10e
100
AcDbEntity
  8
Layer_1
 62
7
100
AcDbPolyline
 90
3
 70
0
 10
133.144330
 20
179.447720
 30
0.0
 10
133.111530
 20
179.425220
 30
0.0
 10
132.754750
 20
179.946100
 30
0.0
  0
SPLINE
  5
10f
100
AcDbEntity
  8
Layer_1
 62
7
100
AcDbSpline
 70
0
 71
3
 72
31
 73
27
 74
25
 40
0.000000
 40
0.000000
 40
0.000000
 40
0.000000
 40
0.520584
 40
0.983333
 40
1.416566
 40
1.833210
 40
2.248738
 40
2.699556
 40
3.153756
 40
3.571168
 40
3.988333
 40
4.420628
 40
4.883061
 40
5.403614
 40
5.924170
 40
6.386606
 40
6.818903
 40
7.237172
 40
7.654982
 40
8.109224
 40
8.560085
 40
8.976012
 40
9.393754
 40
9.826983
 40
10.289734
 40
10.810323
 40
10.810323
 40
10.810323
 40
10.810323
 10
130.158140
 20
176.945070
 30
0.0
 10
130.088844
 20
177.104788
 30
0.0
 10
129.957951
 20
177.406480
 30
0.0
 10
129.888702
 20
177.880012
 30
0.0
 10
129.942779
 20
178.319485
 30
0.0
 10
130.113216
 20
178.712499
 30
0.0
 10
130.401118
 20
179.037966
 30
0.0
 10
130.778049
 20
179.273431
 30
0.0
 10
131.196012
 20
179.426270
 30
0.0
 10
131.631541
 20
179.454401
 30
0.0
 10
132.047030
 20
179.347905
 30
0.0
 10
132.426456
 20
179.118922
 30
0.0
 10
132.752723
 20
178.771261
 30
0.0
 10
133.008360
 20
178.337043
 30
0.0
 10
133.193584
 20
177.868489
 30
0.0
 10
133.267323
 20
177.397358
 30
0.0
 10
133.214049
 20
176.957161
 30
0.0
 10
133.044126
 20
176.562878
 30
0.0
 10
132.754455
 20
176.235567
 30
0.0
 10
132.376943
 20
175.999520
 30
0.0
 10
131.959183
 20
175.847273
 30
0.0
 10
131.524792
 20
175.821244
 30
0.0
 10
131.110103
 20
175.930344
 30
0.0
 10
130.729782
 20
176.157570
 30
0.0
 10
130.398961
 20
176.503489
 30
0.0
 10
130.241501
 20
176.792189
 30
0.0
 10
130.158140
 20
176.945030
 30
0.0
 11
130.158140
 21
176.945070
 31
0.0
 11
129.973466
 21
177.431797
 31
0.0
 11
129.908789
 21
177.890003
 31
0.0
 11
129.964110
 21
178.319690
 31
0.0
 11
130.132080
 21
178.700976
 31
0.0
 11
130.405363
 21
179.013992
 31
0.0
 11
130.783960
 21
179.258740
 31
0.0
 11
131.212819
 21
179.408333
 31
0.0
 11
131.629542
 21
179.432300
 31
0.0
 11
132.034130
 21
179.330640
 31
0.0
 11
132.405481
 21
179.109331
 31
0.0
 11
132.726161
 21
178.776151
 31
0.0
 11
132.996170
 21
178.331100
 31
0.0
 11
133.181147
 21
177.844518
 31
0.0
 11
133.246743
 21
177.386758
 31
0.0
 11
133.192960
 21
176.957820
 31
0.0
 11
133.025122
 21
176.574702
 31
0.0
 11
132.750449
 21
176.259869
 31
0.0
 11
132.368940
 21
176.013320
 31
0.0
 11
131.942992
 21
175.865522
 31
0.0
 11
131.527656
 21
175.843356
 31
0.0
 11
131.122930
 21
175.946820
 31
0.0
 11
130.750051
 21
176.167386
 31
0.0
 11
130.428454
 21
176.500122
 31
0.0
 11
130.158140
 21
176.945030
 31
0.0
  0
LWPOLYLINE
  5
110
100
AcDbEntity
  8
Layer_1
 62
7
100
AcDbPolyline
 90
1
 70
1
 10
130.158140
 20
176.945030
 30
0.0
  0
SPLINE
  5
111
100
AcDbEntity
  8
Layer_1
 62
7
100
AcDbSpline
 70
0
 71
3
 72
31
 73
27
 74
25
 40
0.000000
 40
0.000000
 40
0.000000
 40
0.000000
 40
0.406085
 40
0.746157
 40
1.037216
 40
1.303643
 40
1.567827
 40
1.856018
 40
2.147584
 40
2.413630
 40
2.680558
 40
2.970775
 40
3.310586
 40
3.716650
 40
4.112214
 40
4.449325
 40
4.744230
 40
5.013226
 40
5.279181
 40
5.569140
 40
5.855682
 40
6.119353
 40
6.386683
 40
6.681543
 40
7.019904
 40
7.418536
 40
7.418536
 40
7.418536
 40
7.418536
 10
130.692160
 20
177.205870
 30
0.0
 10
130.755690
 20
177.086072
 30
0.0
 10
130.872422
 20
176.865951
 30
0.0
 10
131.096470
 20
176.598096
 30
0.0
 10
131.344931
 20
176.424086
 30
0.0
 10
131.611700
 20
176.342971
 30
0.0
 10
131.889360
 20
176.353708
 30
0.0
 10
132.156761
 20
176.450383
 30
0.0
 10
132.397994
 20
176.602022
 30
0.0
 10
132.579240
 20
176.815082
 30
0.0
 10
132.680450
 20
177.075633
 30
0.0
 10
132.694031
 20
177.378808
 30
0.0
 10
132.617946
 20
177.718518
 30
0.0
 10
132.470797
 20
178.070593
 30
0.0
 10
132.283618
 20
178.402283
 30
0.0
 10
132.061864
 20
178.666863
 30
0.0
 10
131.813946
 20
178.843605
 30
0.0
 10
131.545266
 20
178.928113
 30
0.0
 10
131.265370
 20
178.918792
 30
0.0
 10
130.998094
 20
178.822909
 30
0.0
 10
130.758795
 20
178.671521
 30
0.0
 10
130.581031
 20
178.458384
 30
0.0
 10
130.482406
 20
178.196147
 30
0.0
 10
130.467071
 20
177.892425
 30
0.0
 10
130.537625
 20
177.552295
 30
0.0
 10
130.637914
 20
177.327493
 30
0.0
 10
130.692160
 20
177.205900
 30
0.0
 11
130.692160
 21
177.205870
 31
0.0
 11
130.895913
 21
176.854601
 31
0.0
 11
131.118200
 21
176.597234
 31
0.0
 11
131.359020
 21
176.433770
 31
0.0
 11
131.614360
 21
176.357710
 31
0.0
 11
131.878407
 21
176.366210
 31
0.0
 11
132.151160
 21
176.459270
 31
0.0
 11
132.395302
 21
176.618659
 31
0.0
 11
132.566182
 21
176.822572
 31
0.0
 11
132.663800
 21
177.071010
 31
0.0
 11
132.681439
 21
177.360691
 31
0.0
 11
132.614222
 21
177.693788
 31
0.0
 11
132.462150
 21
178.070300
 31
0.0
 11
132.263027
 21
178.412091
 31
0.0
 11
132.042083
 21
178.666704
 31
0.0
 11
131.799320
 21
178.834140
 31
0.0
 11
131.542180
 21
178.913120
 31
0.0
 11
131.276320
 21
178.906020
 31
0.0
 11
131.001740
 21
178.812840
 31
0.0
 11
130.762337
 21
178.655384
 31
0.0
 11
130.594660
 21
178.451898
 31
0.0
 11
130.498710
 21
178.202380
 31
0.0
 11
130.479538
 21
177.908144
 31
0.0
 11
130.544021
 21
177.575984
 31
0.0
 11
130.692160
 21
177.205900
 31
0.0
  0
LWPOLYLINE
  5
112
100
AcDbEntity
  8
Layer_1
 62
7
100
AcDbPolyline
 90
1
 70
1
 10
130.692160
 20
177.205900
 30
0.0
  0
SPLINE
  5
113
100
AcDbEntity
  8
Layer_1
 62
7
100
AcDbSpline
 70
0
 71
3
 72
19
 73
15
 74
13
 40
0.000000
 40
0.000000
 40
0.000000
 40
0.000000
 40
0.410560
 40
0.767911
 40
1.101747
 40
1.441433
 40
1.813814
 40
2.241583
 40
2.664557
 40
3.034383
 40
3.372750
 40
3.706056
 40
4.065679
 40
4.482371
 40
4.482371
 40
4.482371
 40
4.482371
 10
126.195900
 20
176.150080
 30
0.0
 10
126.162626
 20
176.283417
 30
0.0
 10
126.100390
 20
176.532810
 30
0.0
 10
126.120674
 20
176.906050
 30
0.0
 10
126.248655
 20
177.231705
 30
0.0
 10
126.480721
 20
177.499550
 30
0.0
 10
126.801385
 20
177.710195
 30
0.0
 10
127.184149
 20
177.856405
 30
0.0
 10
127.583140
 20
177.945857
 30
0.0
 10
127.963644
 20
177.948145
 30
0.0
 10
128.304527
 20
177.857468
 30
0.0
 10
128.593162
 20
177.658796
 30
0.0
 10
128.817344
 20
177.356116
 30
0.0
 10
128.903881
 20
177.111135
 30
0.0
 10
128.950330
 20
176.979640
 30
0.0
 11
126.195900
 21
176.150080
 31
0.0
 11
126.117909
 21
176.553164
 31
0.0
 11
126.140642
 21
176.909791
 31
0.0
 11
126.264100
 21
177.219960
 31
0.0
 11
126.483099
 21
177.479626
 31
0.0
 11
126.791282
 21
177.688649
 31
0.0
 11
127.188650
 21
177.847030
 31
0.0
 11
127.602656
 21
177.933670
 31
0.0
 11
127.972472
 21
177.931003
 31
0.0
 11
128.298100
 21
177.839030
 31
0.0
 11
128.573317
 21
177.651018
 31
0.0
 11
128.790727
 21
177.364554
 31
0.0
 11
128.950330
 21
176.979640
 31
0.0
  0
LWPOLYLINE
  5
114
100
AcDbEntity
  8
Layer_1
 62
7
100
AcDbPolyline
 90
4
 70
0
 10
128.950330
 20
176.979640
 30
0.0
 10
129.577350
 20
174.896950
 30
0.0
 10
129.025880
 20
174.730920
 30
0.0
 10
128.459790
 20
176.611210
 30
0.0
  0
LWPOLYLINE
  5
115
100
AcDbEntity
  8
Layer_1
 62
7
100
AcDbPolyline
 90
4
 70
0
 10
126.808280
 20
176.114050
 30
0.0
 10
127.374360
 20
174.233760
 30
0.0
 10
126.822890
 20
174.067730
 30
0.0
 10
126.195900
 20
176.150080
 30
0.0
  0
SPLINE
  5
116
100
AcDbEntity
  8
Layer_1
 62
7
100
AcDbSpline
 70
0
 71
3
 72
31
 73
27
 74
25
 40
0.000000
 40
0.000000
 40
0.000000
 40
0.000000
 40
0.178731
 40
0.335301
 40
0.470154
 40
0.591182
 40
0.707608
 40
0.822032
 40
0.929375
 40
1.037834
 40
1.151249
 40
1.279542
 40
1.430162
 40
1.605262
 40
1.771189
 40
1.918929
 40
2.050654
 40
2.171533
 40
2.283859
 40
2.392479
 40
2.501707
 40
2.616082
 40
2.737880
 40
2.875313
 40
3.030934
 40
3.205251
 40
3.205251
 40
3.205251
 40
3.205251
 10
128.459790
 20
176.611210
 30
0.0
 10
128.442097
 20
176.668110
 30
0.0
 10
128.408904
 20
176.774855
 30
0.0
 10
128.354067
 20
176.921745
 30
0.0
 10
128.299481
 20
177.048038
 30
0.0
 10
128.238101
 20
177.156376
 30
0.0
 10
128.164857
 20
177.248498
 30
0.0
 10
128.082722
 20
177.326512
 30
0.0
 10
127.988693
 20
177.385263
 30
0.0
 10
127.885513
 20
177.424229
 30
0.0
 10
127.770114
 20
177.446338
 30
0.0
 10
127.638629
 20
177.442515
 30
0.0
 10
127.488948
 20
177.418761
 30
0.0
 10
127.330212
 20
177.377121
 30
0.0
 10
127.175937
 20
177.324179
 30
0.0
 10
127.041109
 20
177.261095
 30
0.0
 10
126.928753
 20
177.188251
 30
0.0
 10
126.837763
 20
177.106564
 30
0.0
 10
126.769126
 20
177.014552
 30
0.0
 10
126.724068
 20
176.913040
 30
0.0
 10
126.702404
 20
176.803864
 30
0.0
 10
126.694939
 20
176.688633
 30
0.0
 10
126.705296
 20
176.564215
 30
0.0
 10
126.727291
 20
176.427640
 30
0.0
 10
126.761594
 20
176.275546
 30
0.0
 10
126.792141
 20
176.169878
 30
0.0
 10
126.808280
 20
176.114050
 30
0.0
 11
128.459790
 21
176.611210
 31
0.0
 11
128.405029
 21
176.781346
 31
0.0
 11
128.350212
 21
176.928006
 31
0.0
 11
128.295340
 21
177.051190
 31
0.0
 11
128.234672
 21
177.155914
 31
0.0
 11
128.162402
 21
177.247194
 31
0.0
 11
128.078530
 21
177.325030
 31
0.0
 11
127.987480
 21
177.381884
 31
0.0
 11
127.886210
 21
177.420714
 31
0.0
 11
127.774720
 21
177.441520
 31
0.0
 11
127.646433
 21
177.440220
 31
0.0
 11
127.497493
 21
177.417787
 31
0.0
 11
127.327900
 21
177.374220
 31
0.0
 11
127.171331
 21
177.319284
 31
0.0
 11
127.037984
 21
177.255678
 31
0.0
 11
126.927860
 21
177.183400
 31
0.0
 11
126.838672
 21
177.101809
 31
0.0
 11
126.772056
 21
177.011369
 31
0.0
 11
126.728010
 21
176.912080
 31
0.0
 11
126.705066
 21
176.805289
 31
0.0
 11
126.697832
 21
176.691142
 31
0.0
 11
126.706310
 21
176.569640
 31
0.0
 11
126.727640
 21
176.433872
 31
0.0
 11
126.761630
 21
176.282009
 31
0.0
 11
126.808280
 21
176.114050
 31
0.0
  0
LWPOLYLINE
  5
117
100
AcDbEntity
  8
Layer_1
 62
7
100
AcDbPolyline
 90
8
 70
1
 10
120.200990
 20
173.780270
 30
0.0
 10
121.436870
 20
173.845970
 30
0.0
 10
121.281980
 20
176.758240
 30
0.0
 10
121.857100
 20
176.788840
 30
0.0
 10
122.011980
 20
173.876580
 30
0.0
 10
123.247860
 20
173.942280
 30
0.0
 10
123.274660
 20
173.437530
 30
0.0
 10
120.227790
 20
173.275490
 30
0.0
  0
SPLINE
  5
118
100
AcDbEntity
  8
Layer_1
 62
7
100
AcDbSpline
 70
0
 71
3
 72
25
 73
21
 74
19
 40
0.000000
 40
0.000000
 40
0.000000
 40
0.000000
 40
0.196565
 40
0.395162
 40
0.597100
 40
0.794284
 40
0.984550
 40
1.170710
 40
1.364259
 40
1.551383
 40
1.736420
 40
1.923915
 40
2.126051
 40
2.348823
 40
2.540504
 40
2.728047
 40
2.917887
 40
3.103028
 40
3.272714
 40
3.431998
 40
3.431998
 40
3.431998
 40
3.431998
 10
115.096300
 20
175.636370
 30
0.0
 10
115.105586
 20
175.701268
 30
0.0
 10
115.124253
 20
175.831735
 30
0.0
 10
115.173043
 20
176.025056
 30
0.0
 10
115.235893
 20
176.214239
 30
0.0
 10
115.312618
 20
176.395514
 30
0.0
 10
115.408972
 20
176.561261
 30
0.0
 10
115.524021
 20
176.713081
 30
0.0
 10
115.658561
 20
176.846778
 30
0.0
 10
115.811112
 20
176.958694
 30
0.0
 10
115.976926
 20
177.046098
 30
0.0
 10
116.161647
 20
177.101618
 30
0.0
 10
116.365860
 20
177.121091
 30
0.0
 10
116.571768
 20
177.110694
 30
0.0
 10
116.769581
 20
177.071737
 30
0.0
 10
116.946199
 20
176.999284
 30
0.0
 10
117.104382
 20
176.896583
 30
0.0
 10
117.238200
 20
176.773256
 30
0.0
 10
117.348444
 20
176.640239
 30
0.0
 10
117.396009
 20
176.541034
 30
0.0
 10
117.419040
 20
176.493000
 30
0.0
 11
115.096300
 21
175.636370
 31
0.0
 11
115.127528
 21
175.830439
 31
0.0
 11
115.175078
 21
176.023259
 31
0.0
 11
115.238950
 21
176.214830
 31
0.0
 11
115.317312
 21
176.395774
 31
0.0
 11
115.412919
 21
176.560274
 31
0.0
 11
115.525770
 21
176.708330
 31
0.0
 11
115.663266
 21
176.844551
 31
0.0
 11
115.814179
 21
176.955188
 31
0.0
 11
115.978510
 21
177.040240
 31
0.0
 11
116.158026
 21
177.094356
 31
0.0
 11
116.359026
 21
177.115756
 31
0.0
 11
116.581510
 21
177.104440
 31
0.0
 11
116.769174
 21
177.065403
 31
0.0
 11
116.942768
 21
176.994427
 31
0.0
 11
117.102290
 21
176.891510
 31
0.0
 11
117.238978
 21
176.766636
 31
0.0
 11
117.344561
 21
176.633799
 31
0.0
 11
117.419040
 21
176.493000
 31
0.0
  0
LWPOLYLINE
  5
119
100
AcDbEntity
  8
Layer_1
 62
7
100
AcDbPolyline
 90
2
 70
0
 10
117.419040
 20
176.493000
 30
0.0
 10
117.437340
 20
176.491000
 30
0.0
  0
SPLINE
  5
11a
100
AcDbEntity
  8
Layer_1
 62
7
100
AcDbSpline
 70
0
 71
3
 72
31
 73
27
 74
25
 40
0.000000
 40
0.000000
 40
0.000000
 40
0.000000
 40
0.160983
 40
0.327079
 40
0.502380
 40
0.683398
 40
0.869960
 40
1.069443
 40
1.290224
 40
1.494812
 40
1.689282
 40
1.877158
 40
2.061396
 40
2.246339
 40
2.433847
 40
2.624519
 40
2.820893
 40
3.021155
 40
3.219631
 40
3.417550
 40
3.754399
 40
4.074252
 40
4.382646
 40
4.710379
 40
5.084227
 40
5.508324
 40
5.508324
 40
5.508324
 40
5.508324
 10
117.437340
 20
176.491000
 30
0.0
 10
117.471505
 20
176.532553
 30
0.0
 10
117.540922
 20
176.616978
 30
0.0
 10
117.673061
 20
176.721563
 30
0.0
 10
117.822609
 20
176.811597
 30
0.0
 10
117.992730
 20
176.877071
 30
0.0
 10
118.181142
 20
176.905008
 30
0.0
 10
118.384076
 20
176.895900
 30
0.0
 10
118.589450
 20
176.857026
 30
0.0
 10
118.784972
 20
176.787262
 30
0.0
 10
118.954980
 20
176.687775
 30
0.0
 10
119.096928
 20
176.561908
 30
0.0
 10
119.217954
 20
176.420213
 30
0.0
 10
119.314310
 20
176.260744
 30
0.0
 10
119.389237
 20
176.088155
 30
0.0
 10
119.444910
 20
175.904494
 30
0.0
 10
119.480457
 20
175.711526
 30
0.0
 10
119.494614
 20
175.513403
 30
0.0
 10
119.495276
 20
175.314339
 30
0.0
 10
119.475495
 20
175.070496
 30
0.0
 10
119.426035
 20
174.789226
 30
0.0
 10
119.331464
 20
174.480818
 30
0.0
 10
119.196292
 20
174.190941
 30
0.0
 10
119.008993
 20
173.909993
 30
0.0
 10
118.765909
 20
173.623076
 30
0.0
 10
118.573064
 20
173.439675
 30
0.0
 10
118.470570
 20
173.342200
 30
0.0
 11
117.437340
 21
176.491000
 31
0.0
 11
117.543861
 21
176.611701
 31
0.0
 11
117.672518
 21
176.716751
 31
0.0
 11
117.823310
 21
176.806150
 31
0.0
 11
117.992677
 21
176.870043
 31
0.0
 11
118.177043
 21
176.898577
 31
0.0
 11
118.376410
 21
176.891750
 31
0.0
 11
118.593256
 21
176.850250
 31
0.0
 11
118.785459
 21
176.780150
 31
0.0
 11
118.953020
 21
176.681450
 31
0.0
 11
119.094683
 21
176.558044
 31
0.0
 11
119.213740
 21
176.417441
 31
0.0
 11
119.310190
 21
176.259640
 31
0.0
 11
119.385454
 21
176.087900
 31
0.0
 11
119.440941
 21
175.905480
 31
0.0
 11
119.476650
 21
175.712380
 31
0.0
 11
119.492376
 21
175.512737
 31
0.0
 11
119.492486
 21
175.314260
 31
0.0
 11
119.476980
 21
175.116950
 31
0.0
 11
119.418120
 21
174.785283
 31
0.0
 11
119.323273
 21
174.479817
 31
0.0
 11
119.192440
 21
174.200550
 31
0.0
 11
119.012877
 21
173.926387
 31
0.0
 11
118.772253
 21
173.640270
 31
0.0
 11
118.470570
 21
173.342200
 31
0.0
  0
LWPOLYLINE
  5
11b
100
AcDbEntity
  8
Layer_1
 62
7
100
AcDbPolyline
 90
3
 70
0
 10
118.470570
 20
173.342200
 30
0.0
 10
117.776970
 20
173.424500
 30
0.0
 10
117.782970
 20
173.476200
 30
0.0
  0
SPLINE
  5
11c
100
AcDbEntity
  8
Layer_1
 62
7
100
AcDbSpline
 70
0
 71
3
 72
37
 73
33
 74
31
 40
0.000000
 40
0.000000
 40
0.000000
 40
0.000000
 40
0.349062
 40
0.695151
 40
1.045114
 40
1.396258
 40
1.749714
 40
2.114578
 40
2.246332
 40
2.372195
 40
2.492439
 40
2.611594
 40
2.739157
 40
2.876432
 40
2.998373
 40
3.117670
 40
3.237102
 40
3.357940
 40
3.483915
 40
3.621291
 40
3.720092
 40
3.808761
 40
3.888319
 40
3.961898
 40
4.026775
 40
4.083837
 40
4.140699
 40
4.195651
 40
4.249317
 40
4.300018
 40
4.343455
 40
4.379840
 40
4.379840
 40
4.379840
 40
4.379840
 10
117.782970
 20
173.476200
 30
0.0
 10
117.879473
 20
173.541562
 30
0.0
 10
118.071657
 20
173.671731
 30
0.0
 10
118.321909
 20
173.916471
 30
0.0
 10
118.539432
 20
174.190697
 30
0.0
 10
118.712441
 20
174.498618
 30
0.0
 10
118.834232
 20
174.835319
 30
0.0
 10
118.887007
 20
175.114886
 30
0.0
 10
118.907100
 20
175.321440
 30
0.0
 10
118.913688
 20
175.447252
 30
0.0
 10
118.915351
 20
175.569067
 30
0.0
 10
118.905684
 20
175.691269
 30
0.0
 10
118.880413
 20
175.816993
 30
0.0
 10
118.844566
 20
175.940946
 30
0.0
 10
118.797223
 20
176.058395
 30
0.0
 10
118.733933
 20
176.161076
 30
0.0
 10
118.658064
 20
176.254717
 30
0.0
 10
118.559743
 20
176.329304
 30
0.0
 10
118.441110
 20
176.380464
 30
0.0
 10
118.321962
 20
176.403682
 30
0.0
 10
118.213906
 20
176.411967
 30
0.0
 10
118.124763
 20
176.410916
 30
0.0
 10
118.044552
 20
176.400369
 30
0.0
 10
117.974615
 20
176.380107
 30
0.0
 10
117.913444
 20
176.357182
 30
0.0
 10
117.861344
 20
176.327837
 30
0.0
 10
117.815413
 20
176.295193
 30
0.0
 10
117.773567
 20
176.259025
 30
0.0
 10
117.738361
 20
176.219157
 30
0.0
 10
117.706686
 20
176.181449
 30
0.0
 10
117.680438
 20
176.146651
 30
0.0
 10
117.666873
 20
176.123742
 30
0.0
 10
117.660690
 20
176.113300
 30
0.0
 11
117.782970
 21
173.476200
 31
0.0
 11
118.065991
 21
173.680512
 31
0.0
 11
118.315521
 21
173.920329
 31
0.0
 11
118.531560
 21
174.195650
 31
0.0
 11
118.703281
 21
174.501940
 31
0.0
 11
118.823924
 21
174.834170
 31
0.0
 11
118.893490
 21
175.192340
 31
0.0
 11
118.906290
 21
175.323471
 31
0.0
 11
118.912957
 21
175.449158
 31
0.0
 11
118.913490
 21
175.569400
 31
0.0
 11
118.903634
 21
175.688147
 31
0.0
 11
118.879401
 21
175.813387
 31
0.0
 11
118.840790
 21
175.945120
 31
0.0
 11
118.793786
 21
176.057638
 31
0.0
 11
118.731839
 21
176.159591
 31
0.0
 11
118.654950
 21
176.250980
 31
0.0
 11
118.558736
 21
176.324088
 31
0.0
 11
118.443412
 21
176.374784
 31
0.0
 11
118.308980
 21
176.403070
 31
0.0
 11
118.210473
 21
176.410692
 31
0.0
 11
118.121820
 21
176.409026
 31
0.0
 11
118.043020
 21
176.398070
 31
0.0
 11
117.972133
 21
176.378348
 31
0.0
 11
117.911740
 21
176.354648
 31
0.0
 11
117.861840
 21
176.326970
 31
0.0
 11
117.815446
 21
176.294093
 31
0.0
 11
117.774129
 21
176.257863
 31
0.0
 11
117.737890
 21
176.218280
 31
0.0
 11
117.705490
 21
176.179282
 31
0.0
 11
117.679757
 21
176.144289
 31
0.0
 11
117.660690
 21
176.113300
 31
0.0
  0
LWPOLYLINE
  5
11d
100
AcDbEntity
  8
Layer_1
 62
7
100
AcDbPolyline
 90
4
 70
0
 10
117.660690
 20
176.113300
 30
0.0
 10
117.449960
 20
174.336710
 30
0.0
 10
116.884130
 20
174.403810
 30
0.0
 10
117.094860
 20
176.180400
 30
0.0
  0
SPLINE
  5
11e
100
AcDbEntity
  8
Layer_1
 62
7
100
AcDbSpline
 70
0
 71
3
 72
37
 73
33
 74
31
 40
0.000000
 40
0.000000
 40
0.000000
 40
0.000000
 40
0.041598
 40
0.087833
 40
0.138736
 40
0.191914
 40
0.245423
 40
0.299902
 40
0.361893
 40
0.423195
 40
0.484409
 40
0.556016
 40
0.645568
 40
0.754202
 40
0.889858
 40
1.014564
 40
1.134268
 40
1.254534
 40
1.375898
 40
1.501490
 40
1.624869
 40
1.748893
 40
1.874419
 40
2.001747
 40
2.130899
 40
2.262338
 40
2.625499
 40
2.977958
 40
3.328790
 40
3.677640
 40
4.024519
 40
4.376739
 40
4.376739
 40
4.376739
 40
4.376739
 10
117.094860
 20
176.180400
 30
0.0
 10
117.089734
 20
176.193285
 30
0.0
 10
117.078910
 20
176.220492
 30
0.0
 10
117.060022
 20
176.262714
 30
0.0
 10
117.039120
 20
176.308249
 30
0.0
 10
117.014194
 20
176.354595
 30
0.0
 10
116.983043
 20
176.398517
 30
0.0
 10
116.945608
 20
176.441181
 30
0.0
 10
116.901555
 20
176.481020
 30
0.0
 10
116.852164
 20
176.517731
 30
0.0
 10
116.797059
 20
176.552048
 30
0.0
 10
116.727559
 20
176.578979
 30
0.0
 10
116.639837
 20
176.599415
 30
0.0
 10
116.529848
 20
176.616666
 30
0.0
 10
116.406361
 20
176.622520
 30
0.0
 10
116.280295
 20
176.601376
 30
0.0
 10
116.167471
 20
176.553057
 30
0.0
 10
116.069630
 20
176.481632
 30
0.0
 10
115.982219
 20
176.395341
 30
0.0
 10
115.909191
 20
176.295123
 30
0.0
 10
115.850447
 20
176.185328
 30
0.0
 10
115.799474
 20
176.071829
 30
0.0
 10
115.758314
 20
175.952975
 30
0.0
 10
115.725110
 20
175.829970
 30
0.0
 10
115.698744
 20
175.703295
 30
0.0
 10
115.668698
 20
175.497486
 30
0.0
 10
115.655537
 20
175.214270
 30
0.0
 10
115.694875
 20
174.859366
 30
0.0
 10
115.792024
 20
174.520773
 30
0.0
 10
115.935558
 20
174.201854
 30
0.0
 10
116.122150
 20
173.904350
 30
0.0
 10
116.279815
 20
173.732215
 30
0.0
 10
116.359250
 20
173.645490
 30
0.0
 11
117.094860
 21
176.180400
 31
0.0
 11
117.079227
 21
176.218949
 31
0.0
 11
117.060593
 21
176.261262
 31
0.0
 11
117.038960
 21
176.307340
 31
0.0
 11
117.013316
 21
176.353926
 31
0.0
 11
116.982516
 21
176.397682
 31
0.0
 11
116.946560
 21
176.438610
 31
0.0
 11
116.900764
 21
176.480391
 31
0.0
 11
116.851644
 21
176.517068
 31
0.0
 11
116.799200
 21
176.548640
 31
0.0
 11
116.732767
 21
176.575362
 31
0.0
 11
116.645867
 21
176.596996
 31
0.0
 11
116.538500
 21
176.613540
 31
0.0
 11
116.402906
 21
176.617640
 31
0.0
 11
116.280056
 21
176.596207
 31
0.0
 11
116.169950
 21
176.549240
 31
0.0
 11
116.071888
 21
176.479616
 31
0.0
 11
115.985661
 21
176.394209
 31
0.0
 11
115.911270
 21
176.293020
 31
0.0
 11
115.851829
 21
176.184903
 31
0.0
 11
115.801372
 21
176.071607
 31
0.0
 11
115.759900
 21
175.953130
 31
0.0
 11
115.726467
 21
175.830270
 31
0.0
 11
115.700167
 21
175.703823
 31
0.0
 11
115.681000
 21
175.573790
 31
0.0
 11
115.665032
 21
175.210980
 31
0.0
 11
115.704729
 21
174.860763
 31
0.0
 11
115.800090
 21
174.523140
 31
0.0
 11
115.942983
 21
174.204899
 31
0.0
 11
116.129370
 21
173.912349
 31
0.0
 11
116.359250
 21
173.645490
 31
0.0
  0
LWPOLYLINE
  5
11f
100
AcDbEntity
  8
Layer_1
 62
7
100
AcDbPolyline
 90
3
 70
0
 10
116.359250
 20
173.645490
 30
0.0
 10
116.353250
 20
173.593790
 30
0.0
 10
115.659650
 20
173.676090
 30
0.0
  0
SPLINE
  5
120
100
AcDbEntity
  8
Layer_1
 62
7
100
AcDbSpline
 70
0
 71
3
 72
13
 73
9
 74
7
 40
0.000000
 40
0.000000
 40
0.000000
 40
0.000000
 40
0.424098
 40
0.797949
 40
1.125687
 40
1.434072
 40
1.753927
 40
2.090783
 40
2.090783
 40
2.090783
 40
2.090783
 10
115.659650
 20
173.676090
 30
0.0
 10
115.582798
 20
173.794838
 30
0.0
 10
115.438200
 20
174.018266
 30
0.0
 10
115.269030
 20
174.354084
 30
0.0
 10
115.152484
 20
174.671067
 30
0.0
 10
115.089437
 20
174.984461
 30
0.0
 10
115.067552
 20
175.306692
 30
0.0
 10
115.086553
 20
175.525040
 30
0.0
 10
115.096300
 20
175.637040
 30
0.0
 11
115.659650
 21
173.676090
 31
0.0
 11
115.436067
 21
174.036464
 31
0.0
 11
115.269050
 21
174.370934
 31
0.0
 11
115.158600
 21
174.679500
 31
0.0
 11
115.096744
 21
174.981618
 31
0.0
 11
115.075978
 21
175.300798
 31
0.0
 11
115.096300
 21
175.637040
 31
0.0
  0
LWPOLYLINE
  5
121
100
AcDbEntity
  8
Layer_1
 62
7
100
AcDbPolyline
 90
2
 70
0
 10
115.096300
 20
175.637040
 30
0.0
 10
115.096300
 20
175.636370
 30
0.0
  0
SPLINE
  5
122
100
AcDbEntity
  8
Layer_1
 62
7
100
AcDbSpline
 70
0
 71
3
 72
55
 73
51
 74
49
 40
0.000000
 40
0.000000
 40
0.000000
 40
0.000000
 40
0.278413
 40
0.566053
 40
0.868628
 40
1.189075
 40
1.528737
 40
1.891629
 40
2.254872
 40
2.595694
 40
2.918227
 40
3.220235
 40
3.504708
 40
3.777213
 40
4.052169
 40
4.323549
 40
4.597559
 40
4.878825
 40
5.175480
 40
5.492506
 40
5.804116
 40
6.100950
 40
6.387921
 40
6.664821
 40
6.935616
 40
7.206489
 40
7.482452
 40
7.768317
 40
8.069510
 40
8.388207
 40
8.727720
 40
9.091945
 40
9.451079
 40
9.787560
 40
10.105264
 40
10.408912
 40
10.699721
 40
10.983211
 40
11.250939
 40
11.521154
 40
11.800349
 40
12.089587
 40
12.385417
 40
12.692618
 40
13.008668
 40
13.306692
 40
13.591931
 40
13.868226
 40
14.137021
 40
14.404322
 40
14.404322
 40
14.404322
 40
14.404322
 10
107.472330
 20
175.758280
 30
0.0
 10
107.447171
 20
175.847788
 30
0.0
 10
107.396020
 20
176.029770
 30
0.0
 10
107.371179
 20
176.319832
 30
0.0
 10
107.383503
 20
176.623640
 30
0.0
 10
107.433669
 20
176.941411
 30
0.0
 10
107.526650
 20
177.270214
 30
0.0
 10
107.657301
 20
177.601109
 30
0.0
 10
107.816345
 20
177.919776
 30
0.0
 10
108.000118
 20
178.209326
 30
0.0
 10
108.204399
 20
178.458930
 30
0.0
 10
108.422502
 20
178.670297
 30
0.0
 10
108.653331
 20
178.841419
 30
0.0
 10
108.899448
 20
178.971390
 30
0.0
 10
109.157611
 20
179.062993
 30
0.0
 10
109.427190
 20
179.114861
 30
0.0
 10
109.703569
 20
179.125077
 30
0.0
 10
109.986870
 20
179.094604
 30
0.0
 10
110.276944
 20
179.021337
 30
0.0
 10
110.565347
 20
178.910309
 30
0.0
 10
110.840693
 20
178.769742
 30
0.0
 10
111.088268
 20
178.601540
 30
0.0
 10
111.302762
 20
178.409603
 30
0.0
 10
111.481782
 20
178.195312
 30
0.0
 10
111.624225
 20
177.961360
 30
0.0
 10
111.728992
 20
177.708611
 30
0.0
 10
111.795850
 20
177.438143
 30
0.0
 10
111.823576
 20
177.150930
 30
0.0
 10
111.814129
 20
176.848306
 30
0.0
 10
111.761563
 20
176.531993
 30
0.0
 10
111.667934
 20
176.203650
 30
0.0
 10
111.537208
 20
175.873833
 30
0.0
 10
111.379740
 20
175.557072
 30
0.0
 10
111.199471
 20
175.270613
 30
0.0
 10
110.998839
 20
175.021317
 30
0.0
 10
110.780739
 20
174.808287
 30
0.0
 10
110.545182
 20
174.633124
 30
0.0
 10
110.297886
 20
174.498154
 30
0.0
 10
110.038853
 20
174.405880
 30
0.0
 10
109.769837
 20
174.356538
 30
0.0
 10
109.489417
 20
174.348204
 30
0.0
 10
109.202230
 20
174.380115
 30
0.0
 10
108.912556
 20
174.451053
 30
0.0
 10
108.625740
 20
174.560649
 30
0.0
 10
108.351858
 20
174.700967
 30
0.0
 10
108.103140
 20
174.870006
 30
0.0
 10
107.891393
 20
175.064463
 30
0.0
 10
107.712980
 20
175.276856
 30
0.0
 10
107.568524
 20
175.507805
 30
0.0
 10
107.504342
 20
175.674944
 30
0.0
 10
107.472340
 20
175.758280
 30
0.0
 11
107.472330
 21
175.758280
 31
0.0
 11
107.405312
 21
176.028507
 31
0.0
 11
107.377512
 21
176.314800
 31
0.0
 11
107.388930
 21
176.617160
 31
0.0
 11
107.438700
 21
176.933718
 31
0.0
 11
107.529743
 21
177.260951
 31
0.0
 11
107.662060
 21
177.598860
 31
0.0
 11
107.825300
 21
177.923358
 31
0.0
 11
108.009100
 21
178.210371
 31
0.0
 11
108.213460
 21
178.459900
 31
0.0
 11
108.431187
 21
178.669194
 31
0.0
 11
108.660487
 21
178.837558
 31
0.0
 11
108.901360
 21
178.964990
 31
0.0
 11
109.160584
 21
179.056662
 31
0.0
 11
109.427098
 21
179.107826
 31
0.0
 11
109.700900
 21
179.118480
 31
0.0
 11
109.980601
 21
179.088844
 31
0.0
 11
110.268558
 21
179.017538
 31
0.0
 11
110.564770
 21
178.904560
 31
0.0
 11
110.841733
 21
178.761759
 31
0.0
 11
111.086877
 21
178.594382
 31
0.0
 11
111.300200
 21
178.402430
 31
0.0
 11
111.477427
 21
178.189676
 31
0.0
 11
111.618000
 21
177.958226
 31
0.0
 11
111.721920
 21
177.708080
 31
0.0
 11
111.788527
 21
177.440276
 31
0.0
 11
111.817160
 21
177.155849
 31
0.0
 11
111.807820
 21
176.854800
 31
0.0
 11
111.757028
 21
176.540177
 31
0.0
 11
111.665051
 21
176.213360
 31
0.0
 11
111.531890
 21
175.874350
 31
0.0
 11
111.370938
 21
175.553302
 31
0.0
 11
111.190668
 21
175.269186
 31
0.0
 11
110.991080
 21
175.022000
 31
0.0
 11
110.773140
 21
174.810567
 31
0.0
 11
110.539480
 21
174.637440
 31
0.0
 11
110.290100
 21
174.502620
 31
0.0
 11
110.037789
 21
174.413081
 31
0.0
 11
109.772109
 21
174.363784
 31
0.0
 11
109.493060
 21
174.354730
 31
0.0
 11
109.205513
 21
174.385960
 31
0.0
 11
108.918073
 21
174.455917
 31
0.0
 11
108.630740
 21
174.564600
 31
0.0
 11
108.349870
 21
174.709512
 31
0.0
 11
108.104207
 21
174.878236
 31
0.0
 11
107.893750
 21
175.070770
 31
0.0
 11
107.716558
 21
175.282764
 31
0.0
 11
107.576088
 21
175.511934
 31
0.0
 11
107.472340
 21
175.758280
 31
0.0
  0
LWPOLYLINE
  5
123
100
AcDbEntity
  8
Layer_1
 62
7
100
AcDbPolyline
 90
1
 70
1
 10
107.472340
 20
175.758280
 30
0.0
  0
LWPOLYLINE
  5
124
100
AcDbEntity
  8
Layer_1
 62
7
100
AcDbPolyline
 90
2
 70
0
 10
108.238440
 20
177.341580
 30
0.0
 10
108.238440
 20
177.341990
 30
0.0
  0
SPLINE
  5
125
100
AcDbEntity
  8
Layer_1
 62
7
100
AcDbSpline
 70
0
 71
3
 72
31
 73
27
 74
25
 40
0.000000
 40
0.000000
 40
0.000000
 40
0.000000
 40
0.548780
 40
1.024145
 40
1.451747
 40
1.853010
 40
2.249797
 40
2.680343
 40
3.114272
 40
3.512930
 40
3.914708
 40
4.341428
 40
4.816506
 40
5.365258
 40
5.918840
 40
6.396734
 40
6.825524
 40
7.225169
 40
7.619787
 40
8.045822
 40
8.471500
 40
8.865179
 40
9.263621
 40
9.692410
 40
10.170305
 40
10.723887
 40
10.723887
 40
10.723887
 40
10.723887
 10
108.238440
 20
177.341990
 30
0.0
 10
108.170343
 20
177.171729
 30
0.0
 10
108.043258
 20
176.853984
 30
0.0
 10
107.972036
 20
176.369719
 30
0.0
 10
108.022595
 20
175.932574
 30
0.0
 10
108.187920
 20
175.551513
 30
0.0
 10
108.468663
 20
175.243420
 30
0.0
 10
108.835788
 20
175.029506
 30
0.0
 10
109.240843
 20
174.899220
 30
0.0
 10
109.659535
 20
174.895333
 30
0.0
 10
110.054288
 20
175.026537
 30
0.0
 10
110.412441
 20
175.282727
 30
0.0
 10
110.720736
 20
175.660979
 30
0.0
 10
110.967472
 20
176.127664
 30
0.0
 10
111.149534
 20
176.624249
 30
0.0
 10
111.223167
 20
177.110140
 30
0.0
 10
111.169061
 20
177.548467
 30
0.0
 10
110.997805
 20
177.925699
 30
0.0
 10
110.717851
 20
178.230064
 30
0.0
 10
110.355124
 20
178.441509
 30
0.0
 10
109.955678
 20
178.569753
 30
0.0
 10
109.542873
 20
178.574062
 30
0.0
 10
109.149106
 20
178.447417
 30
0.0
 10
108.787861
 20
178.195033
 30
0.0
 10
108.472650
 20
177.816647
 30
0.0
 10
108.320238
 20
177.507497
 30
0.0
 10
108.238440
 20
177.341580
 30
0.0
 11
108.238440
 21
177.341990
 31
0.0
 11
108.056211
 21
176.824349
 31
0.0
 11
107.991671
 21
176.353386
 31
0.0
 11
108.044820
 21
175.929100
 31
0.0
 11
108.207412
 21
175.562254
 31
0.0
 11
108.472856
 21
175.267331
 31
0.0
 11
108.841150
 21
175.044330
 31
0.0
 11
109.256342
 21
174.918197
 31
0.0
 11
109.654999
 21
174.917197
 31
0.0
 11
110.037120
 21
175.041330
 31
0.0
 11
110.386593
 21
175.286193
 31
0.0
 11
110.692707
 21
175.649503
 31
0.0
 11
110.955460
 21
176.131260
 31
0.0
 11
111.139006
 21
176.653528
 31
0.0
 11
111.202509
 21
177.127184
 31
0.0
 11
111.145970
 21
177.552230
 31
0.0
 11
110.979126
 21
177.915382
 31
0.0
 11
110.713366
 21
178.207092
 31
0.0
 11
110.348690
 21
178.427360
 31
0.0
 11
109.941381
 21
178.551058
 31
0.0
 11
109.547708
 21
178.553058
 31
0.0
 11
109.167670
 21
178.433360
 31
0.0
 11
108.813809
 21
178.191198
 31
0.0
 11
108.504066
 21
177.827271
 31
0.0
 11
108.238440
 21
177.341580
 31
0.0
  0
LWPOLYLINE
  5
126
100
AcDbEntity
  8
Layer_1
 62
7
100
AcDbPolyline
 90
4
 70
1
 10
108.758380
 20
177.214260
 30
0.0
 10
110.512830
 20
176.432430
 30
0.0
 10
110.289630
 20
175.931560
 30
0.0
 10
108.535170
 20
176.713390
 30
0.0
  0
SPLINE
  5
127
100
AcDbEntity
  8
Layer_1
 62
7
100
AcDbSpline
 70
0
 71
3
 72
31
 73
27
 74
25
 40
0.000000
 40
0.000000
 40
0.000000
 40
0.000000
 40
0.234638
 40
0.460359
 40
0.678383
 40
0.895777
 40
1.119415
 40
1.350306
 40
1.512758
 40
1.677973
 40
1.846636
 40
2.015044
 40
2.180456
 40
2.344858
 40
2.503741
 40
2.659184
 40
2.814730
 40
2.973517
 40
3.140726
 40
3.323077
 40
3.511932
 40
3.692763
 40
3.874902
 40
4.068429
 40
4.282101
 40
4.524442
 40
4.524442
 40
4.524442
 40
4.524442
 10
105.625740
 20
181.441140
 30
0.0
 10
105.702634
 20
181.426673
 30
0.0
 10
105.853499
 20
181.398290
 30
0.0
 10
106.071500
 20
181.337115
 30
0.0
 10
106.278956
 20
181.262187
 30
0.0
 10
106.479216
 20
181.171342
 30
0.0
 10
106.676470
 20
181.064955
 30
0.0
 10
106.851265
 20
180.956298
 30
0.0
 10
107.002939
 20
180.848099
 30
0.0
 10
107.130539
 20
180.742607
 30
0.0
 10
107.253433
 20
180.628751
 30
0.0
 10
107.366877
 20
180.505128
 30
0.0
 10
107.464647
 20
180.370423
 30
0.0
 10
107.545662
 20
180.228783
 30
0.0
 10
107.608666
 20
180.081541
 30
0.0
 10
107.646488
 20
179.929027
 30
0.0
 10
107.663748
 20
179.772592
 30
0.0
 10
107.645727
 20
179.611607
 30
0.0
 10
107.590044
 20
179.450356
 30
0.0
 10
107.501594
 20
179.293339
 30
0.0
 10
107.385256
 20
179.149076
 30
0.0
 10
107.238602
 20
179.035423
 30
0.0
 10
107.068739
 20
178.956444
 30
0.0
 10
106.873471
 20
178.921588
 30
0.0
 10
106.655363
 20
178.930656
 30
0.0
 10
106.507748
 20
178.968212
 30
0.0
 10
106.429300
 20
178.988170
 30
0.0
 11
105.625740
 21
181.441140
 31
0.0
 11
105.855661
 21
181.394329
 31
0.0
 11
106.073104
 21
181.333762
 31
0.0
 11
106.278070
 21
181.259440
 31
0.0
 11
106.476216
 21
181.170007
 31
0.0
 11
106.673212
 21
181.064147
 31
0.0
 11
106.869060
 21
180.941860
 31
0.0
 11
107.001024
 21
180.847118
 31
0.0
 11
107.128638
 21
180.742184
 31
0.0
 11
107.251900
 21
180.627060
 31
0.0
 11
107.365044
 21
180.502322
 31
0.0
 11
107.462318
 21
180.368536
 31
0.0
 11
107.543720
 21
180.225700
 31
0.0
 11
107.605013
 21
180.079117
 31
0.0
 11
107.643080
 21
179.928407
 31
0.0
 11
107.657920
 21
179.773570
 31
0.0
 11
107.640464
 21
179.615746
 31
0.0
 11
107.587324
 21
179.457206
 31
0.0
 11
107.498500
 21
179.297950
 31
0.0
 11
107.378257
 21
179.152321
 31
0.0
 11
107.235393
 21
179.041461
 31
0.0
 11
107.069910
 21
178.965370
 31
0.0
 11
106.879736
 21
178.929503
 31
0.0
 11
106.666199
 21
178.937103
 31
0.0
 11
106.429300
 21
178.988170
 31
0.0
  0
LWPOLYLINE
  5
128
100
AcDbEntity
  8
Layer_1
 62
7
100
AcDbPolyline
 90
2
 70
0
 10
106.429300
 20
178.988170
 30
0.0
 10
106.417400
 20
178.970370
 30
0.0
  0
SPLINE
  5
129
100
AcDbEntity
  8
Layer_1
 62
7
100
AcDbSpline
 70
0
 71
3
 72
31
 73
27
 74
25
 40
0.000000
 40
0.000000
 40
0.000000
 40
0.000000
 40
0.184463
 40
0.358733
 40
0.530832
 40
0.701353
 40
0.871854
 40
1.051838
 40
1.223796
 40
1.381389
 40
1.533176
 40
1.685880
 40
1.835322
 40
1.984303
 40
2.134057
 40
2.290347
 40
2.454549
 40
2.621528
 40
2.785726
 40
2.947843
 40
3.142628
 40
3.327253
 40
3.502573
 40
3.676689
 40
3.857981
 40
4.046688
 40
4.046688
 40
4.046688
 40
4.046688
 10
106.417400
 20
178.970370
 30
0.0
 10
106.455942
 20
178.922202
 30
0.0
 10
106.530897
 20
178.828526
 30
0.0
 10
106.604004
 20
178.665272
 30
0.0
 10
106.639869
 20
178.495544
 30
0.0
 10
106.637137
 20
178.322864
 30
0.0
 10
106.591486
 20
178.153491
 30
0.0
 10
106.507938
 20
177.999273
 30
0.0
 10
106.401353
 20
177.865893
 30
0.0
 10
106.275674
 20
177.763412
 30
0.0
 10
106.133285
 20
177.700742
 30
0.0
 10
105.985205
 20
177.667395
 30
0.0
 10
105.835253
 20
177.651683
 30
0.0
 10
105.685443
 20
177.657853
 30
0.0
 10
105.535728
 20
177.683885
 30
0.0
 10
105.384189
 20
177.724784
 30
0.0
 10
105.231765
 20
177.781655
 30
0.0
 10
105.081353
 20
177.850030
 30
0.0
 10
104.935996
 20
177.927163
 30
0.0
 10
104.788507
 20
178.019152
 30
0.0
 10
104.641537
 20
178.124124
 30
0.0
 10
104.497458
 20
178.240304
 30
0.0
 10
104.368499
 20
178.363223
 30
0.0
 10
104.245607
 20
178.490504
 30
0.0
 10
104.124317
 20
178.625438
 30
0.0
 10
104.045890
 20
178.720637
 30
0.0
 10
104.005890
 20
178.769190
 30
0.0
 11
106.417400
 21
178.970370
 31
0.0
 11
106.526271
 21
178.821462
 31
0.0
 11
106.598311
 21
178.662779
 31
0.0
 11
106.633520
 21
178.494320
 31
0.0
 11
106.630120
 21
178.323833
 31
0.0
 11
106.586320
 21
178.159053
 31
0.0
 11
106.502120
 21
177.999980
 31
0.0
 11
106.393689
 21
177.866517
 31
0.0
 11
106.270382
 21
177.768380
 31
0.0
 11
106.132200
 21
177.705570
 31
0.0
 11
105.983663
 21
177.670137
 31
0.0
 11
105.834960
 21
177.655303
 31
0.0
 11
105.686090
 21
177.661070
 31
0.0
 11
105.538374
 21
177.685692
 31
0.0
 11
105.387468
 21
177.726359
 31
0.0
 11
105.233370
 21
177.783070
 31
0.0
 11
105.081263
 21
177.851958
 31
0.0
 11
104.936343
 21
177.929154
 31
0.0
 11
104.798610
 21
178.014660
 31
0.0
 11
104.639947
 21
178.127652
 31
0.0
 11
104.496770
 21
178.244216
 31
0.0
 11
104.369080
 21
178.364350
 31
0.0
 11
104.248006
 21
178.489479
 31
0.0
 11
104.126942
 21
178.624426
 31
0.0
 11
104.005890
 21
178.769190
 31
0.0
  0
LWPOLYLINE
  5
12a
100
AcDbEntity
  8
Layer_1
 62
7
100
AcDbPolyline
 90
3
 70
0
 10
104.005890
 20
178.769190
 30
0.0
 10
104.358230
 20
179.296420
 30
0.0
 10
104.391330
 20
179.274320
 30
0.0
  0
SPLINE
  5
12b
100
AcDbEntity
  8
Layer_1
 62
7
100
AcDbSpline
 70
0
 71
3
 72
37
 73
33
 74
31
 40
0.000000
 40
0.000000
 40
0.000000
 40
0.000000
 40
0.174651
 40
0.360533
 40
0.560635
 40
0.765386
 40
0.968575
 40
1.172005
 40
1.261887
 40
1.347881
 40
1.430209
 40
1.512328
 40
1.598890
 40
1.690869
 40
1.768700
 40
1.848597
 40
1.932979
 40
2.015873
 40
2.098542
 40
2.185077
 40
2.300863
 40
2.402000
 40
2.493942
 40
2.583717
 40
2.676054
 40
2.774540
 40
2.871964
 40
2.972351
 40
3.076479
 40
3.183046
 40
3.290274
 40
3.398167
 40
3.398167
 40
3.398167
 40
3.398167
 10
104.391330
 20
179.274320
 30
0.0
 10
104.412360
 20
179.219933
 30
0.0
 10
104.455773
 20
179.107661
 30
0.0
 10
104.553192
 20
178.947164
 30
0.0
 10
104.673176
 20
178.790783
 30
0.0
 10
104.811051
 20
178.641787
 30
0.0
 10
104.963056
 20
178.505621
 30
0.0
 10
105.096415
 20
178.407150
 30
0.0
 10
105.203045
 20
178.339154
 30
0.0
 10
105.277804
 20
178.296406
 30
0.0
 10
105.352475
 20
178.259052
 30
0.0
 10
105.429156
 20
178.225261
 30
0.0
 10
105.512836
 20
178.200927
 30
0.0
 10
105.596825
 20
178.185195
 30
0.0
 10
105.679831
 20
178.175350
 30
0.0
 10
105.760656
 20
178.183522
 30
0.0
 10
105.840819
 20
178.203771
 30
0.0
 10
105.917000
 20
178.239088
 30
0.0
 10
105.983545
 20
178.291766
 30
0.0
 10
106.042991
 20
178.366558
 30
0.0
 10
106.092517
 20
178.455287
 30
0.0
 10
106.125422
 20
178.553864
 30
0.0
 10
106.129593
 20
178.649314
 30
0.0
 10
106.109983
 20
178.739287
 30
0.0
 10
106.072449
 20
178.825607
 30
0.0
 10
106.017237
 20
178.904835
 30
0.0
 10
105.950947
 20
178.978214
 30
0.0
 10
105.877418
 20
179.047116
 30
0.0
 10
105.795714
 20
179.111186
 30
0.0
 10
105.707674
 20
179.170219
 30
0.0
 10
105.619348
 20
179.231011
 30
0.0
 10
105.559764
 20
179.270909
 30
0.0
 10
105.529880
 20
179.290920
 30
0.0
 11
104.391330
 21
179.274320
 31
0.0
 11
104.458934
 21
179.113284
 31
0.0
 11
104.553348
 21
178.953164
 31
0.0
 11
104.674570
 21
178.793960
 31
0.0
 11
104.813653
 21
178.643698
 31
0.0
 11
104.965023
 21
178.508151
 31
0.0
 11
105.128680
 21
178.387320
 31
0.0
 11
105.204524
 21
178.339087
 31
0.0
 11
105.279244
 21
178.296520
 31
0.0
 11
105.352840
 21
178.259620
 31
0.0
 11
105.428420
 21
178.227509
 31
0.0
 11
105.511373
 21
178.202776
 31
0.0
 11
105.601700
 21
178.185420
 31
0.0
 11
105.679199
 21
178.178242
 31
0.0
 11
105.758789
 21
178.185242
 31
0.0
 11
105.840470
 21
178.206420
 31
0.0
 11
105.915374
 21
178.241928
 31
0.0
 11
105.980288
 21
178.293118
 31
0.0
 11
106.035210
 21
178.359990
 31
0.0
 11
106.091406
 21
178.461224
 31
0.0
 11
106.121539
 21
178.557768
 31
0.0
 11
106.125610
 21
178.649620
 31
0.0
 11
106.107413
 21
178.737531
 31
0.0
 11
106.070690
 21
178.822251
 31
0.0
 11
106.015440
 21
178.903780
 31
0.0
 11
105.950660
 21
178.976547
 31
0.0
 11
105.877387
 21
179.045167
 31
0.0
 11
105.795620
 21
179.109640
 31
0.0
 11
105.707982
 21
179.170271
 31
0.0
 11
105.619402
 21
179.230698
 31
0.0
 11
105.529880
 21
179.290920
 31
0.0
  0
LWPOLYLINE
  5
12c
100
AcDbEntity
  8
Layer_1
 62
7
100
AcDbPolyline
 90
4
 70
0
 10
105.529880
 20
179.290920
 30
0.0
 10
105.247160
 20
179.479850
 30
0.0
 10
105.529720
 20
179.902660
 30
0.0
 10
105.932150
 20
179.633720
 30
0.0
  0
SPLINE
  5
12d
100
AcDbEntity
  8
Layer_1
 62
7
100
AcDbSpline
 70
0
 71
3
 72
37
 73
33
 74
31
 40
0.000000
 40
0.000000
 40
0.000000
 40
0.000000
 40
0.122545
 40
0.237025
 40
0.343562
 40
0.443744
 40
0.540105
 40
0.633647
 40
0.722270
 40
0.809349
 40
0.898344
 40
0.990903
 40
1.091952
 40
1.205254
 40
1.308427
 40
1.404088
 40
1.496395
 40
1.587515
 40
1.678007
 40
1.770345
 40
1.857954
 40
1.951597
 40
2.052067
 40
2.159283
 40
2.269021
 40
2.381742
 40
2.595170
 40
2.820792
 40
3.060881
 40
3.297288
 40
3.512878
 40
3.711806
 40
3.711806
 40
3.711806
 40
3.711806
 10
105.932150
 20
179.633720
 30
0.0
 10
105.966285
 20
179.611280
 30
0.0
 10
106.032307
 20
179.567876
 30
0.0
 10
106.130280
 20
179.508499
 30
0.0
 10
106.223783
 20
179.456372
 30
0.0
 10
106.313596
 20
179.409832
 30
0.0
 10
106.404250
 20
179.375680
 30
0.0
 10
106.493837
 20
179.350615
 30
0.0
 10
106.583637
 20
179.340609
 30
0.0
 10
106.671951
 20
179.349607
 30
0.0
 10
106.758571
 20
179.374897
 30
0.0
 10
106.840546
 20
179.423193
 30
0.0
 10
106.915949
 20
179.493203
 30
0.0
 10
106.980807
 20
179.577334
 30
0.0
 10
107.032322
 20
179.668259
 30
0.0
 10
107.062664
 20
179.761310
 30
0.0
 10
107.070493
 20
179.854751
 30
0.0
 10
107.060626
 20
179.945941
 30
0.0
 10
107.036525
 20
180.034455
 30
0.0
 10
106.998084
 20
180.116422
 30
0.0
 10
106.949023
 20
180.193482
 30
0.0
 10
106.891168
 20
180.267612
 30
0.0
 10
106.822765
 20
180.341315
 30
0.0
 10
106.744986
 20
180.413177
 30
0.0
 10
106.659610
 20
180.482480
 30
0.0
 10
106.541202
 20
180.566829
 30
0.0
 10
106.382122
 20
180.659993
 30
0.0
 10
106.175243
 20
180.752752
 30
0.0
 10
105.953585
 20
180.828975
 30
0.0
 10
105.729184
 20
180.883427
 30
0.0
 10
105.512591
 20
180.910046
 30
0.0
 10
105.374534
 20
180.899514
 30
0.0
 10
105.308280
 20
180.894460
 30
0.0
 11
105.932150
 21
179.633720
 31
0.0
 11
106.034973
 21
179.567051
 31
0.0
 11
106.132897
 21
179.507751
 31
0.0
 11
106.225920
 21
179.455820
 31
0.0
 11
106.315554
 21
179.411074
 31
0.0
 11
106.405578
 21
179.376704
 31
0.0
 11
106.495990
 21
179.352710
 31
0.0
 11
106.584157
 21
179.343732
 31
0.0
 11
106.670830
 21
179.352132
 31
0.0
 11
106.756010
 21
179.377910
 31
0.0
 11
106.836119
 21
179.424273
 31
0.0
 11
106.910966
 21
179.492163
 31
0.0
 11
106.980550
 21
179.581580
 31
0.0
 11
107.030306
 21
179.671962
 31
0.0
 11
107.059306
 21
179.763122
 31
0.0
 11
107.067550
 21
179.855060
 31
0.0
 11
107.058228
 21
179.945702
 31
0.0
 11
107.034261
 21
180.032962
 31
0.0
 11
106.995650
 21
180.116840
 31
0.0
 11
106.949002
 21
180.190998
 31
0.0
 11
106.891592
 21
180.264978
 31
0.0
 11
106.823420
 21
180.338780
 31
0.0
 11
106.744866
 21
180.411749
 31
0.0
 11
106.659696
 21
180.480949
 31
0.0
 11
106.567910
 21
180.546380
 31
0.0
 11
106.383946
 21
180.654587
 31
0.0
 11
106.178439
 21
180.747713
 31
0.0
 11
105.951390
 21
180.825760
 31
0.0
 11
105.721382
 21
180.880393
 31
0.0
 11
105.507012
 21
180.903293
 31
0.0
 11
105.308280
 21
180.894460
 31
0.0
  0
LWPOLYLINE
  5
12e
100
AcDbEntity
  8
Layer_1
 62
7
100
AcDbPolyline
 90
3
 70
0
 10
105.308280
 20
180.894460
 30
0.0
 10
105.275180
 20
180.916560
 30
0.0
 10
105.625740
 20
181.441140
 30
0.0
  0
SPLINE
  5
12f
100
AcDbEntity
  8
Layer_1
 62
7
100
AcDbSpline
 70
0
 71
3
 72
25
 73
21
 74
19
 40
0.000000
 40
0.000000
 40
0.000000
 40
0.000000
 40
0.196567
 40
0.395165
 40
0.597101
 40
0.794281
 40
0.984546
 40
1.170709
 40
1.364249
 40
1.551374
 40
1.736441
 40
1.923941
 40
2.126082
 40
2.348854
 40
2.540532
 40
2.728071
 40
2.917900
 40
3.103035
 40
3.272721
 40
3.432008
 40
3.432008
 40
3.432008
 40
3.432008
 10
101.058380
 20
183.794020
 30
0.0
 10
101.104796
 20
183.840320
 30
0.0
 10
101.198106
 20
183.933397
 30
0.0
 10
101.353247
 20
184.058635
 30
0.0
 10
101.517128
 20
184.172137
 30
0.0
 10
101.687364
 20
184.270963
 30
0.0
 10
101.863964
 20
184.345581
 30
0.0
 10
102.047140
 20
184.397850
 30
0.0
 10
102.235023
 20
184.423850
 30
0.0
 10
102.424227
 20
184.421573
 30
0.0
 10
102.609255
 20
184.391575
 30
0.0
 10
102.790304
 20
184.325042
 30
0.0
 10
102.965256
 20
184.217911
 30
0.0
 10
103.123647
 20
184.085932
 30
0.0
 10
103.258357
 20
183.935931
 30
0.0
 10
103.356023
 20
183.771915
 30
0.0
 10
103.420808
 20
183.594799
 30
0.0
 10
103.453677
 20
183.415816
 30
0.0
 10
103.461897
 20
183.243250
 30
0.0
 10
103.440325
 20
183.135367
 30
0.0
 10
103.429880
 20
183.083130
 30
0.0
 11
101.058380
 21
183.794020
 31
0.0
 11
101.199943
 21
183.930397
 31
0.0
 11
101.353793
 21
184.055980
 31
0.0
 11
101.519930
 21
184.170770
 31
0.0
 11
101.691272
 21
184.268350
 31
0.0
 11
101.866526
 21
184.342423
 31
0.0
 11
102.045690
 21
184.392990
 31
0.0
 11
102.237442
 21
184.419234
 31
0.0
 11
102.424552
 21
184.416901
 31
0.0
 11
102.607020
 21
184.385990
 31
0.0
 11
102.783043
 21
184.321399
 31
0.0
 11
102.956593
 21
184.217759
 31
0.0
 11
103.127670
 21
184.075070
 31
0.0
 11
103.254231
 21
183.931116
 31
0.0
 11
103.350368
 21
183.770092
 31
0.0
 11
103.416080
 21
183.592000
 31
0.0
 11
103.450324
 21
183.410059
 31
0.0
 11
103.454924
 21
183.240436
 31
0.0
 11
103.429880
 21
183.083130
 31
0.0
  0
LWPOLYLINE
  5
130
100
AcDbEntity
  8
Layer_1
 62
7
100
AcDbPolyline
 90
2
 70
0
 10
103.429880
 20
183.083130
 30
0.0
 10
103.443180
 20
183.070430
 30
0.0
  0
SPLINE
  5
131
100
AcDbEntity
  8
Layer_1
 62
7
100
AcDbSpline
 70
0
 71
3
 72
31
 73
27
 74
25
 40
0.000000
 40
0.000000
 40
0.000000
 40
0.000000
 40
0.160983
 40
0.327081
 40
0.502384
 40
0.683393
 40
0.869949
 40
1.069440
 40
1.290221
 40
1.494812
 40
1.689290
 40
1.877162
 40
2.061400
 40
2.246351
 40
2.433854
 40
2.624526
 40
2.820907
 40
3.021169
 40
3.219644
 40
3.417562
 40
3.754419
 40
4.074272
 40
4.382654
 40
4.710390
 40
5.084242
 40
5.508341
 40
5.508341
 40
5.508341
 40
5.508341
 10
103.443180
 20
183.070430
 30
0.0
 10
103.495456
 20
183.083123
 30
0.0
 10
103.601669
 20
183.108913
 30
0.0
 10
103.770136
 20
183.113149
 30
0.0
 10
103.943778
 20
183.095308
 30
0.0
 10
104.119114
 20
183.045469
 30
0.0
 10
104.286518
 20
182.954603
 30
0.0
 10
104.443237
 20
182.825360
 30
0.0
 10
104.584098
 20
182.670932
 30
0.0
 10
104.698500
 20
182.497695
 30
0.0
 10
104.774630
 20
182.316022
 30
0.0
 10
104.812513
 20
182.130127
 30
0.0
 10
104.824133
 20
181.944139
 30
0.0
 10
104.805314
 20
181.758774
 30
0.0
 10
104.761565
 20
181.575780
 30
0.0
 10
104.695735
 20
181.395507
 30
0.0
 10
104.608203
 20
181.219897
 30
0.0
 10
104.500525
 20
181.052987
 30
0.0
 10
104.381467
 20
180.893450
 30
0.0
 10
104.219151
 20
180.710405
 30
0.0
 10
104.010627
 20
180.515268
 30
0.0
 10
103.749752
 20
180.325528
 30
0.0
 10
103.467565
 20
180.174965
 30
0.0
 10
103.149049
 20
180.062895
 30
0.0
 10
102.782353
 20
179.979546
 30
0.0
 10
102.518007
 20
179.948775
 30
0.0
 10
102.377510
 20
179.932420
 30
0.0
 11
103.443180
 21
183.070430
 31
0.0
 11
103.600848
 21
183.102930
 31
0.0
 11
103.766811
 21
183.109630
 31
0.0
 11
103.941070
 21
183.090530
 31
0.0
 11
104.114848
 21
183.039878
 31
0.0
 11
104.279368
 21
182.951921
 31
0.0
 11
104.434630
 21
182.826660
 31
0.0
 11
104.583066
 21
182.663224
 31
0.0
 11
104.694612
 21
182.491718
 31
0.0
 11
104.769270
 21
182.312140
 31
0.0
 11
104.808392
 21
182.128387
 31
0.0
 11
104.819092
 21
181.944460
 31
0.0
 11
104.801370
 21
181.760360
 31
0.0
 11
104.758382
 21
181.577851
 31
0.0
 11
104.693152
 21
181.398684
 31
0.0
 11
104.605680
 21
181.222860
 31
0.0
 11
104.498330
 21
181.053801
 31
0.0
 11
104.379187
 21
180.895064
 31
0.0
 11
104.248250
 21
180.746650
 31
0.0
 11
104.001931
 21
180.516868
 31
0.0
 11
103.742601
 21
180.329641
 31
0.0
 11
103.470260
 21
180.184970
 31
0.0
 11
103.162003
 21
180.073664
 31
0.0
 11
102.797753
 21
179.989481
 31
0.0
 11
102.377510
 21
179.932420
 31
0.0
  0
LWPOLYLINE
  5
132
100
AcDbEntity
  8
Layer_1
 62
7
100
AcDbPolyline
 90
3
 70
0
 10
102.377510
 20
179.932420
 30
0.0
 10
101.872440
 20
180.414870
 30
0.0
 10
101.908440
 20
180.452470
 30
0.0
  0
SPLINE
  5
133
100
AcDbEntity
  8
Layer_1
 62
7
100
AcDbSpline
 70
0
 71
3
 72
37
 73
33
 74
31
 40
0.000000
 40
0.000000
 40
0.000000
 40
0.000000
 40
0.349062
 40
0.695151
 40
1.045116
 40
1.396258
 40
1.749712
 40
2.114575
 40
2.246331
 40
2.372196
 40
2.492441
 40
2.611597
 40
2.739158
 40
2.876415
 40
2.998346
 40
3.117641
 40
3.237084
 40
3.357933
 40
3.483914
 40
3.621283
 40
3.720074
 40
3.808742
 40
3.888336
 40
3.961911
 40
4.026780
 40
4.083835
 40
4.140705
 40
4.195657
 40
4.249347
 40
4.300055
 40
4.343495
 40
4.379877
 40
4.379877
 40
4.379877
 40
4.379877
 10
101.908440
 20
180.452470
 30
0.0
 10
102.024854
 20
180.446752
 30
0.0
 10
102.256692
 20
180.435364
 30
0.0
 10
102.603781
 20
180.480686
 30
0.0
 10
102.942416
 20
180.569242
 30
0.0
 10
103.265709
 20
180.711470
 30
0.0
 10
103.565345
 20
180.907477
 30
0.0
 10
103.775472
 20
181.099280
 30
0.0
 10
103.915634
 20
181.252327
 30
0.0
 10
103.996484
 20
181.348946
 30
0.0
 10
104.071039
 20
181.445301
 30
0.0
 10
104.136637
 20
181.548858
 30
0.0
 10
104.191975
 20
181.664528
 30
0.0
 10
104.237872
 20
181.785113
 30
0.0
 10
104.270599
 20
181.907435
 30
0.0
 10
104.281698
 20
182.027542
 30
0.0
 10
104.277288
 20
182.147988
 30
0.0
 10
104.243459
 20
182.266682
 30
0.0
 10
104.179349
 20
182.378845
 30
0.0
 10
104.098079
 20
182.469014
 30
0.0
 10
104.016640
 20
182.540504
 30
0.0
 10
103.944660
 20
182.593142
 30
0.0
 10
103.873998
 20
182.632537
 30
0.0
 10
103.805970
 20
182.658475
 30
0.0
 10
103.743290
 20
182.676902
 30
0.0
 10
103.684006
 20
182.684634
 30
0.0
 10
103.627688
 20
182.686370
 30
0.0
 10
103.572482
 20
182.682600
 30
0.0
 10
103.520416
 20
182.671684
 30
0.0
 10
103.472424
 20
182.660595
 30
0.0
 10
103.430532
 20
182.648548
 30
0.0
 10
103.405912
 20
182.638417
 30
0.0
 10
103.394690
 20
182.633800
 30
0.0
 11
101.908440
 21
180.452470
 31
0.0
 11
102.257438
 21
180.445788
 31
0.0
 11
102.600991
 21
180.487608
 31
0.0
 11
102.939100
 21
180.577930
 31
0.0
 11
103.260381
 21
180.719629
 31
0.0
 11
103.556411
 21
180.912752
 31
0.0
 11
103.827190
 21
181.157300
 31
0.0
 11
103.916206
 21
181.254438
 31
0.0
 11
103.997052
 21
181.350904
 31
0.0
 11
104.069730
 21
181.446700
 31
0.0
 11
104.133141
 21
181.547582
 31
0.0
 11
104.189014
 21
181.662256
 31
0.0
 11
104.237350
 21
181.790720
 31
0.0
 11
104.267394
 21
181.908892
 31
0.0
 11
104.279128
 21
182.027609
 31
0.0
 11
104.272550
 21
182.146870
 31
0.0
 11
104.239524
 21
182.263119
 31
0.0
 11
104.177781
 21
182.372932
 31
0.0
 11
104.087320
 21
182.476310
 31
0.0
 11
104.013122
 21
182.541536
 31
0.0
 11
103.941156
 21
182.593332
 31
0.0
 11
103.871420
 21
182.631700
 31
0.0
 11
103.802917
 21
182.658544
 31
0.0
 11
103.740407
 21
182.675878
 31
0.0
 11
103.683890
 21
182.683700
 31
0.0
 11
103.627047
 21
182.685433
 31
0.0
 11
103.572250
 21
182.681300
 31
0.0
 11
103.519500
 21
182.671300
 31
0.0
 11
103.470166
 21
182.659578
 31
0.0
 11
103.428562
 21
182.647078
 31
0.0
 11
103.394690
 21
182.633800
 31
0.0
  0
LWPOLYLINE
  5
134
100
AcDbEntity
  8
Layer_1
 62
7
100
AcDbPolyline
 90
4
 70
0
 10
103.394690
 20
182.633800
 30
0.0
 10
102.158960
 20
181.340110
 30
0.0
 10
101.746930
 20
181.733680
 30
0.0
 10
102.982660
 20
183.027370
 30
0.0
  0
SPLINE
  5
135
100
AcDbEntity
  8
Layer_1
 62
7
100
AcDbSpline
 70
0
 71
3
 72
37
 73
33
 74
31
 40
0.000000
 40
0.000000
 40
0.000000
 40
0.000000
 40
0.041587
 40
0.087826
 40
0.138748
 40
0.191944
 40
0.245453
 40
0.299903
 40
0.361882
 40
0.423184
 40
0.484407
 40
0.555991
 40
0.645536
 40
0.754179
 40
0.889836
 40
1.014541
 40
1.134231
 40
1.254483
 40
1.375842
 40
1.501437
 40
1.624813
 40
1.748841
 40
1.874380
 40
2.001703
 40
2.130855
 40
2.262296
 40
2.625455
 40
2.977915
 40
3.328745
 40
3.677591
 40
4.024470
 40
4.376691
 40
4.376691
 40
4.376691
 40
4.376691
 10
102.982660
 20
183.027370
 30
0.0
 10
102.986287
 20
183.040751
 30
0.0
 10
102.993948
 20
183.069009
 30
0.0
 10
103.004218
 20
183.114112
 30
0.0
 10
103.014967
 20
183.163065
 30
0.0
 10
103.022790
 20
183.215117
 30
0.0
 10
103.024285
 20
183.268935
 30
0.0
 10
103.020063
 20
183.325525
 30
0.0
 10
103.008738
 20
183.383820
 30
0.0
 10
102.991314
 20
183.442837
 30
0.0
 10
102.967908
 20
183.503385
 30
0.0
 10
102.928514
 20
183.566653
 30
0.0
 10
102.870656
 20
183.635674
 30
0.0
 10
102.793070
 20
183.715523
 30
0.0
 10
102.697854
 20
183.794376
 30
0.0
 10
102.584383
 20
183.853212
 30
0.0
 10
102.465184
 20
183.882419
 30
0.0
 10
102.344066
 20
183.884104
 30
0.0
 10
102.222350
 20
183.867644
 30
0.0
 10
102.103765
 20
183.831398
 30
0.0
 10
101.990834
 20
183.778932
 30
0.0
 10
101.881896
 20
183.718815
 30
0.0
 10
101.777594
 20
183.648512
 30
0.0
 10
101.677159
 20
183.570114
 30
0.0
 10
101.579978
 20
183.484690
 30
0.0
 10
101.432277
 20
183.338251
 30
0.0
 10
101.251658
 20
183.119702
 30
0.0
 10
101.069895
 20
182.812355
 30
0.0
 10
100.944135
 20
182.483315
 30
0.0
 10
100.867303
 20
182.142130
 30
0.0
 10
100.837756
 20
181.792199
 30
0.0
 10
100.860401
 20
181.559871
 30
0.0
 10
100.871810
 20
181.442820
 30
0.0
 11
102.982660
 21
183.027370
 31
0.0
 11
102.993282
 21
183.067578
 31
0.0
 11
103.003816
 21
183.112601
 31
0.0
 11
103.014260
 21
183.162440
 31
0.0
 11
103.021704
 21
183.215112
 31
0.0
 11
103.023371
 21
183.268596
 31
0.0
 11
103.019260
 21
183.322890
 31
0.0
 11
103.007738
 21
183.383789
 31
0.0
 11
102.990504
 21
183.442619
 31
0.0
 11
102.967560
 21
183.499380
 31
0.0
 11
102.930510
 21
183.560630
 31
0.0
 11
102.874027
 21
183.630113
 31
0.0
 11
102.798110
 21
183.707830
 31
0.0
 11
102.692163
 21
183.792554
 31
0.0
 11
102.581083
 21
183.849234
 31
0.0
 11
102.464870
 21
183.877870
 31
0.0
 11
102.344662
 21
183.881137
 31
0.0
 11
102.224426
 21
183.864670
 31
0.0
 11
102.104160
 21
183.828470
 31
0.0
 11
101.991688
 21
183.777760
 31
0.0
 11
101.883284
 21
183.717497
 31
0.0
 11
101.778950
 21
183.647680
 31
0.0
 11
101.678423
 21
183.569542
 31
0.0
 11
101.581430
 21
183.484262
 31
0.0
 11
101.487970
 21
183.391840
 31
0.0
 11
101.257263
 21
183.111378
 31
0.0
 11
101.078610
 21
182.807551
 31
0.0
 11
100.952010
 21
182.480360
 31
0.0
 11
100.875068
 21
182.140104
 31
0.0
 11
100.848334
 21
181.794258
 31
0.0
 11
100.871810
 21
181.442820
 31
0.0
  0
LWPOLYLINE
  5
136
100
AcDbEntity
  8
Layer_1
 62
7
100
AcDbPolyline
 90
3
 70
0
 10
100.871810
 20
181.442820
 30
0.0
 10
100.835810
 20
181.405120
 30
0.0
 10
100.330740
 20
181.887560
 30
0.0
  0
LWPOLYLINE
  5
137
100
AcDbEntity
  8
Layer_1
 62
7
100
AcDbPolyline
 90
2
 70
0
 10
101.058420
 20
183.793640
 30
0.0
 10
101.058380
 20
183.794020
 30
0.0
  0
LWPOLYLINE
  5
138
100
AcDbEntity
  8
Layer_1
 62
7
100
AcDbPolyline
 90
8
 70
1
 10
94.889062
 20
209.632079
 30
0.0
 10
94.543449
 20
208.443691
 30
0.0
 10
97.343809
 20
207.629276
 30
0.0
 10
97.182980
 20
207.076263
 30
0.0
 10
94.382619
 20
207.890678
 30
0.0
 10
94.037006
 20
206.702290
 30
0.0
 10
93.551649
 20
206.843444
 30
0.0
 10
94.403705
 20
209.773233
 30
0.0
  0
SPLINE
  5
139
100
AcDbEntity
  8
Layer_1
 62
7
100
AcDbSpline
 70
0
 71
3
 72
13
 73
9
 74
7
 40
0.000000
 40
0.000000
 40
0.000000
 40
0.000000
 40
0.424103
 40
0.797954
 40
1.125685
 40
1.434070
 40
1.753925
 40
2.090782
 40
2.090782
 40
2.090782
 40
2.090782
 10
100.330740
 20
181.887560
 30
0.0
 10
100.340642
 20
182.028662
 30
0.0
 10
100.359273
 20
182.294146
 30
0.0
 10
100.425772
 20
182.664240
 30
0.0
 10
100.523015
 20
182.987664
 30
0.0
 10
100.660875
 20
183.276081
 30
0.0
 10
100.836965
 20
183.546831
 30
0.0
 10
100.983338
 20
183.709962
 30
0.0
 10
101.058420
 20
183.793640
 30
0.0
 11
100.330740
 21
181.887560
 31
0.0
 11
100.368499
 21
182.309979
 31
0.0
 11
100.435909
 21
182.677702
 31
0.0
 11
100.532970
 21
182.990730
 31
0.0
 11
100.665011
 21
183.269418
 31
0.0
 11
100.840161
 21
183.537054
 31
0.0
 11
101.058420
 21
183.793640
 31
0.0
  0
LWPOLYLINE
  5
13a
100
AcDbEntity
  8
Layer_1
 62
7
100
AcDbPolyline
 90
3
 70
0
 10
99.064230
 20
211.902423
 30
0.0
 10
98.824502
 20
211.378763
 30
0.0
 10
98.498607
 20
211.527955
 30
0.0
  0
LWPOLYLINE
  5
13b
100
AcDbEntity
  8
Layer_1
 62
7
100
AcDbPolyline
 90
4
 70
0
 10
95.858025
 20
212.736797
 30
0.0
 10
95.713183
 20
212.803107
 30
0.0
 10
95.952911
 20
213.326767
 30
0.0
 10
99.064230
 20
211.902423
 30
0.0
  0
SPLINE
  5
13c
100
AcDbEntity
  8
Layer_1
 62
7
100
AcDbSpline
 70
0
 71
3
 72
37
 73
33
 74
31
 40
0.000000
 40
0.000000
 40
0.000000
 40
0.000000
 40
0.213755
 40
0.419108
 40
0.618068
 40
0.814453
 40
1.013515
 40
1.219191
 40
1.603330
 40
1.964127
 40
2.339627
 40
2.746674
 40
3.198775
 40
3.717345
 40
3.997129
 40
4.258687
 40
4.505506
 40
4.740287
 40
4.963590
 40
5.178864
 40
5.383462
 40
5.583616
 40
5.783400
 40
5.983242
 40
6.179513
 40
6.376048
 40
6.549124
 40
6.709999
 40
6.860416
 40
7.010503
 40
7.169257
 40
7.337165
 40
7.337165
 40
7.337165
 40
7.337165
 10
98.498607
 20
211.527955
 30
0.0
 10
98.516870
 20
211.459027
 30
0.0
 10
98.552678
 20
211.323881
 30
0.0
 10
98.581405
 20
211.119416
 30
0.0
 10
98.590987
 20
210.919074
 30
0.0
 10
98.574877
 20
210.720905
 30
0.0
 10
98.528853
 20
210.525104
 30
0.0
 10
98.434553
 20
210.279201
 30
0.0
 10
98.266696
 20
210.004762
 30
0.0
 10
97.973585
 20
209.761982
 30
0.0
 10
97.610778
 20
209.626267
 30
0.0
 10
97.195391
 20
209.596732
 30
0.0
 10
96.739798
 20
209.678094
 30
0.0
 10
96.348202
 20
209.826218
 30
0.0
 10
96.033114
 20
209.986949
 30
0.0
 10
95.813271
 20
210.131935
 30
0.0
 10
95.624132
 20
210.293026
 30
0.0
 10
95.467019
 20
210.468547
 30
0.0
 10
95.336637
 20
210.651851
 30
0.0
 10
95.235706
 20
210.841811
 30
0.0
 10
95.165706
 20
211.036998
 30
0.0
 10
95.124476
 20
211.234931
 30
0.0
 10
95.112495
 20
211.435219
 30
0.0
 10
95.128979
 20
211.633778
 30
0.0
 10
95.171692
 20
211.827346
 30
0.0
 10
95.239323
 20
212.004079
 30
0.0
 10
95.320178
 20
212.161567
 30
0.0
 10
95.406484
 20
212.298387
 30
0.0
 10
95.503877
 20
212.417875
 30
0.0
 10
95.611933
 20
212.526468
 30
0.0
 10
95.729248
 20
212.633800
 30
0.0
 10
95.814305
 20
212.701829
 30
0.0
 10
95.858025
 20
212.736797
 30
0.0
 11
98.498607
 21
211.527955
 31
0.0
 11
98.549148
 21
211.320261
 31
0.0
 11
98.578518
 21
211.117019
 31
0.0
 11
98.586717
 21
210.918228
 31
0.0
 11
98.570126
 21
210.722545
 31
0.0
 11
98.525152
 21
210.528630
 31
0.0
 11
98.451795
 21
210.336481
 31
0.0
 11
98.245732
 21
210.012289
 31
0.0
 11
97.967581
 21
209.782491
 31
0.0
 11
97.617343
 21
209.647089
 31
0.0
 11
97.211658
 21
209.613812
 31
0.0
 11
96.765469
 21
209.686677
 31
0.0
 11
96.278774
 21
209.865683
 31
0.0
 11
96.030349
 21
209.994385
 31
0.0
 11
95.812447
 21
210.139061
 31
0.0
 11
95.625068
 21
210.299713
 31
0.0
 11
95.467981
 21
210.474199
 31
0.0
 11
95.339255
 21
210.656665
 31
0.0
 11
95.238890
 21
210.847112
 31
0.0
 11
95.169827
 21
211.039701
 31
0.0
 11
95.129282
 21
211.235706
 31
0.0
 11
95.117254
 21
211.435127
 31
0.0
 11
95.133555
 21
211.634303
 31
0.0
 11
95.176326
 21
211.825858
 31
0.0
 11
95.245565
 21
212.009792
 31
0.0
 11
95.324349
 21
212.163897
 31
0.0
 11
95.411083
 21
212.299388
 31
0.0
 11
95.505768
 21
212.416265
 31
0.0
 11
95.610681
 21
212.523593
 31
0.0
 11
95.728100
 21
212.630437
 31
0.0
 11
95.858025
 21
212.736797
 31
0.0
  0
LWPOLYLINE
  5
13d
100
AcDbEntity
  8
Layer_1
 62
7
100
AcDbPolyline
 90
2
 70
0
 10
98.058510
 20
211.729429
 30
0.0
 10
96.286981
 20
212.540424
 30
0.0
  0
LWPOLYLINE
  5
13e
100
AcDbEntity
  8
Layer_1
 62
7
100
AcDbPolyline
 90
1
 70
1
 10
98.058502
 20
211.729429
 30
0.0
  0
LWPOLYLINE
  5
13f
100
AcDbEntity
  8
Layer_1
 62
7
100
AcDbPolyline
 90
12
 70
1
 10
103.194370
 20
217.607611
 30
0.0
 10
102.691250
 20
217.002041
 30
0.0
 10
99.975960
 20
216.912111
 30
0.0
 10
100.058520
 20
216.254068
 30
0.0
 10
101.248460
 20
215.265450
 30
0.0
 10
100.860840
 20
214.798902
 30
0.0
 10
97.352305
 20
217.713857
 30
0.0
 10
97.739921
 20
218.180404
 30
0.0
 10
99.570768
 20
216.659303
 30
0.0
 10
99.155309
 20
219.884011
 30
0.0
 10
99.625147
 20
220.449523
 30
0.0
 10
99.972715
 20
217.512221
 30
0.0
  0
SPLINE
  5
140
100
AcDbEntity
  8
Layer_1
 62
7
100
AcDbSpline
 70
0
 71
3
 72
31
 73
27
 74
25
 40
0.000000
 40
0.000000
 40
0.000000
 40
0.000000
 40
0.162467
 40
0.310082
 40
0.443335
 40
0.572518
 40
0.707282
 40
0.848645
 40
1.149836
 40
1.425007
 40
1.701553
 40
1.998115
 40
2.329142
 40
2.711544
 40
3.086338
 40
3.403440
 40
3.674157
 40
3.916121
 40
4.162327
 40
4.442956
 40
4.607451
 40
4.776693
 40
4.953797
 40
5.136165
 40
5.318470
 40
5.502033
 40
5.502033
 40
5.502033
 40
5.502033
 10
96.286981
 20
212.540424
 30
0.0
 10
96.246719
 20
212.504193
 30
0.0
 10
96.169875
 20
212.435042
 30
0.0
 10
96.066207
 20
212.329557
 30
0.0
 10
95.976842
 20
212.226041
 30
0.0
 10
95.896852
 20
212.120335
 30
0.0
 10
95.826611
 20
212.004659
 30
0.0
 10
95.739374
 20
211.833131
 30
0.0
 10
95.661738
 20
211.603708
 30
0.0
 10
95.657189
 20
211.314226
 30
0.0
 10
95.748341
 20
211.041326
 30
0.0
 10
95.926620
 20
210.793511
 30
0.0
 10
96.188735
 20
210.577514
 30
0.0
 10
96.509684
 20
210.405545
 30
0.0
 10
96.843634
 20
210.273678
 30
0.0
 10
97.158041
 20
210.202437
 30
0.0
 10
97.437834
 20
210.198429
 30
0.0
 10
97.683989
 20
210.279199
 30
0.0
 10
97.881408
 20
210.451614
 30
0.0
 10
98.000257
 20
210.652399
 30
0.0
 10
98.072381
 20
210.844543
 30
0.0
 10
98.108486
 20
211.011567
 30
0.0
 10
98.123273
 20
211.187653
 30
0.0
 10
98.116921
 20
211.368369
 30
0.0
 10
98.097614
 20
211.550383
 30
0.0
 10
98.071569
 20
211.669610
 30
0.0
 10
98.058502
 20
211.729429
 30
0.0
 11
96.286981
 21
212.540424
 31
0.0
 11
96.167384
 21
212.430459
 31
0.0
 11
96.064082
 21
212.325014
 31
0.0
 11
95.977075
 21
212.224088
 31
0.0
 11
95.899751
 21
212.120601
 31
0.0
 11
95.829214
 21
212.005772
 31
0.0
 11
95.765464
 21
211.879600
 31
0.0
 11
95.675109
 21
211.592281
 31
0.0
 11
95.672676
 21
211.317121
 31
0.0
 11
95.758164
 21
211.054120
 31
0.0
 11
95.928561
 21
210.811398
 31
0.0
 11
96.180840
 21
210.597076
 31
0.0
 11
96.515003
 21
210.411156
 31
0.0
 11
96.864768
 21
210.276491
 31
0.0
 11
97.174999
 21
210.210838
 31
0.0
 11
97.445696
 21
210.214195
 31
0.0
 11
97.674509
 21
210.292880
 31
0.0
 11
97.862803
 21
210.451507
 31
0.0
 11
98.010577
 21
210.690077
 31
0.0
 11
98.068036
 21
210.844210
 31
0.0
 11
98.104398
 21
211.009500
 31
0.0
 11
98.119662
 21
211.185945
 31
0.0
 11
98.114778
 21
211.368248
 31
0.0
 11
98.094391
 21
211.549409
 31
0.0
 11
98.058502
 21
211.729429
 31
0.0
  0
LWPOLYLINE
  5
141
100
AcDbEntity
  8
Layer_1
 62
7
100
AcDbPolyline
 90
3
 70
0
 10
105.802680
 20
219.821036
 30
0.0
 10
105.364240
 20
219.447588
 30
0.0
 10
105.131830
 20
219.720444
 30
0.0
  0
LWPOLYLINE
  5
142
100
AcDbEntity
  8
Layer_1
 62
7
100
AcDbPolyline
 90
4
 70
0
 10
103.248700
 20
221.931278
 30
0.0
 10
103.145410
 20
222.052548
 30
0.0
 10
103.583840
 20
222.425996
 30
0.0
 10
105.802680
 20
219.821036
 30
0.0
  0
SPLINE
  5
143
100
AcDbEntity
  8
Layer_1
 62
7
100
AcDbSpline
 70
0
 71
3
 72
37
 73
33
 74
31
 40
0.000000
 40
0.000000
 40
0.000000
 40
0.000000
 40
0.213751
 40
0.419104
 40
0.618072
 40
0.814456
 40
1.013519
 40
1.219195
 40
1.603338
 40
1.964135
 40
2.339633
 40
2.746681
 40
3.198782
 40
3.717351
 40
3.997134
 40
4.258692
 40
4.505511
 40
4.740292
 40
4.963596
 40
5.178871
 40
5.383484
 40
5.583638
 40
5.783359
 40
5.983204
 40
6.179476
 40
6.376006
 40
6.549080
 40
6.709955
 40
6.860375
 40
7.010459
 40
7.169212
 40
7.337120
 40
7.337120
 40
7.337120
 40
7.337120
 10
105.131830
 20
219.720444
 30
0.0
 10
105.119287
 20
219.650251
 30
0.0
 10
105.094694
 20
219.512622
 30
0.0
 10
105.034398
 20
219.315146
 30
0.0
 10
104.958451
 20
219.129509
 30
0.0
 10
104.860181
 20
218.956668
 30
0.0
 10
104.735776
 20
218.798616
 30
0.0
 10
104.546450
 20
218.615540
 30
0.0
 10
104.278403
 20
218.437652
 30
0.0
 10
103.910187
 20
218.341354
 30
0.0
 10
103.524005
 20
218.371540
 30
0.0
 10
103.134999
 20
218.520175
 30
0.0
 10
102.756376
 20
218.786314
 30
0.0
 10
102.463959
 20
219.085946
 30
0.0
 10
102.246217
 20
219.364698
 30
0.0
 10
102.108161
 20
219.588958
 30
0.0
 10
102.004740
 20
219.814851
 30
0.0
 10
101.936431
 20
220.040301
 30
0.0
 10
101.895670
 20
220.261515
 30
0.0
 10
101.884313
 20
220.476340
 30
0.0
 10
101.903562
 20
220.682815
 30
0.0
 10
101.949762
 20
220.879609
 30
0.0
 10
102.023231
 20
221.066305
 30
0.0
 10
102.122092
 20
221.239278
 30
0.0
 10
102.242531
 20
221.396710
 30
0.0
 10
102.378459
 20
221.528361
 30
0.0
 10
102.518254
 20
221.636973
 30
0.0
 10
102.654263
 20
221.724552
 30
0.0
 10
102.793004
 20
221.791736
 30
0.0
 10
102.936810
 20
221.844542
 30
0.0
 10
103.088475
 20
221.892295
 30
0.0
 10
103.194303
 20
221.918043
 30
0.0
 10
103.248700
 20
221.931278
 30
0.0
 11
105.131830
 21
219.720444
 31
0.0
 11
105.089963
 21
219.510833
 31
0.0
 11
105.030763
 21
219.314198
 31
0.0
 11
104.954230
 21
219.130539
 31
0.0
 11
104.856563
 21
218.960163
 31
0.0
 11
104.733910
 21
218.803376
 31
0.0
 11
104.586270
 21
218.660180
 31
0.0
 11
104.262577
 21
218.453327
 31
0.0
 11
103.913403
 21
218.362480
 31
0.0
 11
103.538750
 21
218.387641
 31
0.0
 11
103.156957
 21
218.528788
 31
0.0
 11
102.783270
 21
218.783254
 31
0.0
 11
102.417690
 21
219.151038
 31
0.0
 11
102.246850
 21
219.372606
 31
0.0
 11
102.110423
 21
219.595766
 31
0.0
 11
102.008410
 21
219.820517
 31
0.0
 11
101.939696
 21
220.045017
 31
0.0
 11
101.900059
 21
220.264775
 31
0.0
 11
101.889500
 21
220.479791
 31
0.0
 11
101.908394
 21
220.683530
 31
0.0
 11
101.954411
 21
220.878323
 31
0.0
 11
102.027550
 21
221.064170
 31
0.0
 11
102.126446
 21
221.237829
 31
0.0
 11
102.246106
 21
221.393406
 31
0.0
 11
102.386530
 21
221.530902
 31
0.0
 11
102.523018
 21
221.637324
 31
0.0
 11
102.658854
 21
221.723516
 31
0.0
 11
102.794040
 21
221.789478
 31
0.0
 11
102.934460
 21
221.842465
 31
0.0
 11
103.086013
 21
221.889731
 31
0.0
 11
103.248700
 21
221.931278
 31
0.0
  0
LWPOLYLINE
  5
144
100
AcDbEntity
  8
Layer_1
 62
7
100
AcDbPolyline
 90
2
 70
0
 10
104.817980
 20
220.088916
 30
0.0
 10
103.554610
 20
221.572134
 30
0.0
  0
LWPOLYLINE
  5
145
100
AcDbEntity
  8
Layer_1
 62
7
100
AcDbPolyline
 90
1
 70
1
 10
104.817980
 20
220.088916
 30
0.0
  0
SPLINE
  5
146
100
AcDbEntity
  8
Layer_1
 62
7
100
AcDbSpline
 70
0
 71
3
 72
31
 73
27
 74
25
 40
0.000000
 40
0.000000
 40
0.000000
 40
0.000000
 40
0.162468
 40
0.310082
 40
0.443333
 40
0.572517
 40
0.707281
 40
0.848645
 40
1.149835
 40
1.425006
 40
1.701554
 40
1.998118
 40
2.329145
 40
2.711542
 40
3.086336
 40
3.403438
 40
3.674155
 40
3.916117
 40
4.162323
 40
4.442954
 40
4.607451
 40
4.776693
 40
4.953798
 40
5.136166
 40
5.318470
 40
5.502032
 40
5.502032
 40
5.502032
 40
5.502032
 10
103.554610
 20
221.572134
 30
0.0
 10
103.502814
 20
221.556293
 30
0.0
 10
103.403957
 20
221.526059
 30
0.0
 10
103.265442
 20
221.474217
 30
0.0
 10
103.140723
 20
221.418122
 30
0.0
 10
103.023577
 20
221.356083
 30
0.0
 10
102.911057
 20
221.280887
 30
0.0
 10
102.759548
 20
221.162241
 30
0.0
 10
102.592294
 20
220.987060
 30
0.0
 10
102.465932
 20
220.726573
 30
0.0
 10
102.433322
 20
220.440705
 30
0.0
 10
102.490291
 20
220.140786
 30
0.0
 10
102.636676
 20
219.834308
 30
0.0
 10
102.854978
 20
219.542889
 30
0.0
 10
103.102010
 20
219.282339
 30
0.0
 10
103.356926
 20
219.084995
 30
0.0
 10
103.608855
 20
218.963211
 30
0.0
 10
103.866093
 20
218.932480
 30
0.0
 10
104.117853
 20
219.005402
 30
0.0
 10
104.310375
 20
219.137220
 30
0.0
 10
104.456893
 20
219.280936
 30
0.0
 10
104.560151
 20
219.417092
 30
0.0
 10
104.647916
 20
219.570462
 30
0.0
 10
104.718461
 20
219.736962
 30
0.0
 10
104.777821
 20
219.910103
 30
0.0
 10
104.804563
 20
220.029175
 30
0.0
 10
104.817980
 20
220.088916
 30
0.0
 11
103.554610
 21
221.572134
 31
0.0
 11
103.399763
 21
221.522956
 31
0.0
 11
103.261597
 21
221.470996
 31
0.0
 11
103.140110
 21
221.416254
 31
0.0
 11
103.026318
 21
221.355100
 31
0.0
 11
102.913888
 21
221.280797
 31
0.0
 11
102.802820
 21
221.193346
 31
0.0
 11
102.599590
 21
220.971056
 31
0.0
 11
102.481193
 21
220.722658
 31
0.0
 11
102.447630
 21
220.448154
 31
0.0
 11
102.499601
 21
220.156180
 31
0.0
 11
102.637781
 21
219.855372
 31
0.0
 11
102.862170
 21
219.545732
 31
0.0
 11
103.122356
 21
219.275965
 31
0.0
 11
103.375846
 21
219.085448
 31
0.0
 11
103.622640
 21
218.974182
 31
0.0
 11
103.863276
 21
218.948884
 31
0.0
 11
104.100942
 21
219.013162
 31
0.0
 11
104.335640
 21
219.167016
 31
0.0
 11
104.452813
 21
219.282469
 31
0.0
 11
104.555573
 21
219.416944
 31
0.0
 11
104.643920
 21
219.570440
 31
0.0
 11
104.716469
 21
219.737756
 31
0.0
 11
104.774489
 21
219.910581
 31
0.0
 11
104.817980
 21
220.088916
 31
0.0
  0
LWPOLYLINE
  5
147
100
AcDbEntity
  8
Layer_1
 62
7
100
AcDbPolyline
 90
4
 70
1
 10
107.231350
 20
220.776958
 30
0.0
 10
106.752220
 20
220.457396
 30
0.0
 10
104.853550
 20
223.304165
 30
0.0
 10
105.332680
 20
223.623726
 30
0.0
  0
SPLINE
  5
148
100
AcDbEntity
  8
Layer_1
 62
7
100
AcDbSpline
 70
0
 71
3
 72
31
 73
27
 74
25
 40
0.000000
 40
0.000000
 40
0.000000
 40
0.000000
 40
0.532818
 40
0.999767
 40
1.430537
 40
1.842297
 40
2.254370
 40
2.701651
 40
3.161936
 40
3.581233
 40
3.996840
 40
4.428206
 40
4.890327
 40
5.410850
 40
5.934519
 40
6.398555
 40
6.831873
 40
7.250343
 40
7.668698
 40
8.123236
 40
8.234945
 40
8.345800
 40
8.456320
 40
8.558735
 40
8.644922
 40
8.714958
 40
8.714958
 40
8.714958
 40
8.714958
 10
110.009310
 20
224.254975
 30
0.0
 10
110.082978
 20
224.092765
 30
0.0
 10
110.221206
 20
223.788397
 30
0.0
 10
110.300568
 20
223.311410
 30
0.0
 10
110.249197
 20
222.872199
 30
0.0
 10
110.081260
 20
222.482263
 30
0.0
 10
109.798954
 20
222.157569
 30
0.0
 10
109.425588
 20
221.917376
 30
0.0
 10
109.009080
 20
221.756826
 30
0.0
 10
108.571827
 20
221.719899
 30
0.0
 10
108.155193
 20
221.821825
 30
0.0
 10
107.773908
 20
222.045608
 30
0.0
 10
107.443336
 20
222.388529
 30
0.0
 10
107.180684
 20
222.819573
 30
0.0
 10
106.987725
 20
223.286699
 30
0.0
 10
106.907484
 20
223.759000
 30
0.0
 10
106.958240
 20
224.200500
 30
0.0
 10
107.124302
 20
224.596959
 30
0.0
 10
107.409974
 20
224.927682
 30
0.0
 10
107.688546
 20
225.108593
 30
0.0
 10
107.892863
 20
225.204519
 30
0.0
 10
107.996524
 20
225.244634
 30
0.0
 10
108.099857
 20
225.276039
 30
0.0
 10
108.196446
 20
225.300779
 30
0.0
 10
108.280248
 20
225.321138
 30
0.0
 10
108.331426
 20
225.330796
 30
0.0
 10
108.354370
 20
225.335126
 30
0.0
 11
110.009310
 21
224.254975
 31
0.0
 11
110.206806
 21
223.760111
 31
0.0
 11
110.279572
 21
223.298867
 31
0.0
 11
110.227610
 21
222.871242
 31
0.0
 11
110.063142
 21
222.493754
 31
0.0
 11
109.794752
 21
222.181071
 31
0.0
 11
109.422440
 21
221.933193
 31
0.0
 11
108.990507
 21
221.774144
 31
0.0
 11
108.572387
 21
221.742748
 31
0.0
 11
108.168080
 21
221.839003
 31
0.0
 11
107.794836
 21
222.055256
 31
0.0
 11
107.469902
 21
222.383850
 31
0.0
 11
107.193280
 21
222.824786
 31
0.0
 11
106.999939
 21
223.311456
 31
0.0
 11
106.928556
 21
223.769969
 31
0.0
 11
106.979130
 21
224.200325
 31
0.0
 11
107.143250
 21
224.585269
 31
0.0
 11
107.414343
 21
224.903906
 31
0.0
 11
107.792410
 21
225.156235
 31
0.0
 11
107.893651
 21
225.203450
 31
0.0
 11
107.997068
 21
225.243373
 31
0.0
 11
108.102660
 21
225.276006
 31
0.0
 11
108.201748
 21
225.301899
 31
0.0
 11
108.285651
 21
225.321606
 31
0.0
 11
108.354370
 21
225.335126
 31
0.0
  0
LWPOLYLINE
  5
149
100
AcDbEntity
  8
Layer_1
 62
7
100
AcDbPolyline
 90
4
 70
0
 10
108.354370
 20
225.335126
 30
0.0
 10
109.665420
 20
226.000975
 30
0.0
 10
109.894310
 20
225.550301
 30
0.0
 10
109.107680
 20
225.150792
 30
0.0
  0
SPLINE
  5
14a
100
AcDbEntity
  8
Layer_1
 62
7
100
AcDbSpline
 70
0
 71
3
 72
13
 73
9
 74
7
 40
0.000000
 40
0.000000
 40
0.000000
 40
0.000000
 40
0.196061
 40
0.395422
 40
0.601115
 40
0.817315
 40
1.048672
 40
1.298101
 40
1.298101
 40
1.298101
 40
1.298101
 10
109.107680
 20
225.150792
 30
0.0
 10
109.167058
 20
225.123270
 30
0.0
 10
109.286813
 20
225.067761
 30
0.0
 10
109.453245
 20
224.954804
 30
0.0
 10
109.611364
 20
224.820476
 30
0.0
 10
109.758216
 20
224.658928
 30
0.0
 10
109.893687
 20
224.469379
 30
0.0
 10
109.969815
 20
224.328210
 30
0.0
 10
110.009310
 20
224.254972
 30
0.0
 11
109.107680
 21
225.150792
 31
0.0
 11
109.283288
 21
225.063603
 31
0.0
 11
109.449298
 21
224.953216
 31
0.0
 11
109.605710
 21
224.819631
 31
0.0
 11
109.751630
 21
224.660101
 31
0.0
 11
109.886163
 21
224.471882
 31
0.0
 11
110.009310
 21
224.254972
 31
0.0
  0
LWPOLYLINE
  5
14b
100
AcDbEntity
  8
Layer_1
 62
7
100
AcDbPolyline
 90
1
 70
1
 10
110.009310
 20
224.254972
 30
0.0
  0
LWPOLYLINE
  5
14c
100
AcDbEntity
  8
Layer_1
 62
7
100
AcDbPolyline
 90
1
 70
1
 10
109.479420
 20
223.985865
 30
0.0
  0
SPLINE
  5
14d
100
AcDbEntity
  8
Layer_1
 62
7
100
AcDbSpline
 70
0
 71
3
 72
31
 73
27
 74
25
 40
0.000000
 40
0.000000
 40
0.000000
 40
0.000000
 40
0.403296
 40
0.742597
 40
1.033537
 40
1.298143
 40
1.562745
 40
1.855028
 40
2.159345
 40
2.432571
 40
2.704800
 40
3.000231
 40
3.334588
 40
3.722606
 40
4.116420
 40
4.452023
 40
4.744978
 40
5.014891
 40
5.284057
 40
5.580477
 40
5.870056
 40
6.134658
 40
6.401246
 40
6.694429
 40
7.032265
 40
7.430855
 40
7.430855
 40
7.430855
 40
7.430855
 10
109.479420
 20
223.985861
 30
0.0
 10
109.414589
 20
224.103910
 30
0.0
 10
109.295213
 20
224.321275
 30
0.0
 10
109.069742
 20
224.585736
 30
0.0
 10
108.823653
 20
224.761207
 30
0.0
 10
108.557032
 20
224.842563
 30
0.0
 10
108.278323
 20
224.827675
 30
0.0
 10
108.007355
 20
224.724103
 30
0.0
 10
107.761669
 20
224.564445
 30
0.0
 10
107.579590
 20
224.339809
 30
0.0
 10
107.491523
 20
224.067785
 30
0.0
 10
107.489896
 20
223.763543
 30
0.0
 10
107.568183
 20
223.430957
 30
0.0
 10
107.717098
 20
223.088651
 30
0.0
 10
107.905843
 20
222.766113
 30
0.0
 10
108.129216
 20
222.505454
 30
0.0
 10
108.377127
 20
222.330273
 30
0.0
 10
108.647661
 20
222.248184
 30
0.0
 10
108.931045
 20
222.263045
 30
0.0
 10
109.200464
 20
222.365204
 30
0.0
 10
109.440652
 20
222.521588
 30
0.0
 10
109.616334
 20
222.737882
 30
0.0
 10
109.710522
 20
223.001541
 30
0.0
 10
109.716972
 20
223.304685
 30
0.0
 10
109.639612
 20
223.642264
 30
0.0
 10
109.535676
 20
223.865201
 30
0.0
 10
109.479420
 20
223.985865
 30
0.0
 11
109.479420
 21
223.985861
 31
0.0
 11
109.272353
 21
224.331940
 31
0.0
 11
109.048807
 21
224.587189
 31
0.0
 11
108.808780
 21
224.751608
 31
0.0
 11
108.555154
 21
224.827042
 31
0.0
 11
108.290811
 21
224.815335
 31
0.0
 11
108.015750
 21
224.716488
 31
0.0
 11
107.763821
 21
224.545783
 31
0.0
 11
107.594368
 21
224.331450
 31
0.0
 11
107.507390
 21
224.073490
 31
0.0
 11
107.500876
 21
223.778131
 31
0.0
 11
107.572799
 21
223.451601
 31
0.0
 11
107.723160
 21
223.093901
 31
0.0
 11
107.926217
 21
222.756473
 31
0.0
 11
108.148827
 21
222.505328
 31
0.0
 11
108.390990
 21
222.340466
 31
0.0
 11
108.649800
 21
222.263848
 31
0.0
 11
108.918710
 21
222.275584
 31
0.0
 11
109.197720
 21
222.375676
 31
0.0
 11
109.437366
 21
222.538236
 31
0.0
 11
109.602756
 21
222.744780
 31
0.0
 11
109.693890
 21
222.995307
 31
0.0
 11
109.705438
 21
223.288262
 31
0.0
 11
109.633948
 21
223.618448
 31
0.0
 11
109.479420
 21
223.985865
 31
0.0
  0
LWPOLYLINE
  5
14e
100
AcDbEntity
  8
Layer_1
 62
7
100
AcDbPolyline
 90
3
 70
0
 10
114.400180
 20
223.953351
 30
0.0
 10
113.851020
 20
223.779814
 30
0.0
 10
113.743020
 20
224.121576
 30
0.0
  0
LWPOLYLINE
  5
14f
100
AcDbEntity
  8
Layer_1
 62
7
100
AcDbPolyline
 90
4
 70
0
 10
112.867950
 20
226.890741
 30
0.0
 10
112.819950
 20
227.042635
 30
0.0
 10
113.369110
 20
227.216172
 30
0.0
 10
114.400180
 20
223.953351
 30
0.0
  0
SPLINE
  5
150
100
AcDbEntity
  8
Layer_1
 62
7
100
AcDbSpline
 70
0
 71
3
 72
37
 73
33
 74
31
 40
0.000000
 40
0.000000
 40
0.000000
 40
0.000000
 40
0.213755
 40
0.419108
 40
0.618067
 40
0.814453
 40
1.013516
 40
1.219191
 40
1.603330
 40
1.964128
 40
2.339630
 40
2.746679
 40
3.198778
 40
3.717346
 40
3.997131
 40
4.258689
 40
4.505509
 40
4.740289
 40
4.963593
 40
5.178869
 40
5.383464
 40
5.583619
 40
5.783405
 40
5.983246
 40
6.179517
 40
6.376047
 40
6.549122
 40
6.709996
 40
6.860414
 40
7.010502
 40
7.169257
 40
7.337164
 40
7.337164
 40
7.337164
 40
7.337164
 10
113.743020
 20
224.121576
 30
0.0
 10
113.704158
 20
224.061790
 30
0.0
 10
113.627961
 20
223.944569
 30
0.0
 10
113.495610
 20
223.786094
 30
0.0
 10
113.353470
 20
223.644586
 30
0.0
 10
113.195713
 20
223.523577
 30
0.0
 10
113.019635
 20
223.426348
 30
0.0
 10
112.774014
 20
223.331318
 30
0.0
 10
112.457889
 20
223.271676
 30
0.0
 10
112.081208
 20
223.326163
 30
0.0
 10
111.737165
 20
223.504160
 30
0.0
 10
111.436587
 20
223.792383
 30
0.0
 10
111.191276
 20
224.184820
 30
0.0
 10
111.038413
 20
224.574590
 30
0.0
 10
110.946216
 20
224.916078
 30
0.0
 10
110.906244
 20
225.176374
 30
0.0
 10
110.898813
 20
225.424706
 30
0.0
 10
110.923569
 20
225.658971
 30
0.0
 10
110.972032
 20
225.878633
 30
0.0
 10
111.045194
 20
226.080918
 30
0.0
 10
111.142971
 20
226.263777
 30
0.0
 10
111.262094
 20
226.427139
 30
0.0
 10
111.402583
 20
226.570394
 30
0.0
 10
111.560896
 20
226.691369
 30
0.0
 10
111.733091
 20
226.789554
 30
0.0
 10
111.909516
 20
226.857980
 30
0.0
 10
112.080547
 20
226.903672
 30
0.0
 10
112.239908
 20
226.931462
 30
0.0
 10
112.393855
 20
226.939406
 30
0.0
 10
112.546878
 20
226.932122
 30
0.0
 10
112.705176
 20
226.917134
 30
0.0
 10
112.812688
 20
226.899701
 30
0.0
 10
112.867950
 20
226.890741
 30
0.0
 11
113.743020
 21
224.121576
 31
0.0
 11
113.622909
 21
223.944758
 31
0.0
 11
113.491896
 21
223.786627
 31
0.0
 11
113.349980
 21
223.647183
 31
0.0
 11
113.193740
 21
223.528202
 31
0.0
 11
113.019767
 21
223.431459
 31
0.0
 11
112.828060
 21
223.356956
 31
0.0
 11
112.449406
 21
223.292273
 31
0.0
 11
112.092389
 21
223.344374
 31
0.0
 11
111.757010
 21
223.513261
 31
0.0
 11
111.460167
 21
223.791779
 31
0.0
 11
111.214863
 21
224.171542
 31
0.0
 11
111.021100
 21
224.652550
 31
0.0
 11
110.949876
 21
224.923117
 31
0.0
 11
110.910976
 21
225.181767
 31
0.0
 11
110.904400
 21
225.428499
 31
0.0
 11
110.928407
 21
225.662048
 31
0.0
 11
110.977360
 21
225.879920
 31
0.0
 11
111.051260
 21
226.082115
 31
0.0
 11
111.147741
 21
226.262533
 31
0.0
 11
111.265891
 21
226.424095
 31
0.0
 11
111.405710
 21
226.566802
 31
0.0
 11
111.564353
 21
226.688329
 31
0.0
 11
111.735097
 21
226.785122
 31
0.0
 11
111.917940
 21
226.857181
 31
0.0
 11
112.085072
 21
226.902143
 31
0.0
 11
112.243736
 21
226.928723
 31
0.0
 11
112.393930
 21
226.936921
 31
0.0
 11
112.543906
 21
226.931123
 31
0.0
 11
112.701912
 21
226.915730
 31
0.0
 11
112.867950
 21
226.890741
 31
0.0
  0
LWPOLYLINE
  5
151
100
AcDbEntity
  8
Layer_1
 62
7
100
AcDbPolyline
 90
2
 70
0
 10
113.597170
 20
224.583102
 30
0.0
 10
113.010100
 20
226.440890
 30
0.0
  0
SPLINE
  5
152
100
AcDbEntity
  8
Layer_1
 62
7
100
AcDbSpline
 70
0
 71
3
 72
31
 73
27
 74
25
 40
0.000000
 40
0.000000
 40
0.000000
 40
0.000000
 40
0.162465
 40
0.310078
 40
0.443331
 40
0.572512
 40
0.707277
 40
0.848649
 40
1.149837
 40
1.425008
 40
1.701557
 40
1.998118
 40
2.329145
 40
2.711553
 40
3.086347
 40
3.403449
 40
3.674166
 40
3.916130
 40
4.162334
 40
4.442960
 40
4.607460
 40
4.776704
 40
4.953808
 40
5.136174
 40
5.318477
 40
5.502037
 40
5.502037
 40
5.502037
 40
5.502037
 10
113.010100
 20
226.440890
 30
0.0
 10
112.956222
 20
226.446440
 30
0.0
 10
112.853391
 20
226.457032
 30
0.0
 10
112.705618
 20
226.463142
 30
0.0
 10
112.568903
 20
226.459956
 30
0.0
 10
112.436849
 20
226.448392
 30
0.0
 10
112.303940
 20
226.422872
 30
0.0
 10
112.118225
 20
226.372448
 30
0.0
 10
111.896000
 20
226.276124
 30
0.0
 10
111.678283
 20
226.085281
 30
0.0
 10
111.537062
 20
225.834603
 30
0.0
 10
111.472902
 20
225.536140
 30
0.0
 10
111.488590
 20
225.196854
 30
0.0
 10
111.576418
 20
224.843486
 30
0.0
 10
111.702660
 20
224.507368
 30
0.0
 10
111.860760
 20
224.226421
 30
0.0
 10
112.045494
 20
224.016246
 30
0.0
 10
112.270530
 20
223.887892
 30
0.0
 10
112.530829
 20
223.857161
 30
0.0
 10
112.759459
 20
223.903729
 30
0.0
 10
112.950333
 20
223.979151
 30
0.0
 10
113.098416
 20
224.064431
 30
0.0
 10
113.238921
 20
224.171592
 30
0.0
 10
113.368662
 20
224.297550
 30
0.0
 10
113.490682
 20
224.433975
 30
0.0
 10
113.561626
 20
224.533273
 30
0.0
 10
113.597220
 20
224.583093
 30
0.0
 11
113.010100
 21
226.440890
 31
0.0
 11
112.848321
 21
226.455804
 31
0.0
 11
112.700824
 21
226.461668
 31
0.0
 11
112.567610
 21
226.458480
 31
0.0
 11
112.438993
 21
226.446414
 31
0.0
 11
112.306517
 21
226.421684
 31
0.0
 11
112.170180
 21
226.384290
 31
0.0
 11
111.896500
 21
226.258538
 31
0.0
 11
111.690820
 21
226.075741
 31
0.0
 11
111.553140
 21
225.835900
 31
0.0
 11
111.487469
 21
225.546702
 31
0.0
 11
111.497802
 21
225.215836
 31
0.0
 11
111.584140
 21
224.843302
 31
0.0
 11
111.718927
 21
224.493584
 31
0.0
 11
111.878367
 21
224.219481
 31
0.0
 11
112.062460
 21
224.020993
 31
0.0
 11
112.274316
 21
223.904100
 31
0.0
 11
112.518269
 21
223.870886
 31
0.0
 11
112.794320
 21
223.921353
 31
0.0
 11
112.947172
 21
223.982150
 31
0.0
 11
113.094142
 21
224.066075
 31
0.0
 11
113.235230
 21
224.173127
 31
0.0
 11
113.367136
 21
224.299057
 31
0.0
 11
113.487799
 21
224.435712
 31
0.0
 11
113.597220
 21
224.583093
 31
0.0
  0
LWPOLYLINE
  5
153
100
AcDbEntity
  8
Layer_1
 62
7
100
AcDbPolyline
 90
1
 70
1
 10
113.597220
 20
224.583093
 30
0.0
  0
SPLINE
  5
154
100
AcDbEntity
  8
Layer_1
 62
7
100
AcDbSpline
 70
0
 71
3
 72
19
 73
15
 74
13
 40
0.000000
 40
0.000000
 40
0.000000
 40
0.000000
 40
0.499542
 40
0.960033
 40
1.406672
 40
1.831023
 40
2.237561
 40
2.666281
 40
2.804951
 40
2.956182
 40
3.120741
 40
3.289295
 40
3.457488
 40
3.627259
 40
3.627259
 40
3.627259
 40
3.627259
 10
118.251370
 20
226.387641
 30
0.0
 10
118.267116
 20
226.221281
 30
0.0
 10
118.297376
 20
225.901565
 30
0.0
 10
118.215986
 20
225.433735
 30
0.0
 10
118.036971
 20
225.023533
 30
0.0
 10
117.771031
 20
224.683002
 30
0.0
 10
117.414184
 20
224.447978
 30
0.0
 10
117.096115
 20
224.361164
 30
0.0
 10
116.857633
 20
224.337718
 30
0.0
 10
116.706020
 20
224.335339
 30
0.0
 10
116.544585
 20
224.341740
 30
0.0
 10
116.378568
 20
224.362726
 30
0.0
 10
116.213755
 20
224.401673
 30
0.0
 10
116.108449
 20
224.441973
 30
0.0
 10
116.055550
 20
224.462217
 30
0.0
 11
118.251370
 21
226.387641
 31
0.0
 11
118.275374
 21
225.888676
 31
0.0
 11
118.197281
 21
225.434855
 31
0.0
 11
118.017090
 21
225.026177
 31
0.0
 11
117.751040
 21
224.695586
 31
0.0
 11
117.411903
 21
224.471399
 31
0.0
 11
116.999680
 21
224.353616
 31
0.0
 11
116.861686
 21
224.339945
 31
0.0
 11
116.710489
 21
224.336745
 31
0.0
 11
116.546090
 21
224.344016
 31
0.0
 11
116.378937
 21
224.365696
 31
0.0
 11
116.215423
 21
224.405096
 31
0.0
 11
116.055550
 21
224.462217
 31
0.0
  0
LWPOLYLINE
  5
155
100
AcDbEntity
  8
Layer_1
 62
7
100
AcDbPolyline
 90
4
 70
0
 10
116.055550
 20
224.462217
 30
0.0
 10
116.260200
 20
223.040119
 30
0.0
 10
115.690150
 20
222.958079
 30
0.0
 10
115.228490
 20
226.166137
 30
0.0
  0
SPLINE
  5
156
100
AcDbEntity
  8
Layer_1
 62
7
100
AcDbSpline
 70
0
 71
3
 72
25
 73
21
 74
19
 40
0.000000
 40
0.000000
 40
0.000000
 40
0.000000
 40
0.240946
 40
0.463381
 40
0.670572
 40
0.869770
 40
1.062668
 40
1.253058
 40
1.433188
 40
1.618827
 40
1.814139
 40
2.016777
 40
2.219738
 40
2.425633
 40
2.885499
 40
3.292998
 40
3.684052
 40
4.091622
 40
4.543886
 40
5.067166
 40
5.067166
 40
5.067166
 40
5.067166
 10
115.228490
 20
226.166137
 30
0.0
 10
115.219105
 20
226.245976
 30
0.0
 10
115.201056
 20
226.399522
 30
0.0
 10
115.205206
 20
226.623726
 30
0.0
 10
115.235251
 20
226.831814
 30
0.0
 10
115.293144
 20
227.023731
 30
0.0
 10
115.373485
 20
227.201106
 30
0.0
 10
115.474817
 20
227.360076
 30
0.0
 10
115.597740
 20
227.499865
 30
0.0
 10
115.742691
 20
227.619232
 30
0.0
 10
115.909485
 20
227.720466
 30
0.0
 10
116.092693
 20
227.802487
 30
0.0
 10
116.287221
 20
227.864999
 30
0.0
 10
116.571769
 20
227.920502
 30
0.0
 10
116.932554
 20
227.937886
 30
0.0
 10
117.348221
 20
227.845202
 30
0.0
 10
117.696971
 20
227.630057
 30
0.0
 10
117.967370
 20
227.304972
 30
0.0
 10
118.160410
 20
226.880274
 30
0.0
 10
118.219607
 20
226.559606
 30
0.0
 10
118.251360
 20
226.387601
 30
0.0
 11
115.228490
 21
226.166137
 31
0.0
 11
115.205990
 21
226.406030
 31
0.0
 11
115.210090
 21
226.628428
 31
0.0
 11
115.240790
 21
226.833331
 31
0.0
 11
115.297934
 21
227.024157
 31
0.0
 11
115.377901
 21
227.199699
 31
0.0
 11
115.480690
 21
227.359957
 31
0.0
 11
115.599833
 21
227.495056
 31
0.0
 11
115.742677
 21
227.613621
 31
0.0
 11
115.909220
 21
227.715651
 31
0.0
 11
116.093934
 21
227.798974
 31
0.0
 11
116.287238
 21
227.860837
 31
0.0
 11
116.489130
 21
227.901239
 31
0.0
 11
116.948731
 21
227.916828
 31
0.0
 11
117.345094
 21
227.822213
 31
0.0
 11
117.678220
 21
227.617396
 31
0.0
 11
117.942911
 21
227.307473
 31
0.0
 11
118.133958
 21
226.897541
 31
0.0
 11
118.251360
 21
226.387601
 31
0.0
  0
LWPOLYLINE
  5
157
100
AcDbEntity
  8
Layer_1
 62
7
100
AcDbPolyline
 90
1
 70
1
 10
118.251360
 20
226.387601
 30
0.0
  0
SPLINE
  5
158
100
AcDbEntity
  8
Layer_1
 62
7
100
AcDbSpline
 70
0
 71
3
 72
19
 73
15
 74
13
 40
0.000000
 40
0.000000
 40
0.000000
 40
0.000000
 40
0.406645
 40
0.743467
 40
1.026212
 40
1.280527
 40
1.533723
 40
1.811610
 40
2.106490
 40
2.360048
 40
2.599183
 40
2.854068
 40
3.146805
 40
3.490058
 40
3.490058
 40
3.490058
 40
3.490058
 10
117.668360
 20
226.266601
 30
0.0
 10
117.644880
 20
226.400326
 30
0.0
 10
117.601953
 20
226.644814
 30
0.0
 10
117.476740
 20
226.966339
 30
0.0
 10
117.303682
 20
227.205942
 30
0.0
 10
117.084000
 20
227.360274
 30
0.0
 10
116.827320
 20
227.432634
 30
0.0
 10
116.549268
 20
227.421207
 30
0.0
 10
116.279498
 20
227.355948
 30
0.0
 10
116.046871
 20
227.223656
 30
0.0
 10
115.888124
 20
227.023613
 30
0.0
 10
115.805418
 20
226.771059
 30
0.0
 10
115.776853
 20
226.473294
 30
0.0
 10
115.800317
 20
226.262123
 30
0.0
 10
115.812980
 20
226.148150
 30
0.0
 11
117.668360
 21
226.266601
 31
0.0
 11
117.583626
 21
226.664319
 31
0.0
 11
117.456222
 21
226.976117
 31
0.0
 11
117.286150
 21
227.201994
 31
0.0
 11
117.077467
 21
227.347346
 31
0.0
 11
116.834203
 21
227.417568
 31
0.0
 11
116.556360
 21
227.412660
 31
0.0
 11
116.270938
 21
227.338574
 31
0.0
 11
116.053444
 21
227.208235
 31
0.0
 11
115.903880
 21
227.021644
 31
0.0
 11
115.818064
 21
226.781640
 31
0.0
 11
115.787764
 21
226.490476
 31
0.0
 11
115.812980
 21
226.148150
 31
0.0
  0
LWPOLYLINE
  5
159
100
AcDbEntity
  8
Layer_1
 62
7
100
AcDbPolyline
 90
2
 70
0
 10
115.812980
 20
226.148150
 30
0.0
 10
115.988830
 20
224.926177
 30
0.0
  0
SPLINE
  5
15a
100
AcDbEntity
  8
Layer_1
 62
7
100
AcDbSpline
 70
0
 71
3
 72
19
 73
15
 74
13
 40
0.000000
 40
0.000000
 40
0.000000
 40
0.000000
 40
0.157463
 40
0.301241
 40
0.431878
 40
0.561725
 40
0.700317
 40
0.848457
 40
1.156448
 40
1.435768
 40
1.714472
 40
2.010739
 40
2.336855
 40
2.709416
 40
2.709416
 40
2.709416
 40
2.709416
 10
115.988830
 20
224.926177
 30
0.0
 10
116.039280
 20
224.911633
 30
0.0
 10
116.135796
 20
224.883810
 30
0.0
 10
116.276637
 20
224.853681
 30
0.0
 10
116.409932
 20
224.832536
 30
0.0
 10
116.543146
 20
224.828124
 30
0.0
 10
116.681987
 20
224.833961
 30
0.0
 10
116.879075
 20
224.855206
 30
0.0
 10
117.119880
 20
224.914514
 30
0.0
 10
117.370238
 20
225.068890
 30
0.0
 10
117.551220
 20
225.295397
 30
0.0
 10
117.662280
 20
225.578192
 30
0.0
 10
117.705572
 20
225.910528
 30
0.0
 10
117.681328
 20
226.142764
 30
0.0
 10
117.668400
 20
226.266601
 30
0.0
 11
115.988830
 21
224.926177
 31
0.0
 11
116.140651
 21
224.884406
 31
0.0
 11
116.281194
 21
224.854079
 31
0.0
 11
116.410460
 21
224.835197
 31
0.0
 11
116.540194
 21
224.829795
 31
0.0
 11
116.678678
 21
224.835281
 31
0.0
 11
116.825910
 21
224.851657
 31
0.0
 11
117.123077
 21
224.932593
 31
0.0
 11
117.359617
 21
225.081147
 31
0.0
 11
117.535530
 21
225.297319
 31
0.0
 11
117.647356
 21
225.571672
 31
0.0
 11
117.691646
 21
225.894766
 31
0.0
 11
117.668400
 21
226.266601
 31
0.0
  0
LWPOLYLINE
  5
15b
100
AcDbEntity
  8
Layer_1
 62
7
100
AcDbPolyline
 90
1
 70
1
 10
117.668400
 20
226.266601
 30
0.0
  0
SPLINE
  5
15c
100
AcDbEntity
  8
Layer_1
 62
7
100
AcDbSpline
 70
0
 71
3
 72
31
 73
27
 74
25
 40
0.000000
 40
0.000000
 40
0.000000
 40
0.000000
 40
0.520588
 40
0.983337
 40
1.416555
 40
1.833203
 40
2.248735
 40
2.699557
 40
3.153755
 40
3.571166
 40
3.988332
 40
4.420629
 40
4.883064
 40
5.403618
 40
5.924175
 40
6.386609
 40
6.818891
 40
7.237160
 40
7.654970
 40
8.109209
 40
8.560071
 40
8.975997
 40
9.393742
 40
9.826972
 40
10.289722
 40
10.810308
 40
10.810308
 40
10.810308
 40
10.810308
 10
122.353260
 20
226.327211
 30
0.0
 10
122.342277
 20
226.153454
 30
0.0
 10
122.321533
 20
225.825244
 30
0.0
 10
122.167721
 20
225.372075
 30
0.0
 10
121.919619
 20
225.005327
 30
0.0
 10
121.589006
 20
224.732923
 30
0.0
 10
121.184535
 20
224.574110
 30
0.0
 10
120.741740
 20
224.535955
 30
0.0
 10
120.300009
 20
224.590047
 30
0.0
 10
119.899384
 20
224.763184
 30
0.0
 10
119.577868
 20
225.047087
 30
0.0
 10
119.344195
 20
225.423644
 30
0.0
 10
119.211868
 20
225.881694
 30
0.0
 10
119.181816
 20
226.384679
 30
0.0
 10
119.230119
 20
226.886195
 30
0.0
 10
119.378837
 20
227.339269
 30
0.0
 10
119.626559
 20
227.707021
 30
0.0
 10
119.957289
 20
227.980788
 30
0.0
 10
120.364170
 20
228.140437
 30
0.0
 10
120.807744
 20
228.178847
 30
0.0
 10
121.249024
 20
228.124317
 30
0.0
 10
121.647679
 20
227.949813
 30
0.0
 10
121.967271
 20
227.663929
 30
0.0
 10
122.202550
 20
227.288539
 30
0.0
 10
122.339730
 20
226.829971
 30
0.0
 10
122.348577
 20
226.501243
 30
0.0
 10
122.353260
 20
226.327211
 30
0.0
 11
122.353260
 21
226.327211
 31
0.0
 11
122.296201
 21
225.809760
 31
0.0
 11
122.145291
 21
225.372309
 31
0.0
 11
121.900530
 21
225.014860
 31
0.0
 11
121.577453
 21
224.751768
 31
0.0
 11
121.191663
 21
224.597390
 31
0.0
 11
120.743160
 21
224.551727
 31
0.0
 11
120.293206
 21
224.613667
 31
0.0
 11
119.911222
 21
224.781955
 31
0.0
 11
119.597210
 21
225.056590
 31
0.0
 11
119.367238
 21
225.422641
 31
0.0
 11
119.233294
 21
225.865252
 31
0.0
 11
119.195380
 21
226.384424
 31
0.0
 11
119.252098
 21
226.901882
 31
0.0
 11
119.401984
 21
227.339351
 31
0.0
 11
119.645040
 21
227.696831
 31
0.0
 11
119.968830
 21
227.961612
 31
0.0
 11
120.356680
 21
228.116974
 31
0.0
 11
120.808590
 21
228.162916
 31
0.0
 11
121.255138
 21
228.100697
 31
0.0
 11
121.635061
 21
227.931425
 31
0.0
 11
121.948360
 21
227.655101
 31
0.0
 11
122.180033
 21
227.289019
 31
0.0
 11
122.315000
 21
226.846389
 31
0.0
 11
122.353260
 21
226.327211
 31
0.0
  0
LWPOLYLINE
  5
15d
100
AcDbEntity
  8
Layer_1
 62
7
100
AcDbPolyline
 90
1
 70
1
 10
122.353260
 20
226.327211
 30
0.0
  0
SPLINE
  5
15e
100
AcDbEntity
  8
Layer_1
 62
7
100
AcDbSpline
 70
0
 71
3
 72
31
 73
27
 74
25
 40
0.000000
 40
0.000000
 40
0.000000
 40
0.000000
 40
0.406086
 40
0.746158
 40
1.037207
 40
1.303637
 40
1.567819
 40
1.856006
 40
2.147572
 40
2.413619
 40
2.680551
 40
2.970766
 40
3.310578
 40
3.716638
 40
4.112199
 40
4.449308
 40
4.744222
 40
5.013217
 40
5.279171
 40
5.569131
 40
5.855675
 40
6.119349
 40
6.386678
 40
6.681535
 40
7.019895
 40
7.418537
 40
7.418537
 40
7.418537
 40
7.418537
 10
121.759050
 20
226.337981
 30
0.0
 10
121.756986
 20
226.473566
 30
0.0
 10
121.753193
 20
226.722696
 30
0.0
 10
121.675570
 20
227.063158
 30
0.0
 10
121.533523
 20
227.331176
 30
0.0
 10
121.332885
 20
227.524796
 30
0.0
 10
121.080756
 20
227.641589
 30
0.0
 10
120.798655
 20
227.677188
 30
0.0
 10
120.514842
 20
227.651937
 30
0.0
 10
120.256495
 20
227.544687
 30
0.0
 10
120.047808
 20
227.358726
 30
0.0
 10
119.897777
 20
227.094926
 30
0.0
 10
119.810945
 20
226.757806
 30
0.0
 10
119.781761
 20
226.377337
 30
0.0
 10
119.797474
 20
225.996805
 30
0.0
 10
119.874541
 20
225.660292
 30
0.0
 10
120.014899
 20
225.390103
 30
0.0
 10
120.215699
 20
225.192593
 30
0.0
 10
120.469183
 20
225.073535
 30
0.0
 10
120.750816
 20
225.037299
 30
0.0
 10
121.032793
 20
225.063223
 30
0.0
 10
121.288074
 20
225.172122
 30
0.0
 10
121.495232
 20
225.360748
 30
0.0
 10
121.647114
 20
225.624213
 30
0.0
 10
121.739055
 20
225.959200
 30
0.0
 10
121.752031
 20
226.205019
 30
0.0
 10
121.759050
 20
226.337981
 30
0.0
 11
121.759050
 21
226.337981
 31
0.0
 11
121.737441
 21
226.743492
 31
0.0
 11
121.656614
 21
227.073818
 31
0.0
 11
121.516570
 21
227.328960
 31
0.0
 11
121.323809
 21
227.512884
 31
0.0
 11
121.084819
 21
227.625472
 31
0.0
 11
120.799600
 21
227.666726
 31
0.0
 11
120.509669
 21
227.635897
 31
0.0
 11
120.264716
 21
227.532076
 31
0.0
 11
120.064740
 21
227.355263
 31
0.0
 11
119.917230
 21
227.105331
 31
0.0
 11
119.825513
 21
226.778131
 31
0.0
 11
119.789590
 21
226.373663
 31
0.0
 11
119.811350
 21
225.978702
 31
0.0
 11
119.892230
 21
225.651439
 31
0.0
 11
120.032230
 21
225.391873
 31
0.0
 11
120.225270
 21
225.204540
 31
0.0
 11
120.465243
 21
225.089890
 31
0.0
 11
120.752150
 21
225.047925
 31
0.0
 11
121.036982
 21
225.079202
 31
0.0
 11
121.278892
 21
225.184099
 31
0.0
 11
121.477880
 21
225.362617
 31
0.0
 11
121.628854
 21
225.615890
 31
0.0
 11
121.722578
 21
225.941012
 31
0.0
 11
121.759050
 21
226.337981
 31
0.0
  0
LWPOLYLINE
  5
15f
100
AcDbEntity
  8
Layer_1
 62
7
100
AcDbPolyline
 90
1
 70
1
 10
121.759050
 20
226.337981
 30
0.0
  0
SPLINE
  5
160
100
AcDbEntity
  8
Layer_1
 62
7
100
AcDbSpline
 70
0
 71
3
 72
13
 73
9
 74
7
 40
0.000000
 40
0.000000
 40
0.000000
 40
0.000000
 40
0.177723
 40
0.359798
 40
0.551544
 40
0.744835
 40
0.929256
 40
1.106728
 40
1.106728
 40
1.106728
 40
1.106728
 10
125.680350
 20
223.790262
 30
0.0
 10
125.667569
 20
223.732257
 30
0.0
 10
125.641694
 20
223.614827
 30
0.0
 10
125.562308
 20
223.447355
 30
0.0
 10
125.455023
 20
223.291116
 30
0.0
 10
125.329670
 20
223.148253
 30
0.0
 10
125.196395
 20
223.019162
 30
0.0
 10
125.098814
 20
222.948019
 30
0.0
 10
125.050960
 20
222.913131
 30
0.0
 11
125.680350
 21
223.790262
 31
0.0
 11
125.635684
 21
223.618244
 31
0.0
 11
125.559688
 21
223.452787
 31
0.0
 11
125.452360
 21
223.293893
 31
0.0
 11
125.325747
 21
223.147844
 31
0.0
 11
125.191947
 21
223.020923
 31
0.0
 11
125.050960
 21
222.913131
 31
0.0
  0
LWPOLYLINE
  5
161
100
AcDbEntity
  8
Layer_1
 62
7
100
AcDbPolyline
 90
3
 70
0
 10
125.050960
 20
222.913131
 30
0.0
 10
124.516000
 20
223.001571
 30
0.0
 10
124.523000
 20
223.043881
 30
0.0
  0
SPLINE
  5
162
100
AcDbEntity
  8
Layer_1
 62
7
100
AcDbSpline
 70
0
 71
3
 72
19
 73
15
 74
13
 40
0.000000
 40
0.000000
 40
0.000000
 40
0.000000
 40
0.217715
 40
0.405649
 40
0.565511
 40
0.708175
 40
0.847747
 40
0.989626
 40
1.095638
 40
1.196394
 40
1.296804
 40
1.390675
 40
1.476995
 40
1.564794
 40
1.564794
 40
1.564794
 40
1.564794
 10
124.523000
 20
223.043881
 30
0.0
 10
124.584137
 20
223.083029
 30
0.0
 10
124.698047
 20
223.155970
 30
0.0
 10
124.846976
 20
223.272137
 30
0.0
 10
124.964442
 20
223.386296
 30
0.0
 10
125.055510
 20
223.503177
 30
0.0
 10
125.117400
 20
223.631418
 30
0.0
 10
125.150779
 20
223.756956
 30
0.0
 10
125.160166
 20
223.873527
 30
0.0
 10
125.145248
 20
223.975690
 30
0.0
 10
125.109912
 20
224.068440
 30
0.0
 10
125.055925
 20
224.145933
 30
0.0
 10
124.983661
 20
224.202444
 30
0.0
 10
124.926828
 20
224.216682
 30
0.0
 10
124.898170
 20
224.223862
 30
0.0
 11
124.523000
 21
223.043881
 31
0.0
 11
124.704370
 21
223.164317
 31
0.0
 11
124.851947
 21
223.280680
 31
0.0
 11
124.965730
 21
223.392970
 31
0.0
 11
125.051816
 21
223.506734
 31
0.0
 11
125.112926
 21
223.632217
 31
0.0
 11
125.149060
 21
223.769418
 31
0.0
 11
125.156204
 21
223.875188
 31
0.0
 11
125.141638
 21
223.974886
 31
0.0
 11
125.105360
 21
224.068513
 31
0.0
 11
125.050694
 21
224.144825
 31
0.0
 11
124.981631
 21
224.196608
 31
0.0
 11
124.898170
 21
224.223862
 31
0.0
  0
LWPOLYLINE
  5
163
100
AcDbEntity
  8
Layer_1
 62
7
100
AcDbPolyline
 90
2
 70
0
 10
124.898170
 20
224.223862
 30
0.0
 10
124.620110
 20
224.269832
 30
0.0
  0
SPLINE
  5
164
100
AcDbEntity
  8
Layer_1
 62
7
100
AcDbSpline
 70
0
 71
3
 72
31
 73
27
 74
25
 40
0.000000
 40
0.000000
 40
0.000000
 40
0.000000
 40
0.233048
 40
0.455732
 40
0.670208
 40
0.877810
 40
1.081233
 40
1.284864
 40
1.487387
 40
1.696971
 40
1.918477
 40
2.155670
 40
2.414365
 40
2.698588
 40
3.215942
 40
3.684611
 40
4.137078
 40
4.585505
 40
5.040421
 40
5.537381
 40
5.707693
 40
5.876281
 40
6.044169
 40
6.208041
 40
6.365026
 40
6.515577
 40
6.515577
 40
6.515577
 40
6.515577
 10
124.620110
 20
224.269832
 30
0.0
 10
124.543736
 20
224.284334
 30
0.0
 10
124.394384
 20
224.312693
 30
0.0
 10
124.180827
 20
224.379946
 30
0.0
 10
123.982431
 20
224.463468
 30
0.0
 10
123.801119
 20
224.567876
 30
0.0
 10
123.640419
 20
224.696132
 30
0.0
 10
123.500660
 20
224.844719
 30
0.0
 10
123.386170
 20
225.016263
 30
0.0
 10
123.298661
 20
225.209308
 30
0.0
 10
123.235149
 20
225.423664
 30
0.0
 10
123.204193
 20
225.661726
 30
0.0
 10
123.206149
 20
225.922436
 30
0.0
 10
123.247941
 20
226.273745
 30
0.0
 10
123.353949
 20
226.687127
 30
0.0
 10
123.586209
 20
227.113359
 30
0.0
 10
123.913431
 20
227.440563
 30
0.0
 10
124.315665
 20
227.660712
 30
0.0
 10
124.779342
 20
227.754784
 30
0.0
 10
125.156442
 20
227.730022
 30
0.0
 10
125.429536
 20
227.674515
 30
0.0
 10
125.592249
 20
227.628209
 30
0.0
 10
125.748168
 20
227.568640
 30
0.0
 10
125.897712
 20
227.503953
 30
0.0
 10
126.038880
 20
227.434636
 30
0.0
 10
126.127411
 20
227.382900
 30
0.0
 10
126.170750
 20
227.357573
 30
0.0
 11
124.620110
 21
224.269832
 31
0.0
 11
124.392069
 21
224.317881
 31
0.0
 11
124.179452
 21
224.384081
 31
0.0
 11
123.982260
 21
224.468432
 31
0.0
 11
123.802888
 21
224.572951
 31
0.0
 11
123.643744
 21
224.699656
 31
0.0
 11
123.504830
 21
224.848547
 31
0.0
 11
123.392243
 21
225.016890
 31
0.0
 11
123.304697
 21
225.207314
 31
0.0
 11
123.242190
 21
225.419818
 31
0.0
 11
123.210301
 21
225.654857
 31
0.0
 11
123.210634
 21
225.913553
 31
0.0
 11
123.243190
 21
226.195905
 31
0.0
 11
123.379187
 21
226.695063
 31
0.0
 11
123.607297
 21
227.104473
 31
0.0
 11
123.927520
 21
227.424135
 31
0.0
 11
124.321409
 21
227.638467
 31
0.0
 11
124.766489
 21
227.732557
 31
0.0
 11
125.262760
 21
227.706403
 31
0.0
 11
125.429616
 21
227.672264
 31
0.0
 11
125.591676
 21
227.625807
 31
0.0
 11
125.748940
 21
227.567032
 31
0.0
 11
125.899274
 21
227.501812
 31
0.0
 11
126.039878
 21
227.431992
 31
0.0
 11
126.170750
 21
227.357573
 31
0.0
  0
LWPOLYLINE
  5
165
100
AcDbEntity
  8
Layer_1
 62
7
100
AcDbPolyline
 90
3
 70
0
 10
126.170750
 20
227.357573
 30
0.0
 10
126.065320
 20
226.719846
 30
0.0
 10
126.029020
 20
226.725846
 30
0.0
  0
SPLINE
  5
166
100
AcDbEntity
  8
Layer_1
 62
7
100
AcDbSpline
 70
0
 71
3
 72
31
 73
27
 74
25
 40
0.000000
 40
0.000000
 40
0.000000
 40
0.000000
 40
0.218909
 40
0.416646
 40
0.594848
 40
0.756446
 40
0.907703
 40
1.050234
 40
1.367682
 40
1.660596
 40
1.958289
 40
2.270593
 40
2.603335
 40
2.973693
 40
3.188689
 40
3.377734
 40
3.543670
 40
3.695143
 40
3.838456
 40
3.976905
 40
4.111427
 40
4.244926
 40
4.380068
 40
4.520007
 40
4.664280
 40
4.814192
 40
4.814192
 40
4.814192
 40
4.814192
 10
126.029020
 20
226.725846
 30
0.0
 10
125.974553
 20
226.774449
 30
0.0
 10
125.870887
 20
226.866954
 30
0.0
 10
125.710658
 20
226.984395
 30
0.0
 10
125.555836
 20
227.075213
 30
0.0
 10
125.406866
 20
227.143564
 30
0.0
 10
125.263383
 20
227.194066
 30
0.0
 10
125.064441
 20
227.239183
 30
0.0
 10
124.810327
 20
227.251722
 30
0.0
 10
124.512369
 20
227.173384
 30
0.0
 10
124.258920
 20
227.001787
 30
0.0
 10
124.055992
 20
226.757285
 30
0.0
 10
123.908314
 20
226.449448
 30
0.0
 10
123.835985
 20
226.150325
 30
0.0
 10
123.804007
 20
225.893945
 30
0.0
 10
123.800039
 20
225.703559
 30
0.0
 10
123.819916
 20
225.535119
 30
0.0
 10
123.864800
 20
225.387594
 30
0.0
 10
123.924957
 20
225.255809
 30
0.0
 10
124.002507
 20
225.139887
 30
0.0
 10
124.096184
 20
225.041270
 30
0.0
 10
124.201290
 20
224.956944
 30
0.0
 10
124.318829
 20
224.887054
 30
0.0
 10
124.448694
 20
224.834526
 30
0.0
 10
124.586993
 20
224.791095
 30
0.0
 10
124.683421
 20
224.772839
 30
0.0
 10
124.732560
 20
224.763536
 30
0.0
 11
126.029020
 21
226.725846
 31
0.0
 11
125.863256
 21
226.868826
 31
0.0
 11
125.703456
 21
226.985290
 31
0.0
 11
125.549620
 21
227.075237
 31
0.0
 11
125.402751
 21
227.142642
 31
0.0
 11
125.259824
 21
227.192146
 31
0.0
 11
125.120840
 21
227.223748
 31
0.0
 11
124.803597
 21
227.235138
 31
0.0
 11
124.520827
 21
227.158720
 31
0.0
 11
124.272530
 21
226.994495
 31
0.0
 11
124.070948
 21
226.755961
 31
0.0
 11
123.924281
 21
226.457287
 31
0.0
 11
123.832530
 21
226.098474
 31
0.0
 11
123.806863
 21
225.885015
 31
0.0
 11
123.804530
 21
225.695985
 31
0.0
 11
123.825530
 21
225.531383
 31
0.0
 11
123.868820
 21
225.386228
 31
0.0
 11
123.929090
 21
225.256204
 31
0.0
 11
124.006340
 21
225.141311
 31
0.0
 11
124.098461
 21
225.043281
 31
0.0
 11
124.202651
 21
224.959815
 31
0.0
 11
124.318910
 21
224.890915
 31
0.0
 11
124.447964
 21
224.836806
 31
0.0
 11
124.585848
 21
224.794347
 31
0.0
 11
124.732560
 21
224.763536
 31
0.0
  0
LWPOLYLINE
  5
167
100
AcDbEntity
  8
Layer_1
 62
7
100
AcDbPolyline
 90
2
 70
0
 10
124.732560
 20
224.763536
 30
0.0
 10
125.034800
 20
224.713566
 30
0.0
  0
LWPOLYLINE
  5
168
100
AcDbEntity
  8
Layer_1
 62
7
100
AcDbPolyline
 90
2
 70
0
 10
125.680140
 20
223.790259
 30
0.0
 10
125.680350
 20
223.790262
 30
0.0
  0
LWPOLYLINE
  5
169
100
AcDbEntity
  8
Layer_1
 62
7
100
AcDbPolyline
 90
12
 70
1
 10
131.864140
 20
221.790772
 30
0.0
 10
131.142940
 20
222.106554
 30
0.0
 10
130.304730
 20
224.690792
 30
0.0
 10
129.695270
 20
224.429262
 30
0.0
 10
129.074770
 20
223.012125
 30
0.0
 10
128.519140
 20
223.255413
 30
0.0
 10
130.348710
 20
227.433862
 30
0.0
 10
130.904340
 20
227.190574
 30
0.0
 10
129.949620
 20
225.010148
 30
0.0
 10
132.933230
 20
226.302206
 30
0.0
 10
133.606720
 20
226.007311
 30
0.0
 10
130.880480
 20
224.860066
 30
0.0
  0
SPLINE
  5
16a
100
AcDbEntity
  8
Layer_1
 62
7
100
AcDbSpline
 70
0
 71
3
 72
13
 73
9
 74
7
 40
0.000000
 40
0.000000
 40
0.000000
 40
0.000000
 40
0.221439
 40
0.427003
 40
0.633805
 40
0.839762
 40
1.043062
 40
1.257507
 40
1.257507
 40
1.257507
 40
1.257507
 10
125.034800
 20
224.713566
 30
0.0
 10
125.107166
 20
224.697050
 30
0.0
 10
125.246711
 20
224.665203
 30
0.0
 10
125.429355
 20
224.550734
 30
0.0
 10
125.565471
 20
224.392791
 30
0.0
 10
125.658475
 20
224.207648
 30
0.0
 10
125.702230
 20
224.000901
 30
0.0
 10
125.687633
 20
223.861711
 30
0.0
 10
125.680140
 20
223.790259
 30
0.0
 11
125.034800
 21
224.713566
 31
0.0
 11
125.247463
 21
224.651843
 31
0.0
 11
125.422027
 21
224.543289
 31
0.0
 11
125.558490
 21
224.387903
 31
0.0
 11
125.650500
 21
224.203641
 31
0.0
 11
125.691050
 21
224.004426
 31
0.0
 11
125.680140
 21
223.790259
 31
0.0
  0
LWPOLYLINE
  5
16b
100
AcDbEntity
  8
Layer_1
 62
7
100
AcDbPolyline
 90
3
 70
0
 10
134.713210
 20
219.897279
 30
0.0
 10
134.232970
 20
220.215176
 30
0.0
 10
134.430810
 20
220.514049
 30
0.0
  0
LWPOLYLINE
  5
16c
100
AcDbEntity
  8
Layer_1
 62
7
100
AcDbPolyline
 90
4
 70
0
 10
136.033820
 20
222.935653
 30
0.0
 10
136.121720
 20
223.068485
 30
0.0
 10
136.601960
 20
222.750588
 30
0.0
 10
134.713210
 20
219.897279
 30
0.0
  0
SPLINE
  5
16d
100
AcDbEntity
  8
Layer_1
 62
7
100
AcDbSpline
 70
0
 71
3
 72
37
 73
33
 74
31
 40
0.000000
 40
0.000000
 40
0.000000
 40
0.000000
 40
0.213757
 40
0.419111
 40
0.618070
 40
0.814454
 40
1.013516
 40
1.219194
 40
1.603332
 40
1.964128
 40
2.339628
 40
2.746674
 40
3.198774
 40
3.717351
 40
3.997134
 40
4.258690
 40
4.505508
 40
4.740289
 40
4.963593
 40
5.178867
 40
5.383467
 40
5.583623
 40
5.783407
 40
5.983248
 40
6.179517
 40
6.376046
 40
6.549124
 40
6.710000
 40
6.860416
 40
7.010502
 40
7.169256
 40
7.337164
 40
7.337164
 40
7.337164
 40
7.337164
 10
134.430810
 20
220.514049
 30
0.0
 10
134.359886
 20
220.506674
 30
0.0
 10
134.220825
 20
220.492214
 30
0.0
 10
134.014377
 20
220.495472
 30
0.0
 10
133.814965
 20
220.516998
 30
0.0
 10
133.621677
 20
220.563582
 30
0.0
 10
133.435359
 20
220.639360
 30
0.0
 10
133.207022
 20
220.770597
 30
0.0
 10
132.961873
 20
220.978909
 30
0.0
 10
132.767392
 20
221.306069
 30
0.0
 10
132.689480
 20
221.685511
 30
0.0
 10
132.724575
 20
222.100463
 30
0.0
 10
132.875484
 20
222.537975
 30
0.0
 10
133.082455
 20
222.901913
 30
0.0
 10
133.290018
 20
223.188328
 30
0.0
 10
133.467284
 20
223.383078
 30
0.0
 10
133.655708
 20
223.545004
 30
0.0
 10
133.853435
 20
223.673053
 30
0.0
 10
134.054712
 20
223.773489
 30
0.0
 10
134.258007
 20
223.843799
 30
0.0
 10
134.461678
 20
223.882745
 30
0.0
 10
134.663608
 20
223.892837
 30
0.0
 10
134.863337
 20
223.873674
 30
0.0
 10
135.056947
 20
223.826636
 30
0.0
 10
135.241566
 20
223.754477
 30
0.0
 10
135.405705
 20
223.660317
 30
0.0
 10
135.548778
 20
223.556058
 30
0.0
 10
135.670592
 20
223.449614
 30
0.0
 10
135.773564
 20
223.334900
 30
0.0
 10
135.864120
 20
223.211335
 30
0.0
 10
135.951998
 20
223.078820
 30
0.0
 10
136.006041
 20
222.984259
 30
0.0
 10
136.033820
 20
222.935653
 30
0.0
 11
134.430810
 21
220.514049
 31
0.0
 11
134.217794
 21
220.496260
 31
0.0
 11
134.012454
 21
220.498693
 31
0.0
 11
133.814790
 21
220.521349
 31
0.0
 11
133.624033
 21
220.568023
 31
0.0
 11
133.439417
 21
220.642471
 31
0.0
 11
133.260940
 21
220.744694
 31
0.0
 11
132.972554
 21
220.998457
 31
0.0
 11
132.788584
 21
221.308826
 31
0.0
 11
132.709030
 21
221.675802
 31
0.0
 11
132.738937
 21
222.081748
 31
0.0
 11
132.879990
 21
222.511280
 31
0.0
 11
133.132190
 21
222.964400
 31
0.0
 11
133.297792
 21
223.189909
 31
0.0
 11
133.474452
 21
223.382790
 31
0.0
 11
133.662170
 21
223.543043
 31
0.0
 11
133.858870
 21
223.671227
 31
0.0
 11
134.059063
 21
223.770157
 31
0.0
 11
134.262750
 21
223.839833
 31
0.0
 11
134.463710
 21
223.878254
 31
0.0
 11
134.663630
 21
223.887971
 31
0.0
 11
134.862510
 21
223.868983
 31
0.0
 11
135.056758
 21
223.822037
 31
0.0
 11
135.239381
 21
223.750131
 31
0.0
 11
135.410380
 21
223.653265
 31
0.0
 11
135.550436
 21
223.551576
 31
0.0
 11
135.670869
 21
223.444915
 31
0.0
 11
135.771680
 21
223.333280
 31
0.0
 11
135.861473
 21
223.213018
 31
0.0
 11
135.948853
 21
223.080476
 31
0.0
 11
136.033820
 21
222.935653
 31
0.0
  0
LWPOLYLINE
  5
16e
100
AcDbEntity
  8
Layer_1
 62
7
100
AcDbPolyline
 90
2
 70
0
 10
134.698010
 20
220.917655
 30
0.0
 10
135.773450
 20
222.542296
 30
0.0
  0
LWPOLYLINE
  5
16f
100
AcDbEntity
  8
Layer_1
 62
7
100
AcDbPolyline
 90
1
 70
1
 10
134.698010
 20
220.917658
 30
0.0
  0
SPLINE
  5
170
100
AcDbEntity
  8
Layer_1
 62
7
100
AcDbSpline
 70
0
 71
3
 72
31
 73
27
 74
25
 40
0.000000
 40
0.000000
 40
0.000000
 40
0.000000
 40
0.162468
 40
0.310082
 40
0.443333
 40
0.572519
 40
0.707283
 40
0.848643
 40
1.149836
 40
1.425010
 40
1.701560
 40
1.998119
 40
2.329144
 40
2.711545
 40
3.086340
 40
3.403443
 40
3.674161
 40
3.916125
 40
4.162331
 40
4.442962
 40
4.607459
 40
4.776701
 40
4.953806
 40
5.136175
 40
5.318479
 40
5.502041
 40
5.502041
 40
5.502041
 40
5.502041
 10
135.773450
 20
222.542296
 30
0.0
 10
135.743887
 20
222.587681
 30
0.0
 10
135.687465
 20
222.674303
 30
0.0
 10
135.599298
 20
222.793049
 30
0.0
 10
135.510866
 20
222.897363
 30
0.0
 10
135.418812
 20
222.992748
 30
0.0
 10
135.315404
 20
223.080049
 30
0.0
 10
135.159449
 20
223.192789
 30
0.0
 10
134.944806
 20
223.304999
 30
0.0
 10
134.659513
 20
223.354300
 30
0.0
 10
134.375794
 20
223.306482
 30
0.0
 10
134.103370
 20
223.168712
 30
0.0
 10
133.849405
 20
222.943191
 30
0.0
 10
133.629830
 20
222.652730
 30
0.0
 10
133.447857
 20
222.343217
 30
0.0
 10
133.328805
 20
222.043627
 30
0.0
 10
133.281529
 20
221.767827
 30
0.0
 10
133.323227
 20
221.512136
 30
0.0
 10
133.463004
 20
221.290409
 30
0.0
 10
133.642974
 20
221.141911
 30
0.0
 10
133.821639
 20
221.040914
 30
0.0
 10
133.981063
 20
220.979392
 30
0.0
 10
134.152738
 20
220.937525
 30
0.0
 10
134.332260
 20
220.915834
 30
0.0
 10
134.515068
 20
220.906734
 30
0.0
 10
134.636890
 20
220.914009
 30
0.0
 10
134.698010
 20
220.917658
 30
0.0
 11
135.773450
 21
222.542296
 31
0.0
 11
135.683322
 21
222.677473
 31
0.0
 11
135.595139
 21
222.795852
 31
0.0
 11
135.508900
 21
222.897433
 31
0.0
 11
135.418627
 21
222.989844
 31
0.0
 11
135.316100
 21
223.077305
 31
0.0
 11
135.201320
 21
223.159818
 31
0.0
 11
134.931448
 21
223.293558
 31
0.0
 11
134.659978
 21
223.338551
 31
0.0
 11
134.386910
 21
223.294798
 31
0.0
 11
134.120741
 21
223.164027
 31
0.0
 11
133.869954
 21
222.947963
 31
0.0
 11
133.634550
 21
222.646607
 31
0.0
 11
133.447366
 21
222.321902
 31
0.0
 11
133.334479
 21
222.025573
 31
0.0
 11
133.295890
 21
221.757619
 31
0.0
 11
133.338209
 21
221.519384
 31
0.0
 11
133.465779
 21
221.308806
 31
0.0
 11
133.678600
 21
221.125884
 31
0.0
 11
133.821983
 21
221.045258
 31
0.0
 11
133.979653
 21
220.983750
 31
0.0
 11
134.151610
 21
220.941358
 31
0.0
 11
134.332472
 21
220.917969
 31
0.0
 11
134.514606
 21
220.910069
 31
0.0
 11
134.698010
 21
220.917658
 31
0.0
  0
LWPOLYLINE
  5
171
100
AcDbEntity
  8
Layer_1
 62
7
100
AcDbPolyline
 90
4
 70
1
 10
136.027340
 20
218.789129
 30
0.0
 10
135.587610
 20
219.161053
 30
0.0
 10
137.797390
 20
221.773698
 30
0.0
 10
138.237120
 20
221.401774
 30
0.0
  0
SPLINE
  5
172
100
AcDbEntity
  8
Layer_1
 62
7
100
AcDbSpline
 70
0
 71
3
 72
31
 73
27
 74
25
 40
0.000000
 40
0.000000
 40
0.000000
 40
0.000000
 40
0.532819
 40
0.999767
 40
1.430535
 40
1.842297
 40
2.254370
 40
2.701658
 40
3.161943
 40
3.581239
 40
3.996847
 40
4.428216
 40
4.890339
 40
5.410861
 40
5.934526
 40
6.398561
 40
6.831880
 40
7.250352
 40
7.668708
 40
8.123245
 40
8.234950
 40
8.345803
 40
8.456320
 40
8.558741
 40
8.644930
 40
8.714967
 40
8.714967
 40
8.714967
 40
8.714967
 10
140.138540
 20
217.082749
 30
0.0
 10
140.003069
 20
216.967048
 30
0.0
 10
139.748874
 20
216.749950
 30
0.0
 10
139.312509
 20
216.541620
 30
0.0
 10
138.876246
 20
216.469386
 30
0.0
 10
138.455055
 20
216.522771
 30
0.0
 10
138.064885
 20
216.704144
 30
0.0
 10
137.730718
 20
216.996425
 30
0.0
 10
137.461117
 20
217.352194
 30
0.0
 10
137.304570
 20
217.762129
 30
0.0
 10
137.287154
 20
218.190698
 30
0.0
 10
137.396627
 20
218.619037
 30
0.0
 10
137.634615
 20
219.031633
 30
0.0
 10
137.976082
 20
219.403364
 30
0.0
 10
138.371519
 20
219.718114
 30
0.0
 10
138.803140
 20
219.925983
 30
0.0
 10
139.241435
 20
219.999448
 30
0.0
 10
139.668374
 20
219.949650
 30
0.0
 10
140.065264
 20
219.766715
 30
0.0
 10
140.316232
 20
219.549125
 30
0.0
 10
140.464978
 20
219.379358
 30
0.0
 10
140.532223
 20
219.290859
 30
0.0
 10
140.591005
 20
219.200256
 30
0.0
 10
140.641529
 20
219.114296
 30
0.0
 10
140.684298
 20
219.039406
 30
0.0
 10
140.707747
 20
218.992901
 30
0.0
 10
140.718260
 20
218.972052
 30
0.0
 11
140.138540
 21
217.082749
 31
0.0
 11
139.717706
 21
216.755954
 31
0.0
 11
139.294642
 21
216.558324
 31
0.0
 11
138.869350
 21
216.489858
 31
0.0
 11
138.461080
 21
216.543366
 31
0.0
 11
138.086310
 21
216.714689
 31
0.0
 11
137.745040
 21
217.003828
 31
0.0
 11
137.472617
 21
217.374837
 31
0.0
 11
137.326680
 21
217.767918
 31
0.0
 11
137.307230
 21
218.183070
 31
0.0
 11
137.411691
 21
218.601600
 31
0.0
 11
137.637474
 21
219.004811
 31
0.0
 11
137.984580
 21
219.392704
 31
0.0
 11
138.398690
 21
219.713231
 31
0.0
 11
138.819513
 21
219.908772
 31
0.0
 11
139.247050
 21
219.979327
 31
0.0
 11
139.662388
 21
219.928205
 31
0.0
 11
140.043628
 21
219.755934
 31
0.0
 11
140.390770
 21
219.462512
 31
0.0
 11
140.464168
 21
219.378305
 31
0.0
 11
140.531161
 21
219.289986
 31
0.0
 11
140.591750
 21
219.197557
 31
0.0
 11
140.644073
 21
219.109511
 31
0.0
 11
140.686243
 21
219.034342
 31
0.0
 11
140.718260
 21
218.972052
 31
0.0
  0
LWPOLYLINE
  5
173
100
AcDbEntity
  8
Layer_1
 62
7
100
AcDbPolyline
 90
4
 70
0
 10
140.718260
 20
218.972052
 30
0.0
 10
141.721070
 20
217.896612
 30
0.0
 10
141.351390
 20
217.551894
 30
0.0
 10
140.749700
 20
218.197158
 30
0.0
  0
SPLINE
  5
174
100
AcDbEntity
  8
Layer_1
 62
7
100
AcDbSpline
 70
0
 71
3
 72
13
 73
9
 74
7
 40
0.000000
 40
0.000000
 40
0.000000
 40
0.000000
 40
0.196058
 40
0.395419
 40
0.601119
 40
0.817320
 40
1.048676
 40
1.298102
 40
1.298102
 40
1.298102
 40
1.298102
 10
140.749700
 20
218.197158
 30
0.0
 10
140.739698
 20
218.132481
 30
0.0
 10
140.719527
 20
218.002039
 30
0.0
 10
140.657066
 20
217.810836
 30
0.0
 10
140.571756
 20
217.621710
 30
0.0
 10
140.457184
 20
217.435867
 30
0.0
 10
140.312552
 20
217.253213
 30
0.0
 10
140.197979
 20
217.140976
 30
0.0
 10
140.138540
 20
217.082749
 30
0.0
 11
140.749700
 21
218.197158
 31
0.0
 11
140.714553
 21
218.004276
 31
0.0
 11
140.654447
 21
217.814192
 31
0.0
 11
140.569380
 21
217.626906
 31
0.0
 11
140.456487
 21
217.442520
 31
0.0
 11
140.312873
 21
217.261134
 31
0.0
 11
140.138540
 21
217.082749
 31
0.0
  0
LWPOLYLINE
  5
175
100
AcDbEntity
  8
Layer_1
 62
7
100
AcDbPolyline
 90
1
 70
1
 10
140.138540
 20
217.082749
 30
0.0
  0
LWPOLYLINE
  5
176
100
AcDbEntity
  8
Layer_1
 62
7
100
AcDbPolyline
 90
1
 70
1
 10
139.733240
 20
217.517406
 30
0.0
  0
SPLINE
  5
177
100
AcDbEntity
  8
Layer_1
 62
7
100
AcDbSpline
 70
0
 71
3
 72
31
 73
27
 74
25
 40
0.000000
 40
0.000000
 40
0.000000
 40
0.000000
 40
0.403294
 40
0.742595
 40
1.033536
 40
1.298142
 40
1.562743
 40
1.855018
 40
2.159334
 40
2.432562
 40
2.704796
 40
3.000227
 40
3.334583
 40
3.722599
 40
4.116412
 40
4.452013
 40
4.744966
 40
5.014877
 40
5.284042
 40
5.580456
 40
5.870037
 40
6.134638
 40
6.401222
 40
6.694408
 40
7.032246
 40
7.430840
 40
7.430840
 40
7.430840
 40
7.430840
 10
139.733240
 20
217.517406
 30
0.0
 10
139.828722
 20
217.612389
 30
0.0
 10
140.004535
 20
217.787282
 30
0.0
 10
140.196226
 20
218.077163
 30
0.0
 10
140.296705
 20
218.362215
 30
0.0
 10
140.301046
 20
218.640938
 30
0.0
 10
140.209578
 20
218.904625
 30
0.0
 10
140.035044
 20
219.136330
 30
0.0
 10
139.813601
 20
219.328201
 30
0.0
 10
139.547332
 20
219.440964
 30
0.0
 10
139.261556
 20
219.450268
 30
0.0
 10
138.968756
 20
219.367600
 30
0.0
 10
138.670848
 20
219.200288
 30
0.0
 10
138.383157
 20
218.962419
 30
0.0
 10
138.125490
 20
218.691749
 30
0.0
 10
137.936871
 20
218.404939
 30
0.0
 10
137.837174
 20
218.118219
 30
0.0
 10
137.833213
 20
217.835534
 30
0.0
 10
137.925950
 20
217.567347
 30
0.0
 10
138.098697
 20
217.336738
 30
0.0
 10
138.315470
 20
217.149241
 30
0.0
 10
138.571948
 20
217.040311
 30
0.0
 10
138.851376
 20
217.022812
 30
0.0
 10
139.144459
 20
217.100531
 30
0.0
 10
139.447426
 20
217.268336
 30
0.0
 10
139.632869
 20
217.429939
 30
0.0
 10
139.733240
 20
217.517406
 30
0.0
 11
139.733240
 21
217.517406
 31
0.0
 11
140.008453
 21
217.812201
 31
0.0
 11
140.191827
 21
218.097682
 31
0.0
 11
140.283360
 21
218.373849
 31
0.0
 11
140.285614
 21
218.638445
 31
0.0
 11
140.201178
 21
218.889212
 31
0.0
 11
140.030050
 21
219.126151
 31
0.0
 11
139.796266
 21
219.320966
 31
0.0
 11
139.543392
 21
219.424449
 31
0.0
 11
139.271430
 21
219.436602
 31
0.0
 11
138.985813
 21
219.361087
 31
0.0
 11
138.691963
 21
219.201569
 31
0.0
 11
138.389880
 21
218.958047
 31
0.0
 11
138.121868
 21
218.669503
 31
0.0
 11
137.942178
 21
218.386061
 31
0.0
 11
137.850810
 21
218.107720
 31
0.0
 11
137.848853
 21
217.837816
 31
0.0
 11
137.934583
 21
217.582668
 31
0.0
 11
138.108000
 21
217.342278
 31
0.0
 11
138.330558
 21
217.157007
 31
0.0
 11
138.574818
 21
217.055269
 31
0.0
 11
138.840780
 21
217.037064
 31
0.0
 11
139.125484
 21
217.107071
 31
0.0
 11
139.422971
 21
217.267185
 31
0.0
 11
139.733240
 21
217.517406
 31
0.0
  0
LWPOLYLINE
  5
178
100
AcDbEntity
  8
Layer_1
 62
7
100
AcDbPolyline
 90
3
 70
0
 10
141.064430
 20
212.780031
 30
0.0
 10
140.745630
 20
213.259672
 30
0.0
 10
141.044130
 20
213.458074
 30
0.0
  0
LWPOLYLINE
  5
179
100
AcDbEntity
  8
Layer_1
 62
7
100
AcDbPolyline
 90
4
 70
0
 10
143.462780
 20
215.065649
 30
0.0
 10
143.595450
 20
215.153829
 30
0.0
 10
143.914250
 20
214.674188
 30
0.0
 10
141.064430
 20
212.780031
 30
0.0
  0
SPLINE
  5
17a
100
AcDbEntity
  8
Layer_1
 62
7
100
AcDbSpline
 70
0
 71
3
 72
37
 73
33
 74
31
 40
0.000000
 40
0.000000
 40
0.000000
 40
0.000000
 40
0.213753
 40
0.419106
 40
0.618069
 40
0.814454
 40
1.013517
 40
1.219195
 40
1.603334
 40
1.964131
 40
2.339632
 40
2.746679
 40
3.198778
 40
3.717345
 40
3.997133
 40
4.258693
 40
4.505512
 40
4.740293
 40
4.963595
 40
5.178867
 40
5.383465
 40
5.583621
 40
5.783405
 40
5.983246
 40
6.179518
 40
6.376050
 40
6.549126
 40
6.710001
 40
6.860418
 40
7.010508
 40
7.169264
 40
7.337172
 40
7.337172
 40
7.337172
 40
7.337172
 10
141.044130
 20
213.458074
 30
0.0
 10
140.975923
 20
213.478864
 30
0.0
 10
140.842188
 20
213.519626
 30
0.0
 10
140.653263
 20
213.602926
 30
0.0
 10
140.477932
 20
213.700331
 30
0.0
 10
140.317971
 20
213.818413
 30
0.0
 10
140.175791
 20
213.960688
 30
0.0
 10
140.016472
 20
214.170398
 30
0.0
 10
139.871632
 20
214.457651
 30
0.0
 10
139.819697
 20
214.834691
 30
0.0
 10
139.895480
 20
215.214566
 30
0.0
 10
140.089216
 20
215.583192
 30
0.0
 10
140.398389
 20
215.927569
 30
0.0
 10
140.730590
 20
216.182382
 30
0.0
 10
141.033207
 20
216.365518
 30
0.0
 10
141.272262
 20
216.475996
 30
0.0
 10
141.508829
 20
216.551892
 30
0.0
 10
141.740789
 20
216.592968
 30
0.0
 10
141.965280
 20
216.607221
 30
0.0
 10
142.179913
 20
216.592933
 30
0.0
 10
142.382694
 20
216.549602
 30
0.0
 10
142.572652
 20
216.480368
 30
0.0
 10
142.749207
 20
216.385039
 30
0.0
 10
142.909282
 20
216.266407
 30
0.0
 10
143.051306
 20
216.128127
 30
0.0
 10
143.165905
 20
215.977544
 30
0.0
 10
143.257167
 20
215.825850
 30
0.0
 10
143.327995
 20
215.680412
 30
0.0
 10
143.378242
 20
215.534679
 30
0.0
 10
143.413632
 20
215.385627
 30
0.0
 10
143.443067
 20
215.229367
 30
0.0
 10
143.456087
 20
215.121232
 30
0.0
 10
143.462780
 20
215.065649
 30
0.0
 11
141.044130
 21
213.458074
 31
0.0
 11
140.840971
 21
213.524533
 31
0.0
 11
140.652748
 21
213.606643
 31
0.0
 11
140.479460
 21
213.704404
 31
0.0
 11
140.321870
 21
213.821590
 31
0.0
 11
140.180740
 21
213.961976
 31
0.0
 11
140.056070
 21
214.125564
 31
0.0
 11
139.889076
 21
214.471506
 31
0.0
 11
139.840292
 21
214.828990
 31
0.0
 11
139.909720
 21
215.198016
 31
0.0
 11
140.095163
 21
215.560368
 31
0.0
 11
140.392160
 21
215.901229
 31
0.0
 11
140.800710
 21
216.220600
 31
0.0
 11
141.040984
 21
216.363951
 31
0.0
 11
141.278754
 21
216.472943
 31
0.0
 11
141.514020
 21
216.547574
 31
0.0
 11
141.745087
 21
216.589172
 31
0.0
 11
141.967993
 21
216.602458
 31
0.0
 11
142.182740
 21
216.587434
 31
0.0
 11
142.382820
 21
216.544675
 31
0.0
 11
142.570780
 21
216.475876
 31
0.0
 11
142.746620
 21
216.381039
 31
0.0
 11
142.907319
 21
216.262244
 31
0.0
 11
143.047602
 21
216.124973
 31
0.0
 11
143.167470
 21
215.969228
 31
0.0
 11
143.256951
 21
215.821078
 31
0.0
 11
143.326421
 21
215.675976
 31
0.0
 11
143.375880
 21
215.533922
 31
0.0
 11
143.411847
 21
215.388206
 31
0.0
 11
143.440813
 21
215.232115
 31
0.0
 11
143.462780
 21
215.065649
 31
0.0
  0
LWPOLYLINE
  5
17b
100
AcDbEntity
  8
Layer_1
 62
7
100
AcDbPolyline
 90
2
 70
0
 10
141.447230
 20
213.726003
 30
0.0
 10
143.069850
 20
214.804499
 30
0.0
  0
SPLINE
  5
17c
100
AcDbEntity
  8
Layer_1
 62
7
100
AcDbSpline
 70
0
 71
3
 72
31
 73
27
 74
25
 40
0.000000
 40
0.000000
 40
0.000000
 40
0.000000
 40
0.162465
 40
0.310079
 40
0.443336
 40
0.572516
 40
0.707281
 40
0.848652
 40
1.149840
 40
1.425009
 40
1.701559
 40
1.998122
 40
2.329147
 40
2.711545
 40
3.086341
 40
3.403444
 40
3.674161
 40
3.916125
 40
4.162331
 40
4.442960
 40
4.607456
 40
4.776699
 40
4.953805
 40
5.136169
 40
5.318472
 40
5.502032
 40
5.502032
 40
5.502032
 40
5.502032
 10
143.069850
 20
214.804499
 30
0.0
 10
143.060271
 20
214.857809
 30
0.0
 10
143.041989
 20
214.959555
 30
0.0
 10
143.006948
 20
215.103245
 30
0.0
 10
142.966016
 20
215.233729
 30
0.0
 10
142.918330
 20
215.357415
 30
0.0
 10
142.857008
 20
215.478060
 30
0.0
 10
142.757152
 20
215.642563
 30
0.0
 10
142.603062
 20
215.829428
 30
0.0
 10
142.359401
 20
215.985797
 30
0.0
 10
142.079421
 20
216.052085
 30
0.0
 10
141.774862
 20
216.031110
 30
0.0
 10
141.453182
 20
215.922113
 30
0.0
 10
141.137932
 20
215.739910
 30
0.0
 10
140.849913
 20
215.525535
 30
0.0
 10
140.623720
 20
215.295829
 30
0.0
 10
140.472911
 20
215.060125
 30
0.0
 10
140.411882
 20
214.808348
 30
0.0
 10
140.454424
 20
214.549715
 30
0.0
 10
140.562471
 20
214.342916
 30
0.0
 10
140.687792
 20
214.180386
 30
0.0
 10
140.810740
 20
214.061706
 30
0.0
 10
140.952618
 20
213.956370
 30
0.0
 10
141.109570
 20
213.866569
 30
0.0
 10
141.274444
 20
213.787090
 30
0.0
 10
141.389503
 20
213.746412
 30
0.0
 10
141.447230
 20
213.726003
 30
0.0
 11
143.069850
 21
214.804499
 31
0.0
 11
143.039404
 21
214.964085
 31
0.0
 11
143.004201
 21
215.107441
 31
0.0
 11
142.964240
 21
215.234565
 31
0.0
 11
142.917026
 21
215.354808
 31
0.0
 11
142.856582
 21
215.475257
 31
0.0
 11
142.782910
 21
215.595914
 31
0.0
 11
142.586302
 21
215.824080
 31
0.0
 11
142.353706
 21
215.971107
 31
0.0
 11
142.085120
 21
216.036997
 31
0.0
 11
141.789042
 21
216.020037
 31
0.0
 11
141.473969
 21
215.918516
 31
0.0
 11
141.139900
 21
215.732435
 31
0.0
 11
140.841170
 21
215.506089
 31
0.0
 11
140.621927
 21
215.276989
 31
0.0
 11
140.482170
 21
215.045136
 31
0.0
 11
140.428504
 21
214.809199
 31
0.0
 11
140.464134
 21
214.565585
 31
0.0
 11
140.589060
 21
214.314295
 31
0.0
 11
140.689799
 21
214.184255
 31
0.0
 11
140.811136
 21
214.066269
 31
0.0
 11
140.953070
 21
213.960339
 31
0.0
 11
141.110594
 21
213.868454
 31
0.0
 11
141.275314
 21
213.790342
 31
0.0
 11
141.447230
 21
213.726003
 31
0.0
  0
LWPOLYLINE
  5
17d
100
AcDbEntity
  8
Layer_1
 62
7
100
AcDbPolyline
 90
1
 70
1
 10
141.447230
 20
213.726003
 30
0.0
  0
SPLINE
  5
17e
100
AcDbEntity
  8
Layer_1
 62
7
100
AcDbSpline
 70
0
 71
3
 72
19
 73
15
 74
13
 40
0.000000
 40
0.000000
 40
0.000000
 40
0.000000
 40
0.499542
 40
0.960035
 40
1.406677
 40
1.831027
 40
2.237564
 40
2.666282
 40
2.804948
 40
2.956177
 40
3.120737
 40
3.289292
 40
3.457486
 40
3.627259
 40
3.627259
 40
3.627259
 40
3.627259
 10
144.469850
 20
209.753395
 30
0.0
 10
144.314353
 20
209.692204
 30
0.0
 10
144.015514
 20
209.574604
 30
0.0
 10
143.543437
 20
209.523282
 30
0.0
 10
143.099705
 20
209.581721
 30
0.0
 10
142.698854
 20
209.742982
 30
0.0
 10
142.374222
 20
210.020806
 30
0.0
 10
142.202722
 20
210.302396
 30
0.0
 10
142.114189
 20
210.525070
 30
0.0
 10
142.069934
 20
210.670099
 30
0.0
 10
142.031398
 20
210.826998
 30
0.0
 10
142.005597
 20
210.992336
 30
0.0
 10
141.997402
 20
211.161491
 30
0.0
 10
142.006986
 20
211.273838
 30
0.0
 10
142.011800
 20
211.330274
 30
0.0
 11
144.469850
 21
209.753395
 31
0.0
 11
143.997038
 21
209.592178
 31
0.0
 11
143.539334
 21
209.541565
 31
0.0
 11
143.096740
 21
209.601558
 31
0.0
 11
142.705411
 21
209.765675
 31
0.0
 11
142.396091
 21
210.029481
 31
0.0
 11
142.168780
 21
210.392976
 31
0.0
 11
142.117449
 21
210.521792
 31
0.0
 11
142.072522
 21
210.666193
 31
0.0
 11
142.034000
 21
210.826181
 31
0.0
 11
142.008556
 21
210.992804
 31
0.0
 11
142.001156
 21
211.160835
 31
0.0
 11
142.011800
 21
211.330274
 31
0.0
  0
LWPOLYLINE
  5
17f
100
AcDbEntity
  8
Layer_1
 62
7
100
AcDbPolyline
 90
4
 70
0
 10
142.011800
 20
211.330274
 30
0.0
 10
140.701960
 20
210.739879
 30
0.0
 10
140.465300
 20
211.264932
 30
0.0
 10
143.420120
 20
212.596782
 30
0.0
  0
SPLINE
  5
180
100
AcDbEntity
  8
Layer_1
 62
7
100
AcDbSpline
 70
0
 71
3
 72
25
 73
21
 74
19
 40
0.000000
 40
0.000000
 40
0.000000
 40
0.000000
 40
0.240945
 40
0.463381
 40
0.670570
 40
0.869765
 40
1.062663
 40
1.253058
 40
1.433189
 40
1.618829
 40
1.814144
 40
2.016780
 40
2.219742
 40
2.425640
 40
2.885501
 40
3.293000
 40
3.684052
 40
4.091622
 40
4.543886
 40
5.067164
 40
5.067164
 40
5.067164
 40
5.067164
 10
143.420120
 20
212.596782
 30
0.0
 10
143.494241
 20
212.627901
 30
0.0
 10
143.636791
 20
212.687748
 30
0.0
 10
143.853378
 20
212.745832
 30
0.0
 10
144.061647
 20
212.774583
 30
0.0
 10
144.262090
 20
212.772104
 30
0.0
 10
144.454776
 20
212.744014
 30
0.0
 10
144.635586
 20
212.690647
 30
0.0
 10
144.803947
 20
212.611233
 30
0.0
 10
144.958780
 20
212.504995
 30
0.0
 10
145.102239
 20
212.372752
 30
0.0
 10
145.231779
 20
212.219415
 30
0.0
 10
145.345708
 20
212.049800
 30
0.0
 10
145.477833
 20
211.791747
 30
0.0
 10
145.594423
 20
211.449877
 30
0.0
 10
145.620455
 20
211.024804
 30
0.0
 10
145.510303
 20
210.630113
 30
0.0
 10
145.272783
 20
210.280283
 30
0.0
 10
144.918139
 20
209.977202
 30
0.0
 10
144.626399
 20
209.831534
 30
0.0
 10
144.469910
 20
209.753398
 30
0.0
 11
143.420120
 21
212.596782
 31
0.0
 11
143.644409
 21
212.684810
 31
0.0
 11
143.859249
 21
212.742443
 31
0.0
 11
144.064640
 21
212.769682
 31
0.0
 11
144.263824
 21
212.767616
 31
0.0
 11
144.454644
 21
212.739380
 31
0.0
 11
144.637100
 21
212.684972
 31
0.0
 11
144.799904
 21
212.607890
 31
0.0
 11
144.953384
 21
212.503456
 31
0.0
 11
145.097540
 21
212.371672
 31
0.0
 11
145.228747
 21
212.217250
 31
0.0
 11
145.341713
 21
212.048632
 31
0.0
 11
145.436440
 21
211.865818
 31
0.0
 11
145.578669
 21
211.428504
 31
0.0
 11
145.597502
 21
211.021441
 31
0.0
 11
145.492940
 21
210.644628
 31
0.0
 11
145.268417
 21
210.304477
 31
0.0
 11
144.927407
 21
210.007400
 31
0.0
 11
144.469910
 21
209.753398
 31
0.0
  0
LWPOLYLINE
  5
181
100
AcDbEntity
  8
Layer_1
 62
7
100
AcDbPolyline
 90
1
 70
1
 10
144.469910
 20
209.753398
 30
0.0
  0
SPLINE
  5
182
100
AcDbEntity
  8
Layer_1
 62
7
100
AcDbSpline
 70
0
 71
3
 72
19
 73
15
 74
13
 40
0.000000
 40
0.000000
 40
0.000000
 40
0.000000
 40
0.406648
 40
0.743470
 40
1.026207
 40
1.280519
 40
1.533713
 40
1.811599
 40
2.106484
 40
2.360040
 40
2.599169
 40
2.854060
 40
3.146800
 40
3.490049
 40
3.490049
 40
3.490049
 40
3.490049
 10
144.192120
 20
210.280099
 30
0.0
 10
144.314115
 20
210.339690
 30
0.0
 10
144.537157
 20
210.448639
 30
0.0
 10
144.811441
 20
210.657978
 30
0.0
 10
144.993770
 20
210.890599
 30
0.0
 10
145.081242
 20
211.144421
 30
0.0
 10
145.079704
 20
211.411099
 30
0.0
 10
144.991740
 20
211.675118
 30
0.0
 10
144.854335
 20
211.916271
 30
0.0
 10
144.662810
 20
212.103178
 30
0.0
 10
144.426635
 20
212.200332
 30
0.0
 10
144.161055
 20
212.209883
 30
0.0
 10
143.867018
 20
212.154904
 30
0.0
 10
143.670593
 20
212.073904
 30
0.0
 10
143.564580
 20
212.030187
 30
0.0
 11
144.192120
 21
210.280099
 31
0.0
 11
144.550827
 21
210.471650
 31
0.0
 11
144.815160
 21
210.680401
 31
0.0
 11
144.985120
 21
210.906353
 31
0.0
 11
145.067010
 21
211.147119
 31
0.0
 11
145.067133
 21
211.400313
 31
0.0
 11
144.985490
 21
211.665935
 31
0.0
 11
144.835270
 21
211.919689
 31
0.0
 11
144.649810
 21
212.092592
 31
0.0
 11
144.429110
 21
212.184646
 31
0.0
 11
144.174722
 21
212.200662
 31
0.0
 11
143.886546
 21
212.149175
 31
0.0
 11
143.564580
 21
212.030187
 31
0.0
  0
LWPOLYLINE
  5
183
100
AcDbEntity
  8
Layer_1
 62
7
100
AcDbPolyline
 90
2
 70
0
 10
143.564580
 20
212.030187
 30
0.0
 10
142.439070
 20
211.522876
 30
0.0
  0
LWPOLYLINE
  5
184
100
AcDbEntity
  8
Layer_1
 62
7
100
AcDbPolyline
 90
1
 70
1
 10
144.192110
 20
210.280099
 30
0.0
  0
SPLINE
  5
185
100
AcDbEntity
  8
Layer_1
 62
7
100
AcDbSpline
 70
0
 71
3
 72
19
 73
15
 74
13
 40
0.000000
 40
0.000000
 40
0.000000
 40
0.000000
 40
0.157461
 40
0.301239
 40
0.431873
 40
0.561718
 40
0.700312
 40
0.848461
 40
1.156449
 40
1.435765
 40
1.714467
 40
2.010735
 40
2.336851
 40
2.709415
 40
2.709415
 40
2.709415
 40
2.709415
 10
142.439070
 20
211.522876
 30
0.0
 10
142.439073
 20
211.470372
 30
0.0
 10
142.439079
 20
211.369926
 30
0.0
 10
142.449124
 20
211.226252
 30
0.0
 10
142.465659
 20
211.092309
 30
0.0
 10
142.498298
 20
210.963079
 30
0.0
 10
142.542348
 20
210.831279
 30
0.0
 10
142.617359
 20
210.647787
 30
0.0
 10
142.741008
 20
210.432810
 30
0.0
 10
142.958669
 20
210.234987
 30
0.0
 10
143.226428
 20
210.123797
 30
0.0
 10
143.528917
 20
210.095373
 30
0.0
 10
143.860248
 20
210.145790
 30
0.0
 10
144.076693
 20
210.233388
 30
0.0
 10
144.192110
 20
210.280099
 30
0.0
 11
142.439070
 21
211.522876
 31
0.0
 11
142.440992
 21
211.365427
 31
0.0
 11
142.450759
 21
211.221981
 31
0.0
 11
142.468370
 21
211.092539
 31
0.0
 11
142.499087
 21
210.966380
 31
0.0
 11
142.542703
 21
210.834828
 31
0.0
 11
142.599220
 21
210.697883
 31
0.0
 11
142.759268
 21
210.434746
 31
0.0
 11
142.967504
 21
210.248587
 31
0.0
 11
143.223930
 21
210.139405
 31
0.0
 11
143.518519
 21
210.107910
 31
0.0
 11
143.841246
 21
210.154808
 31
0.0
 11
144.192110
 21
210.280099
 31
0.0
  0
LWPOLYLINE
  5
186
100
AcDbEntity
  8
Layer_1
 62
7
100
AcDbPolyline
 90
4
 70
1
 10
143.281220
 20
207.603533
 30
0.0
 10
143.107790
 20
208.152722
 30
0.0
 10
146.370790
 20
209.183195
 30
0.0
 10
146.544220
 20
208.634006
 30
0.0
  0
SPLINE
  5
187
100
AcDbEntity
  8
Layer_1
 62
7
100
AcDbSpline
 70
0
 71
3
 72
19
 73
15
 74
13
 40
0.000000
 40
0.000000
 40
0.000000
 40
0.000000
 40
12.548607
 40
24.725028
 40
37.273635
 40
49.822246
 40
61.998670
 40
74.547281
 40
87.095899
 40
99.272329
 40
111.820947
 40
124.369564
 40
136.545994
 40
149.094611
 40
149.094611
 40
149.094611
 40
149.094611
 10
143.739690
 20
195.456090
 30
0.0
 10
142.179975
 20
191.468350
 30
0.0
 10
139.106805
 20
183.611144
 30
0.0
 10
127.792147
 20
176.719343
 30
0.0
 10
114.887770
 20
176.097111
 30
0.0
 10
103.327642
 20
182.142993
 30
0.0
 10
96.361368
 20
193.087582
 30
0.0
 10
95.758988
 20
206.093165
 30
0.0
 10
101.801322
 20
217.625656
 30
0.0
 10
112.740297
 20
224.600756
 30
0.0
 10
125.772440
 20
225.194665
 30
0.0
 10
137.204817
 20
219.177097
 30
0.0
 10
144.546777
 20
208.149209
 30
0.0
 10
144.011405
 20
199.729378
 30
0.0
 10
143.739690
 20
195.456090
 30
0.0
 11
143.739690
 21
195.456090
 31
0.0
 11
137.918864
 21
184.339187
 31
0.0
 11
127.649374
 21
177.796805
 31
0.0
 11
115.114050
 21
177.219560
 31
0.0
 11
103.997139
 21
183.040379
 31
0.0
 11
97.454748
 21
193.309869
 31
0.0
 11
96.877498
 21
205.845196
 31
0.0
 11
102.698319
 21
216.962113
 31
0.0
 11
112.967816
 21
223.504505
 31
0.0
 11
125.503150
 21
224.081749
 31
0.0
 11
136.620064
 21
218.260923
 31
0.0
 11
143.162451
 21
207.991424
 31
0.0
 11
143.739690
 21
195.456090
 31
0.0
  0
LWPOLYLINE
  5
188
100
AcDbEntity
  8
Layer_1
 62
7
100
AcDbPolyline
 90
1
 70
1
 10
143.739690
 20
195.456090
 30
0.0
  0
SPLINE
  5
189
100
AcDbEntity
  8
Layer_1
 62
7
100
AcDbSpline
 70
0
 71
3
 72
19
 73
15
 74
13
 40
0.000000
 40
0.000000
 40
0.000000
 40
0.000000
 40
12.548605
 40
24.725023
 40
37.273628
 40
49.822236
 40
61.998656
 40
74.547263
 40
87.095877
 40
99.272303
 40
111.820917
 40
124.369532
 40
136.545959
 40
149.094574
 40
149.094574
 40
149.094574
 40
149.094574
 10
121.341840
 20
224.716832
 30
0.0
 10
125.539838
 20
223.873275
 30
0.0
 10
133.811324
 20
222.211181
 30
0.0
 10
142.563190
 20
212.265168
 30
0.0
 10
145.416789
 20
199.664891
 30
0.0
 10
141.470157
 20
187.230533
 30
0.0
 10
131.901527
 20
178.469585
 30
0.0
 10
119.198135
 20
175.617951
 30
0.0
 10
106.791614
 20
179.565897
 30
0.0
 10
98.022952
 20
189.127467
 30
0.0
 10
95.175057
 20
201.858487
 30
0.0
 10
99.115987
 20
214.162118
 30
0.0
 10
108.701413
 20
223.307513
 30
0.0
 10
117.086292
 20
224.242368
 30
0.0
 10
121.341840
 20
224.716832
 30
0.0
 11
121.341840
 21
224.716832
 31
0.0
 11
133.300625
 21
220.914866
 31
0.0
 11
141.526890
 21
211.937465
 31
0.0
 11
144.272100
 21
199.692821
 31
0.0
 11
140.470147
 21
187.734029
 31
0.0
 11
131.492754
 21
179.507753
 31
0.0
 11
119.248110
 21
176.762530
 31
0.0
 11
107.289314
 21
180.564489
 31
0.0
 11
99.063039
 21
189.541892
 31
0.0
 11
96.317826
 21
201.786544
 31
0.0
 11
100.119784
 21
213.745342
 31
0.0
 11
109.097187
 21
221.971618
 31
0.0
 11
121.341840
 21
224.716832
 31
0.0
  0
LWPOLYLINE
  5
18a
100
AcDbEntity
  8
Layer_1
 62
7
100
AcDbPolyline
 90
1
 70
1
 10
121.341840
 20
224.716832
 30
0.0
  0
ENDSEC
  0
SECTION
  2
OBJECTS
  0
DICTIONARY
  5
C
330
0
100
AcDbDictionary
  3
ACAD_GROUP
350
D
  3
ACAD_MLINESTYLE
350
17
  0
DICTIONARY
  5
D
330
C
100
AcDbDictionary
  0
DICTIONARY
  5
1A
330
C
100
AcDbDictionary
  0
DICTIONARY
  5
17
330
C
100
AcDbDictionary
  3
STANDARD
350
18
  0
DICTIONARY
  5
19
330
C
100
AcDbDictionary
  0
ENDSEC
  0
EOF
